<svg width="270" height="220" viewBox="0 0 270 220" fill="none" xmlns="http://www.w3.org/2000/svg">
<g filter="url(#filter0_d_877_250)">
<path d="M128.37 150.89C128.37 154.703 127.38 158.297 125.4 161.67C123.493 164.97 120.633 167.72 116.82 169.92C113.08 172.047 108.643 173.293 103.51 173.66V182.57H96.47V173.55C89.1367 172.89 83.2333 170.69 78.76 166.95C74.2867 163.137 71.9767 158.003 71.83 151.55H88.33C88.77 156.83 91.4833 160.02 96.47 161.12V140.11C91.19 138.79 86.9367 137.47 83.71 136.15C80.4833 134.83 77.6967 132.703 75.35 129.77C73.0033 126.837 71.83 122.84 71.83 117.78C71.83 111.4 74.1033 106.193 78.65 102.16C83.27 98.1267 89.21 95.8167 96.47 95.23V86.32H103.51V95.23C110.55 95.8167 116.16 97.9433 120.34 101.61C124.593 105.277 126.977 110.337 127.49 116.79H110.88C110.66 114.663 109.89 112.83 108.57 111.29C107.323 109.677 105.637 108.54 103.51 107.88V128.67C109.01 130.063 113.337 131.42 116.49 132.74C119.717 133.987 122.503 136.077 124.85 139.01C127.197 141.87 128.37 145.83 128.37 150.89ZM87.89 117.01C87.89 119.43 88.6233 121.41 90.09 122.95C91.5567 124.417 93.6833 125.627 96.47 126.58V107.55C93.83 107.917 91.74 108.907 90.2 110.52C88.66 112.133 87.89 114.297 87.89 117.01ZM103.51 161.34C106.297 160.827 108.46 159.69 110 157.93C111.613 156.17 112.42 154.043 112.42 151.55C112.42 149.13 111.65 147.187 110.11 145.72C108.57 144.253 106.37 143.043 103.51 142.09V161.34ZM144.023 113.93C144.389 106.597 146.956 100.95 151.723 96.99C156.563 92.9567 162.906 90.94 170.753 90.94C176.106 90.94 180.689 91.8933 184.503 93.8C188.316 95.6333 191.176 98.1633 193.083 101.39C195.063 104.543 196.053 108.137 196.053 112.17C196.053 116.79 194.843 120.713 192.423 123.94C190.076 127.093 187.253 129.22 183.953 130.32V130.76C188.206 132.08 191.506 134.427 193.853 137.8C196.273 141.173 197.483 145.5 197.483 150.78C197.483 155.18 196.456 159.103 194.403 162.55C192.423 165.997 189.453 168.71 185.493 170.69C181.606 172.597 176.913 173.55 171.413 173.55C163.126 173.55 156.379 171.46 151.173 167.28C145.966 163.1 143.216 156.94 142.923 148.8H157.883C158.029 152.393 159.239 155.29 161.513 157.49C163.859 159.617 167.049 160.68 171.083 160.68C174.823 160.68 177.683 159.653 179.663 157.6C181.716 155.473 182.743 152.76 182.743 149.46C182.743 145.06 181.349 141.907 178.563 140C175.776 138.093 171.449 137.14 165.583 137.14H162.393V124.49H165.583C175.996 124.49 181.203 121.007 181.203 114.04C181.203 110.887 180.249 108.43 178.343 106.67C176.509 104.91 173.833 104.03 170.313 104.03C166.866 104.03 164.189 104.983 162.283 106.89C160.449 108.723 159.386 111.07 159.093 113.93H144.023Z" fill="white"/>
</g>
<defs>
<filter id="filter0_d_877_250" x="56.8301" y="75.3198" width="155.652" height="126.25" filterUnits="userSpaceOnUse" color-interpolation-filters="sRGB">
<feFlood flood-opacity="0" result="BackgroundImageFix"/>
<feColorMatrix in="SourceAlpha" type="matrix" values="0 0 0 0 0 0 0 0 0 0 0 0 0 0 0 0 0 0 127 0" result="hardAlpha"/>
<feOffset dy="4"/>
<feGaussianBlur stdDeviation="7.5"/>
<feComposite in2="hardAlpha" operator="out"/>
<feColorMatrix type="matrix" values="0 0 0 0 0 0 0 0 0 0 0 0 0 0 0 0 0 0 0.25 0"/>
<feBlend mode="normal" in2="BackgroundImageFix" result="effect1_dropShadow_877_250"/>
<feBlend mode="normal" in="SourceGraphic" in2="effect1_dropShadow_877_250" result="shape"/>
</filter>
</defs>
</svg>
