<svg width="270" height="220" viewBox="0 0 270 220" fill="none" xmlns="http://www.w3.org/2000/svg">
<g filter="url(#filter0_d_877_254)">
<path d="M135.5 49.2013C120.868 49.2198 106.565 53.512 94.376 61.5425L83.35 50.4576C82.7681 49.7898 81.9894 49.3203 81.1239 49.1152C80.2584 48.9102 79.3498 48.98 78.5265 49.3149C77.7032 49.6497 77.0067 50.2326 76.5354 50.9813C76.0641 51.73 75.8419 52.6067 75.9 53.4875V81.9387C75.9191 83.0499 76.3727 84.1103 77.165 84.8962C77.9572 85.6821 79.0262 86.132 80.1465 86.151H108.829C109.717 86.2086 110.601 85.9881 111.355 85.5207C112.11 85.0532 112.698 84.3623 113.035 83.5456C113.373 82.7289 113.443 81.8277 113.237 80.9692C113.03 80.1107 112.557 79.3383 111.883 78.761L105.178 72.1101C116.492 65.4781 129.699 62.7414 142.743 64.3257C155.788 65.91 167.939 71.7265 177.305 80.8703C186.672 90.014 192.729 101.972 194.535 114.884C196.34 127.797 193.793 140.939 187.289 152.266C180.785 163.594 170.689 172.471 158.571 177.517C146.454 182.563 132.995 183.496 120.289 180.168C107.582 176.841 96.3404 169.442 88.3125 159.121C80.2846 148.8 75.9208 136.136 75.9 123.101C75.9 121.141 75.1151 119.261 73.7179 117.875C72.3208 116.489 70.4259 115.711 68.45 115.711C66.4741 115.711 64.5792 116.489 63.1821 117.875C61.7849 119.261 61 121.141 61 123.101C61 137.717 65.3693 152.004 73.5555 164.157C81.7417 176.31 93.377 185.781 106.99 191.375C120.603 196.968 135.583 198.431 150.034 195.58C164.486 192.729 177.76 185.69 188.179 175.355C198.598 165.02 205.694 151.853 208.568 137.518C211.443 123.183 209.968 108.324 204.329 94.8206C198.69 81.3172 189.141 69.7757 176.89 61.6556C164.638 53.5354 150.235 49.2013 135.5 49.2013Z" fill="white"/>
</g>
<g filter="url(#filter1_d_877_254)">
<path d="M112.445 107.837C112.775 101.237 115.085 96.155 119.375 92.591C123.731 88.961 129.44 87.146 136.502 87.146C141.32 87.146 145.445 88.004 148.877 89.72C152.309 91.37 154.883 93.647 156.599 96.551C158.381 99.389 159.272 102.623 159.272 106.253C159.272 110.411 158.183 113.942 156.005 116.846C153.893 119.684 151.352 121.598 148.382 122.588V122.984C152.21 124.172 155.18 126.284 157.292 129.32C159.47 132.356 160.559 136.25 160.559 141.002C160.559 144.962 159.635 148.493 157.787 151.595C156.005 154.697 153.332 157.139 149.768 158.921C146.27 160.637 142.046 161.495 137.096 161.495C129.638 161.495 123.566 159.614 118.88 155.852C114.194 152.09 111.719 146.546 111.455 139.22H124.919C125.051 142.454 126.14 145.061 128.186 147.041C130.298 148.955 133.169 149.912 136.799 149.912C140.165 149.912 142.739 148.988 144.521 147.14C146.369 145.226 147.293 142.784 147.293 139.814C147.293 135.854 146.039 133.016 143.531 131.3C141.023 129.584 137.129 128.726 131.849 128.726H128.978V117.341H131.849C141.221 117.341 145.907 114.206 145.907 107.936C145.907 105.098 145.049 102.887 143.333 101.303C141.683 99.719 139.274 98.927 136.106 98.927C133.004 98.927 130.595 99.785 128.879 101.501C127.229 103.151 126.272 105.263 126.008 107.837H112.445Z" fill="white"/>
</g>
<defs>
<filter id="filter0_d_877_254" x="46" y="38" width="179" height="178" filterUnits="userSpaceOnUse" color-interpolation-filters="sRGB">
<feFlood flood-opacity="0" result="BackgroundImageFix"/>
<feColorMatrix in="SourceAlpha" type="matrix" values="0 0 0 0 0 0 0 0 0 0 0 0 0 0 0 0 0 0 127 0" result="hardAlpha"/>
<feOffset dy="4"/>
<feGaussianBlur stdDeviation="7.5"/>
<feComposite in2="hardAlpha" operator="out"/>
<feColorMatrix type="matrix" values="0 0 0 0 0 0 0 0 0 0 0 0 0 0 0 0 0 0 0.15 0"/>
<feBlend mode="normal" in2="BackgroundImageFix" result="effect1_dropShadow_877_254"/>
<feBlend mode="normal" in="SourceGraphic" in2="effect1_dropShadow_877_254" result="shape"/>
</filter>
<filter id="filter1_d_877_254" x="96.4551" y="76.146" width="79.104" height="104.349" filterUnits="userSpaceOnUse" color-interpolation-filters="sRGB">
<feFlood flood-opacity="0" result="BackgroundImageFix"/>
<feColorMatrix in="SourceAlpha" type="matrix" values="0 0 0 0 0 0 0 0 0 0 0 0 0 0 0 0 0 0 127 0" result="hardAlpha"/>
<feOffset dy="4"/>
<feGaussianBlur stdDeviation="7.5"/>
<feComposite in2="hardAlpha" operator="out"/>
<feColorMatrix type="matrix" values="0 0 0 0 0 0 0 0 0 0 0 0 0 0 0 0 0 0 0.25 0"/>
<feBlend mode="normal" in2="BackgroundImageFix" result="effect1_dropShadow_877_254"/>
<feBlend mode="normal" in="SourceGraphic" in2="effect1_dropShadow_877_254" result="shape"/>
</filter>
</defs>
</svg>
