<svg width="85" height="85" viewBox="0 0 85 85" fill="none" xmlns="http://www.w3.org/2000/svg">
<circle cx="42.5" cy="42.5" r="40.5" stroke="#3C3C3C" stroke-width="4"/>
<path d="M39 18C37.3545 18 36 19.3545 36 21V24C36 24.5222 36.1913 25.0546 36.5684 25.4316C36.857 25.7203 37.2675 25.7989 37.6641 25.8672C37.5036 26.0309 37.3075 26.1648 37.0215 26.2168L37.0039 26.2188L36.9863 26.2227C32.4767 27.2126 29.0667 31.1778 29.0176 36H29V36.0996H29.041C29.0877 37.3074 29.9272 38.1543 31 38.584V41.416C29.8932 41.8593 29 42.743 29 44V54C29 55.2566 29.8933 56.1406 31 56.584V59.416C29.8933 59.8594 29 60.7434 29 62V63C29 65.7455 31.2545 68 34 68H50C52.7455 68 55 65.7455 55 63V62C55 60.7434 54.1067 59.8594 53 59.416V56.584C54.1067 56.1406 55 55.2566 55 54V44C55 42.743 54.1068 41.8593 53 41.416V38.584C54.0728 38.1543 54.9123 37.3074 54.959 36.0996H55V36H54.9824C54.9333 31.1778 51.5233 27.2126 47.0137 26.2227L46.9961 26.2188L46.9785 26.2168C46.6925 26.1648 46.4964 26.0309 46.3359 25.8672C46.7325 25.7989 47.143 25.7203 47.4316 25.4316C47.8087 25.0546 48 24.5222 48 24V21C48 19.3545 46.6455 18 45 18H39ZM39 20H45C45.5545 20 46 20.4455 46 21V24H38V21C38 20.4455 38.4455 20 39 20ZM39.6445 26H44.3555C44.7239 27.0578 45.4507 27.9708 46.6211 28.1836L46.5859 28.1758C50.2205 28.9736 52.9538 32.1331 52.9883 36.0293C52.9704 36.5679 52.5431 37 52 37H51H35V39H51V41H35V43H51H52C52.5545 43 53 43.4455 53 44V54C53 54.565 52.565 55 52 55H51H35V57H51V59H35V61H51H52C52.565 61 53 61.435 53 62V63C53 64.6545 51.6545 66 50 66H34C32.3455 66 31 64.6545 31 63V62C31 61.435 31.435 61 32 61H33V55H32C31.435 55 31 54.565 31 54V44C31 43.4455 31.4455 43 32 43H33V37H32C31.4569 37 31.0296 36.5679 31.0117 36.0293C31.0462 32.1331 33.7795 28.9736 37.4141 28.1758L37.3789 28.1836C38.5494 27.9708 39.2761 27.0578 39.6445 26Z" fill="#3C3C3C"/>
<line x1="25.0258" y1="59.1423" x2="12.6207" y2="70.0866" stroke="#3C3C3C" stroke-width="4"/>
<line x1="71.642" y1="15.4822" x2="55.509" y2="29.7153" stroke="#3C3C3C" stroke-width="4"/>
</svg>
