<svg width="360" height="361" viewBox="0 0 360 361" fill="none" xmlns="http://www.w3.org/2000/svg">
<path d="M133.626 89.966V113H129.006V98.018L122.835 113H119.337L113.133 98.018V113H108.513V89.966H113.76L121.086 107.093L128.412 89.966H133.626ZM140.536 92.54C139.722 92.54 139.04 92.287 138.49 91.781C137.962 91.253 137.698 90.604 137.698 89.834C137.698 89.064 137.962 88.426 138.49 87.92C139.04 87.392 139.722 87.128 140.536 87.128C141.35 87.128 142.021 87.392 142.549 87.92C143.099 88.426 143.374 89.064 143.374 89.834C143.374 90.604 143.099 91.253 142.549 91.781C142.021 92.287 141.35 92.54 140.536 92.54ZM142.813 94.718V113H138.193V94.718H142.813ZM146.19 103.793C146.19 101.945 146.553 100.306 147.279 98.876C148.027 97.446 149.039 96.346 150.315 95.576C151.591 94.806 153.01 94.421 154.572 94.421C155.76 94.421 156.893 94.685 157.971 95.213C159.049 95.719 159.907 96.401 160.545 97.259V88.58H165.231V113H160.545V110.294C159.973 111.196 159.17 111.922 158.136 112.472C157.102 113.022 155.903 113.297 154.539 113.297C152.999 113.297 151.591 112.901 150.315 112.109C149.039 111.317 148.027 110.206 147.279 108.776C146.553 107.324 146.19 105.663 146.19 103.793ZM160.578 103.859C160.578 102.737 160.358 101.78 159.918 100.988C159.478 100.174 158.884 99.558 158.136 99.14C157.388 98.7 156.585 98.48 155.727 98.48C154.869 98.48 154.077 98.689 153.351 99.107C152.625 99.525 152.031 100.141 151.569 100.955C151.129 101.747 150.909 102.693 150.909 103.793C150.909 104.893 151.129 105.861 151.569 106.697C152.031 107.511 152.625 108.138 153.351 108.578C154.099 109.018 154.891 109.238 155.727 109.238C156.585 109.238 157.388 109.029 158.136 108.611C158.884 108.171 159.478 107.555 159.918 106.763C160.358 105.949 160.578 104.981 160.578 103.859ZM183.801 99.272V103.166H169.809V99.272H183.801ZM197.034 89.966C199.454 89.966 201.577 90.439 203.403 91.385C205.251 92.331 206.67 93.684 207.66 95.444C208.672 97.182 209.178 99.206 209.178 101.516C209.178 103.826 208.672 105.85 207.66 107.588C206.67 109.304 205.251 110.635 203.403 111.581C201.577 112.527 199.454 113 197.034 113H188.982V89.966H197.034ZM196.869 109.073C199.289 109.073 201.159 108.413 202.479 107.093C203.799 105.773 204.459 103.914 204.459 101.516C204.459 99.118 203.799 97.248 202.479 95.906C201.159 94.542 199.289 93.86 196.869 93.86H193.602V109.073H196.869ZM211.449 103.793C211.449 101.945 211.812 100.306 212.538 98.876C213.286 97.446 214.287 96.346 215.541 95.576C216.817 94.806 218.236 94.421 219.798 94.421C221.162 94.421 222.35 94.696 223.362 95.246C224.396 95.796 225.221 96.489 225.837 97.325V94.718H230.49V113H225.837V110.327C225.243 111.185 224.418 111.9 223.362 112.472C222.328 113.022 221.129 113.297 219.765 113.297C218.225 113.297 216.817 112.901 215.541 112.109C214.287 111.317 213.286 110.206 212.538 108.776C211.812 107.324 211.449 105.663 211.449 103.793ZM225.837 103.859C225.837 102.737 225.617 101.78 225.177 100.988C224.737 100.174 224.143 99.558 223.395 99.14C222.647 98.7 221.844 98.48 220.986 98.48C220.128 98.48 219.336 98.689 218.61 99.107C217.884 99.525 217.29 100.141 216.828 100.955C216.388 101.747 216.168 102.693 216.168 103.793C216.168 104.893 216.388 105.861 216.828 106.697C217.29 107.511 217.884 108.138 218.61 108.578C219.358 109.018 220.15 109.238 220.986 109.238C221.844 109.238 222.647 109.029 223.395 108.611C224.143 108.171 224.737 107.555 225.177 106.763C225.617 105.949 225.837 104.981 225.837 103.859ZM252.492 94.718L241.173 121.646H236.256L240.216 112.538L232.89 94.718H238.071L242.79 107.489L247.575 94.718H252.492Z" fill="#316B62"/>
<path d="M48.8729 185.675C48.8729 187.125 48.3729 188.333 47.3729 189.3C46.3895 190.25 44.8812 190.725 42.8479 190.725H39.4979V198H37.2229V180.575H42.8479C44.8145 180.575 46.3062 181.05 47.3229 182C48.3562 182.95 48.8729 184.175 48.8729 185.675ZM42.8479 188.85C44.1145 188.85 45.0479 188.575 45.6479 188.025C46.2479 187.475 46.5479 186.692 46.5479 185.675C46.5479 183.525 45.3145 182.45 42.8479 182.45H39.4979V188.85H42.8479ZM53.9754 186.525C54.3754 185.742 54.9421 185.133 55.6754 184.7C56.4254 184.267 57.3337 184.05 58.4004 184.05V186.4H57.8004C55.2504 186.4 53.9754 187.783 53.9754 190.55V198H51.7004V184.3H53.9754V186.525ZM62.2016 182.075C61.7682 182.075 61.4016 181.925 61.1016 181.625C60.8016 181.325 60.6516 180.958 60.6516 180.525C60.6516 180.092 60.8016 179.725 61.1016 179.425C61.4016 179.125 61.7682 178.975 62.2016 178.975C62.6182 178.975 62.9682 179.125 63.2516 179.425C63.5516 179.725 63.7016 180.092 63.7016 180.525C63.7016 180.958 63.5516 181.325 63.2516 181.625C62.9682 181.925 62.6182 182.075 62.2016 182.075ZM63.3016 184.3V198H61.0266V184.3H63.3016ZM73.1539 198.225C71.8706 198.225 70.7039 197.933 69.6539 197.35C68.6206 196.767 67.8039 195.942 67.2039 194.875C66.6206 193.792 66.3289 192.542 66.3289 191.125C66.3289 189.725 66.6289 188.492 67.2289 187.425C67.8456 186.342 68.6789 185.517 69.7289 184.95C70.7789 184.367 71.9539 184.075 73.2539 184.075C74.5539 184.075 75.7289 184.367 76.7789 184.95C77.8289 185.517 78.6539 186.333 79.2539 187.4C79.8706 188.467 80.1789 189.708 80.1789 191.125C80.1789 192.542 79.8622 193.792 79.2289 194.875C78.6122 195.942 77.7706 196.767 76.7039 197.35C75.6372 197.933 74.4539 198.225 73.1539 198.225ZM73.1539 196.225C73.9706 196.225 74.7372 196.033 75.4539 195.65C76.1706 195.267 76.7456 194.692 77.1789 193.925C77.6289 193.158 77.8539 192.225 77.8539 191.125C77.8539 190.025 77.6372 189.092 77.2039 188.325C76.7706 187.558 76.2039 186.992 75.5039 186.625C74.8039 186.242 74.0456 186.05 73.2289 186.05C72.3956 186.05 71.6289 186.242 70.9289 186.625C70.2456 186.992 69.6956 187.558 69.2789 188.325C68.8622 189.092 68.6539 190.025 68.6539 191.125C68.6539 192.242 68.8539 193.183 69.2539 193.95C69.6706 194.717 70.2206 195.292 70.9039 195.675C71.5872 196.042 72.3372 196.225 73.1539 196.225ZM85.4451 186.525C85.8451 185.742 86.4118 185.133 87.1451 184.7C87.8951 184.267 88.8035 184.05 89.8701 184.05V186.4H89.2701C86.7201 186.4 85.4451 187.783 85.4451 190.55V198H83.1701V184.3H85.4451V186.525ZM101.936 186.175V194.25C101.936 194.917 102.078 195.392 102.361 195.675C102.645 195.942 103.136 196.075 103.836 196.075H105.511V198H103.461C102.195 198 101.245 197.708 100.611 197.125C99.978 196.542 99.6613 195.583 99.6613 194.25V186.175H97.8863V184.3H99.6613V180.85H101.936V184.3H105.511V186.175H101.936ZM114.243 198.225C112.959 198.225 111.793 197.933 110.743 197.35C109.709 196.767 108.893 195.942 108.293 194.875C107.709 193.792 107.418 192.542 107.418 191.125C107.418 189.725 107.718 188.492 108.318 187.425C108.934 186.342 109.768 185.517 110.818 184.95C111.868 184.367 113.043 184.075 114.343 184.075C115.643 184.075 116.818 184.367 117.868 184.95C118.918 185.517 119.743 186.333 120.343 187.4C120.959 188.467 121.268 189.708 121.268 191.125C121.268 192.542 120.951 193.792 120.318 194.875C119.701 195.942 118.859 196.767 117.793 197.35C116.726 197.933 115.543 198.225 114.243 198.225ZM114.243 196.225C115.059 196.225 115.826 196.033 116.543 195.65C117.259 195.267 117.834 194.692 118.268 193.925C118.718 193.158 118.943 192.225 118.943 191.125C118.943 190.025 118.726 189.092 118.293 188.325C117.859 187.558 117.293 186.992 116.593 186.625C115.893 186.242 115.134 186.05 114.318 186.05C113.484 186.05 112.718 186.242 112.018 186.625C111.334 186.992 110.784 187.558 110.368 188.325C109.951 189.092 109.743 190.025 109.743 191.125C109.743 192.242 109.943 193.183 110.343 193.95C110.759 194.717 111.309 195.292 111.993 195.675C112.676 196.042 113.426 196.225 114.243 196.225ZM133.199 179.5V198H130.924V179.5H133.199ZM149.226 184.3V198H146.951V195.975C146.518 196.675 145.91 197.225 145.126 197.625C144.36 198.008 143.51 198.2 142.576 198.2C141.51 198.2 140.551 197.983 139.701 197.55C138.851 197.1 138.176 196.433 137.676 195.55C137.193 194.667 136.951 193.592 136.951 192.325V184.3H139.201V192.025C139.201 193.375 139.543 194.417 140.226 195.15C140.91 195.867 141.843 196.225 143.026 196.225C144.243 196.225 145.201 195.85 145.901 195.1C146.601 194.35 146.951 193.258 146.951 191.825V184.3H149.226ZM159.743 184.05C161.409 184.05 162.759 184.558 163.793 185.575C164.826 186.575 165.343 188.025 165.343 189.925V198H163.093V190.25C163.093 188.883 162.751 187.842 162.068 187.125C161.384 186.392 160.451 186.025 159.268 186.025C158.068 186.025 157.109 186.4 156.393 187.15C155.693 187.9 155.343 188.992 155.343 190.425V198H153.068V184.3H155.343V186.25C155.793 185.55 156.401 185.008 157.168 184.625C157.951 184.242 158.809 184.05 159.743 184.05ZM168.209 191.125C168.209 189.708 168.492 188.475 169.059 187.425C169.625 186.358 170.409 185.533 171.409 184.95C172.425 184.367 173.584 184.075 174.884 184.075C176.567 184.075 177.95 184.483 179.034 185.3C180.134 186.117 180.859 187.25 181.209 188.7H178.759C178.525 187.867 178.067 187.208 177.384 186.725C176.717 186.242 175.884 186 174.884 186C173.584 186 172.534 186.45 171.734 187.35C170.934 188.233 170.534 189.492 170.534 191.125C170.534 192.775 170.934 194.05 171.734 194.95C172.534 195.85 173.584 196.3 174.884 196.3C175.884 196.3 176.717 196.067 177.384 195.6C178.05 195.133 178.509 194.467 178.759 193.6H181.209C180.842 195 180.109 196.125 179.009 196.975C177.909 197.808 176.534 198.225 174.884 198.225C173.584 198.225 172.425 197.933 171.409 197.35C170.409 196.767 169.625 195.942 169.059 194.875C168.492 193.808 168.209 192.558 168.209 191.125ZM191.044 184.05C192.078 184.05 193.011 184.275 193.844 184.725C194.678 185.158 195.328 185.817 195.794 186.7C196.278 187.583 196.519 188.658 196.519 189.925V198H194.269V190.25C194.269 188.883 193.928 187.842 193.244 187.125C192.561 186.392 191.628 186.025 190.444 186.025C189.244 186.025 188.286 186.4 187.569 187.15C186.869 187.9 186.519 188.992 186.519 190.425V198H184.244V179.5H186.519V186.25C186.969 185.55 187.586 185.008 188.369 184.625C189.169 184.242 190.061 184.05 191.044 184.05ZM202.586 194.85L199.786 201.575H198.261L200.086 194.85H202.586ZM214.632 186.175V194.25C214.632 194.917 214.773 195.392 215.057 195.675C215.34 195.942 215.832 196.075 216.532 196.075H218.207V198H216.157C214.89 198 213.94 197.708 213.307 197.125C212.673 196.542 212.357 195.583 212.357 194.25V186.175H210.582V184.3H212.357V180.85H214.632V184.3H218.207V186.175H214.632ZM220.113 191.1C220.113 189.7 220.396 188.475 220.963 187.425C221.53 186.358 222.305 185.533 223.288 184.95C224.288 184.367 225.396 184.075 226.613 184.075C227.813 184.075 228.855 184.333 229.738 184.85C230.621 185.367 231.28 186.017 231.713 186.8V184.3H234.013V198H231.713V195.45C231.263 196.25 230.588 196.917 229.688 197.45C228.805 197.967 227.771 198.225 226.588 198.225C225.371 198.225 224.271 197.925 223.288 197.325C222.305 196.725 221.53 195.883 220.963 194.8C220.396 193.717 220.113 192.483 220.113 191.1ZM231.713 191.125C231.713 190.092 231.505 189.192 231.088 188.425C230.671 187.658 230.105 187.075 229.388 186.675C228.688 186.258 227.913 186.05 227.063 186.05C226.213 186.05 225.438 186.25 224.738 186.65C224.038 187.05 223.48 187.633 223.063 188.4C222.646 189.167 222.438 190.067 222.438 191.1C222.438 192.15 222.646 193.067 223.063 193.85C223.48 194.617 224.038 195.208 224.738 195.625C225.438 196.025 226.213 196.225 227.063 196.225C227.913 196.225 228.688 196.025 229.388 195.625C230.105 195.208 230.671 194.617 231.088 193.85C231.505 193.067 231.713 192.158 231.713 191.125ZM245.508 198L240.133 191.95V198H237.858V179.5H240.133V190.375L245.408 184.3H248.583L242.133 191.125L248.608 198H245.508ZM263.224 190.625C263.224 191.058 263.199 191.517 263.149 192H252.199C252.282 193.35 252.74 194.408 253.574 195.175C254.424 195.925 255.449 196.3 256.649 196.3C257.632 196.3 258.449 196.075 259.099 195.625C259.765 195.158 260.232 194.542 260.499 193.775H262.949C262.582 195.092 261.849 196.167 260.749 197C259.649 197.817 258.282 198.225 256.649 198.225C255.349 198.225 254.182 197.933 253.149 197.35C252.132 196.767 251.332 195.942 250.749 194.875C250.165 193.792 249.874 192.542 249.874 191.125C249.874 189.708 250.157 188.467 250.724 187.4C251.29 186.333 252.082 185.517 253.099 184.95C254.132 184.367 255.315 184.075 256.649 184.075C257.949 184.075 259.099 184.358 260.099 184.925C261.099 185.492 261.865 186.275 262.399 187.275C262.949 188.258 263.224 189.375 263.224 190.625ZM260.874 190.15C260.874 189.283 260.682 188.542 260.299 187.925C259.915 187.292 259.39 186.817 258.724 186.5C258.074 186.167 257.349 186 256.549 186C255.399 186 254.415 186.367 253.599 187.1C252.799 187.833 252.34 188.85 252.224 190.15H260.874ZM271.917 182V179.925H276.617V198H274.317V182H271.917ZM290.34 186.175V194.25C290.34 194.917 290.481 195.392 290.765 195.675C291.048 195.942 291.54 196.075 292.24 196.075H293.915V198H291.865C290.598 198 289.648 197.708 289.015 197.125C288.381 196.542 288.065 195.583 288.065 194.25V186.175H286.29V184.3H288.065V180.85H290.34V184.3H293.915V186.175H290.34ZM301.521 198.225C300.471 198.225 299.529 198.05 298.696 197.7C297.863 197.333 297.204 196.833 296.721 196.2C296.238 195.55 295.971 194.808 295.921 193.975H298.271C298.338 194.658 298.654 195.217 299.221 195.65C299.804 196.083 300.563 196.3 301.496 196.3C302.363 196.3 303.046 196.108 303.546 195.725C304.046 195.342 304.296 194.858 304.296 194.275C304.296 193.675 304.029 193.233 303.496 192.95C302.963 192.65 302.138 192.358 301.021 192.075C300.004 191.808 299.171 191.542 298.521 191.275C297.888 190.992 297.338 190.583 296.871 190.05C296.421 189.5 296.196 188.783 296.196 187.9C296.196 187.2 296.404 186.558 296.821 185.975C297.238 185.392 297.829 184.933 298.596 184.6C299.363 184.25 300.238 184.075 301.221 184.075C302.738 184.075 303.963 184.458 304.896 185.225C305.829 185.992 306.329 187.042 306.396 188.375H304.121C304.071 187.658 303.779 187.083 303.246 186.65C302.729 186.217 302.029 186 301.146 186C300.329 186 299.679 186.175 299.196 186.525C298.713 186.875 298.471 187.333 298.471 187.9C298.471 188.35 298.613 188.725 298.896 189.025C299.196 189.308 299.563 189.542 299.996 189.725C300.446 189.892 301.063 190.083 301.846 190.3C302.829 190.567 303.629 190.833 304.246 191.1C304.863 191.35 305.388 191.733 305.821 192.25C306.271 192.767 306.504 193.442 306.521 194.275C306.521 195.025 306.313 195.7 305.896 196.3C305.479 196.9 304.888 197.375 304.121 197.725C303.371 198.058 302.504 198.225 301.521 198.225ZM312.008 186.825C312.458 186.042 313.124 185.392 314.008 184.875C314.908 184.342 315.949 184.075 317.133 184.075C318.349 184.075 319.449 184.367 320.433 184.95C321.433 185.533 322.216 186.358 322.783 187.425C323.349 188.475 323.633 189.7 323.633 191.1C323.633 192.483 323.349 193.717 322.783 194.8C322.216 195.883 321.433 196.725 320.433 197.325C319.449 197.925 318.349 198.225 317.133 198.225C315.966 198.225 314.933 197.967 314.033 197.45C313.149 196.917 312.474 196.258 312.008 195.475V204.5H309.733V184.3H312.008V186.825ZM321.308 191.1C321.308 190.067 321.099 189.167 320.683 188.4C320.266 187.633 319.699 187.05 318.983 186.65C318.283 186.25 317.508 186.05 316.658 186.05C315.824 186.05 315.049 186.258 314.333 186.675C313.633 187.075 313.066 187.667 312.633 188.45C312.216 189.217 312.008 190.108 312.008 191.125C312.008 192.158 312.216 193.067 312.633 193.85C313.066 194.617 313.633 195.208 314.333 195.625C315.049 196.025 315.824 196.225 316.658 196.225C317.508 196.225 318.283 196.025 318.983 195.625C319.699 195.208 320.266 194.617 320.683 193.85C321.099 193.067 321.308 192.15 321.308 191.1ZM41.7925 223.625C41.3091 222.608 40.6091 221.825 39.6925 221.275C38.7758 220.708 37.7091 220.425 36.4925 220.425C35.2758 220.425 34.1758 220.708 33.1925 221.275C32.2258 221.825 31.4591 222.625 30.8925 223.675C30.3425 224.708 30.0675 225.908 30.0675 227.275C30.0675 228.642 30.3425 229.842 30.8925 230.875C31.4591 231.908 32.2258 232.708 33.1925 233.275C34.1758 233.825 35.2758 234.1 36.4925 234.1C38.1925 234.1 39.5925 233.592 40.6925 232.575C41.7925 231.558 42.4341 230.183 42.6175 228.45H35.6675V226.6H45.0425V228.35C44.9091 229.783 44.4591 231.1 43.6925 232.3C42.9258 233.483 41.9175 234.425 40.6675 235.125C39.4175 235.808 38.0258 236.15 36.4925 236.15C34.8758 236.15 33.4008 235.775 32.0675 235.025C30.7341 234.258 29.6758 233.2 28.8925 231.85C28.1258 230.5 27.7425 228.975 27.7425 227.275C27.7425 225.575 28.1258 224.05 28.8925 222.7C29.6758 221.333 30.7341 220.275 32.0675 219.525C33.4008 218.758 34.8758 218.375 36.4925 218.375C38.3425 218.375 39.9758 218.833 41.3925 219.75C42.8258 220.667 43.8675 221.958 44.5175 223.625H41.7925ZM50.3255 224.525C50.7255 223.742 51.2922 223.133 52.0255 222.7C52.7755 222.267 53.6838 222.05 54.7505 222.05V224.4H54.1505C51.6005 224.4 50.3255 225.783 50.3255 228.55V236H48.0505V222.3H50.3255V224.525ZM69.8767 228.625C69.8767 229.058 69.8517 229.517 69.8017 230H58.8517C58.935 231.35 59.3933 232.408 60.2267 233.175C61.0767 233.925 62.1017 234.3 63.3017 234.3C64.285 234.3 65.1017 234.075 65.7517 233.625C66.4183 233.158 66.885 232.542 67.1517 231.775H69.6017C69.235 233.092 68.5017 234.167 67.4017 235C66.3017 235.817 64.935 236.225 63.3017 236.225C62.0017 236.225 60.835 235.933 59.8017 235.35C58.785 234.767 57.985 233.942 57.4017 232.875C56.8183 231.792 56.5267 230.542 56.5267 229.125C56.5267 227.708 56.81 226.467 57.3767 225.4C57.9433 224.333 58.735 223.517 59.7517 222.95C60.785 222.367 61.9683 222.075 63.3017 222.075C64.6017 222.075 65.7517 222.358 66.7517 222.925C67.7517 223.492 68.5183 224.275 69.0517 225.275C69.6017 226.258 69.8767 227.375 69.8767 228.625ZM67.5267 228.15C67.5267 227.283 67.335 226.542 66.9517 225.925C66.5683 225.292 66.0433 224.817 65.3767 224.5C64.7267 224.167 64.0017 224 63.2017 224C62.0517 224 61.0683 224.367 60.2517 225.1C59.4517 225.833 58.9933 226.85 58.8767 228.15H67.5267ZM85.3796 228.625C85.3796 229.058 85.3546 229.517 85.3046 230H74.3546C74.4379 231.35 74.8963 232.408 75.7296 233.175C76.5796 233.925 77.6046 234.3 78.8046 234.3C79.7879 234.3 80.6046 234.075 81.2546 233.625C81.9213 233.158 82.3879 232.542 82.6546 231.775H85.1046C84.7379 233.092 84.0046 234.167 82.9046 235C81.8046 235.817 80.4379 236.225 78.8046 236.225C77.5046 236.225 76.3379 235.933 75.3046 235.35C74.2879 234.767 73.4879 233.942 72.9046 232.875C72.3213 231.792 72.0296 230.542 72.0296 229.125C72.0296 227.708 72.3129 226.467 72.8796 225.4C73.4463 224.333 74.2379 223.517 75.2546 222.95C76.2879 222.367 77.4713 222.075 78.8046 222.075C80.1046 222.075 81.2546 222.358 82.2546 222.925C83.2546 223.492 84.0213 224.275 84.5546 225.275C85.1046 226.258 85.3796 227.375 85.3796 228.625ZM83.0296 228.15C83.0296 227.283 82.8379 226.542 82.4546 225.925C82.0713 225.292 81.5463 224.817 80.8796 224.5C80.2296 224.167 79.5046 224 78.7046 224C77.5546 224 76.5713 224.367 75.7546 225.1C74.9546 225.833 74.4963 226.85 74.3796 228.15H83.0296ZM95.0575 222.05C96.7242 222.05 98.0742 222.558 99.1075 223.575C100.141 224.575 100.658 226.025 100.658 227.925V236H98.4075V228.25C98.4075 226.883 98.0659 225.842 97.3825 225.125C96.6992 224.392 95.7659 224.025 94.5825 224.025C93.3825 224.025 92.4242 224.4 91.7075 225.15C91.0075 225.9 90.6575 226.992 90.6575 228.425V236H88.3825V222.3H90.6575V224.25C91.1075 223.55 91.7159 223.008 92.4825 222.625C93.2659 222.242 94.1242 222.05 95.0575 222.05ZM116.564 236.175C115.414 236.175 114.38 235.975 113.464 235.575C112.564 235.158 111.855 234.592 111.339 233.875C110.822 233.142 110.555 232.3 110.539 231.35H112.964C113.047 232.167 113.38 232.858 113.964 233.425C114.564 233.975 115.43 234.25 116.564 234.25C117.647 234.25 118.497 233.983 119.114 233.45C119.747 232.9 120.064 232.2 120.064 231.35C120.064 230.683 119.88 230.142 119.514 229.725C119.147 229.308 118.689 228.992 118.139 228.775C117.589 228.558 116.847 228.325 115.914 228.075C114.764 227.775 113.839 227.475 113.139 227.175C112.455 226.875 111.864 226.408 111.364 225.775C110.88 225.125 110.639 224.258 110.639 223.175C110.639 222.225 110.88 221.383 111.364 220.65C111.847 219.917 112.522 219.35 113.389 218.95C114.272 218.55 115.28 218.35 116.414 218.35C118.047 218.35 119.38 218.758 120.414 219.575C121.464 220.392 122.055 221.475 122.189 222.825H119.689C119.605 222.158 119.255 221.575 118.639 221.075C118.022 220.558 117.205 220.3 116.189 220.3C115.239 220.3 114.464 220.55 113.864 221.05C113.264 221.533 112.964 222.217 112.964 223.1C112.964 223.733 113.139 224.25 113.489 224.65C113.855 225.05 114.297 225.358 114.814 225.575C115.347 225.775 116.089 226.008 117.039 226.275C118.189 226.592 119.114 226.908 119.814 227.225C120.514 227.525 121.114 228 121.614 228.65C122.114 229.283 122.364 230.15 122.364 231.25C122.364 232.1 122.139 232.9 121.689 233.65C121.239 234.4 120.572 235.008 119.689 235.475C118.805 235.942 117.764 236.175 116.564 236.175ZM127.987 224.825C128.437 224.042 129.103 223.392 129.987 222.875C130.887 222.342 131.928 222.075 133.112 222.075C134.328 222.075 135.428 222.367 136.412 222.95C137.412 223.533 138.195 224.358 138.762 225.425C139.328 226.475 139.612 227.7 139.612 229.1C139.612 230.483 139.328 231.717 138.762 232.8C138.195 233.883 137.412 234.725 136.412 235.325C135.428 235.925 134.328 236.225 133.112 236.225C131.945 236.225 130.912 235.967 130.012 235.45C129.128 234.917 128.453 234.258 127.987 233.475V242.5H125.712V222.3H127.987V224.825ZM137.287 229.1C137.287 228.067 137.078 227.167 136.662 226.4C136.245 225.633 135.678 225.05 134.962 224.65C134.262 224.25 133.487 224.05 132.637 224.05C131.803 224.05 131.028 224.258 130.312 224.675C129.612 225.075 129.045 225.667 128.612 226.45C128.195 227.217 127.987 228.108 127.987 229.125C127.987 230.158 128.195 231.067 128.612 231.85C129.045 232.617 129.612 233.208 130.312 233.625C131.028 234.025 131.803 234.225 132.637 234.225C133.487 234.225 134.262 234.025 134.962 233.625C135.678 233.208 136.245 232.617 136.662 231.85C137.078 231.067 137.287 230.15 137.287 229.1ZM155.106 228.625C155.106 229.058 155.081 229.517 155.031 230H144.081C144.164 231.35 144.623 232.408 145.456 233.175C146.306 233.925 147.331 234.3 148.531 234.3C149.514 234.3 150.331 234.075 150.981 233.625C151.648 233.158 152.114 232.542 152.381 231.775H154.831C154.464 233.092 153.731 234.167 152.631 235C151.531 235.817 150.164 236.225 148.531 236.225C147.231 236.225 146.064 235.933 145.031 235.35C144.014 234.767 143.214 233.942 142.631 232.875C142.048 231.792 141.756 230.542 141.756 229.125C141.756 227.708 142.039 226.467 142.606 225.4C143.173 224.333 143.964 223.517 144.981 222.95C146.014 222.367 147.198 222.075 148.531 222.075C149.831 222.075 150.981 222.358 151.981 222.925C152.981 223.492 153.748 224.275 154.281 225.275C154.831 226.258 155.106 227.375 155.106 228.625ZM152.756 228.15C152.756 227.283 152.564 226.542 152.181 225.925C151.798 225.292 151.273 224.817 150.606 224.5C149.956 224.167 149.231 224 148.431 224C147.281 224 146.298 224.367 145.481 225.1C144.681 225.833 144.223 226.85 144.106 228.15H152.756ZM157.259 229.125C157.259 227.708 157.542 226.475 158.109 225.425C158.676 224.358 159.459 223.533 160.459 222.95C161.476 222.367 162.634 222.075 163.934 222.075C165.617 222.075 167.001 222.483 168.084 223.3C169.184 224.117 169.909 225.25 170.259 226.7H167.809C167.576 225.867 167.117 225.208 166.434 224.725C165.767 224.242 164.934 224 163.934 224C162.634 224 161.584 224.45 160.784 225.35C159.984 226.233 159.584 227.492 159.584 229.125C159.584 230.775 159.984 232.05 160.784 232.95C161.584 233.85 162.634 234.3 163.934 234.3C164.934 234.3 165.767 234.067 166.434 233.6C167.101 233.133 167.559 232.467 167.809 231.6H170.259C169.892 233 169.159 234.125 168.059 234.975C166.959 235.808 165.584 236.225 163.934 236.225C162.634 236.225 161.476 235.933 160.459 235.35C159.459 234.767 158.676 233.942 158.109 232.875C157.542 231.808 157.259 230.558 157.259 229.125ZM176.07 224.175V232.25C176.07 232.917 176.211 233.392 176.495 233.675C176.778 233.942 177.27 234.075 177.97 234.075H179.645V236H177.595C176.328 236 175.378 235.708 174.745 235.125C174.111 234.542 173.795 233.583 173.795 232.25V224.175H172.02V222.3H173.795V218.85H176.07V222.3H179.645V224.175H176.07ZM184.676 224.525C185.076 223.742 185.643 223.133 186.376 222.7C187.126 222.267 188.034 222.05 189.101 222.05V224.4H188.501C185.951 224.4 184.676 225.783 184.676 228.55V236H182.401V222.3H184.676V224.525ZM203.877 222.3V236H201.602V233.975C201.169 234.675 200.561 235.225 199.777 235.625C199.011 236.008 198.161 236.2 197.227 236.2C196.161 236.2 195.202 235.983 194.352 235.55C193.502 235.1 192.827 234.433 192.327 233.55C191.844 232.667 191.602 231.592 191.602 230.325V222.3H193.852V230.025C193.852 231.375 194.194 232.417 194.877 233.15C195.561 233.867 196.494 234.225 197.677 234.225C198.894 234.225 199.852 233.85 200.552 233.1C201.252 232.35 201.602 231.258 201.602 229.825V222.3H203.877ZM224.193 222.05C225.26 222.05 226.21 222.275 227.043 222.725C227.877 223.158 228.535 223.817 229.018 224.7C229.502 225.583 229.743 226.658 229.743 227.925V236H227.493V228.25C227.493 226.883 227.152 225.842 226.468 225.125C225.802 224.392 224.893 224.025 223.743 224.025C222.56 224.025 221.618 224.408 220.918 225.175C220.218 225.925 219.868 227.017 219.868 228.45V236H217.618V228.25C217.618 226.883 217.277 225.842 216.593 225.125C215.927 224.392 215.018 224.025 213.868 224.025C212.685 224.025 211.743 224.408 211.043 225.175C210.343 225.925 209.993 227.017 209.993 228.45V236H207.718V222.3H209.993V224.275C210.443 223.558 211.043 223.008 211.793 222.625C212.56 222.242 213.402 222.05 214.318 222.05C215.468 222.05 216.485 222.308 217.368 222.825C218.252 223.342 218.91 224.1 219.343 225.1C219.727 224.133 220.36 223.383 221.243 222.85C222.127 222.317 223.11 222.05 224.193 222.05ZM242.415 224.825C242.865 224.042 243.532 223.392 244.415 222.875C245.315 222.342 246.357 222.075 247.54 222.075C248.757 222.075 249.857 222.367 250.84 222.95C251.84 223.533 252.624 224.358 253.19 225.425C253.757 226.475 254.04 227.7 254.04 229.1C254.04 230.483 253.757 231.717 253.19 232.8C252.624 233.883 251.84 234.725 250.84 235.325C249.857 235.925 248.757 236.225 247.54 236.225C246.374 236.225 245.34 235.967 244.44 235.45C243.557 234.917 242.882 234.258 242.415 233.475V242.5H240.14V222.3H242.415V224.825ZM251.715 229.1C251.715 228.067 251.507 227.167 251.09 226.4C250.674 225.633 250.107 225.05 249.39 224.65C248.69 224.25 247.915 224.05 247.065 224.05C246.232 224.05 245.457 224.258 244.74 224.675C244.04 225.075 243.474 225.667 243.04 226.45C242.624 227.217 242.415 228.108 242.415 229.125C242.415 230.158 242.624 231.067 243.04 231.85C243.474 232.617 244.04 233.208 244.74 233.625C245.457 234.025 246.232 234.225 247.065 234.225C247.915 234.225 248.69 234.025 249.39 233.625C250.107 233.208 250.674 232.617 251.09 231.85C251.507 231.067 251.715 230.15 251.715 229.1ZM263.01 236.225C261.727 236.225 260.56 235.933 259.51 235.35C258.477 234.767 257.66 233.942 257.06 232.875C256.477 231.792 256.185 230.542 256.185 229.125C256.185 227.725 256.485 226.492 257.085 225.425C257.702 224.342 258.535 223.517 259.585 222.95C260.635 222.367 261.81 222.075 263.11 222.075C264.41 222.075 265.585 222.367 266.635 222.95C267.685 223.517 268.51 224.333 269.11 225.4C269.727 226.467 270.035 227.708 270.035 229.125C270.035 230.542 269.718 231.792 269.085 232.875C268.468 233.942 267.627 234.767 266.56 235.35C265.493 235.933 264.31 236.225 263.01 236.225ZM263.01 234.225C263.827 234.225 264.593 234.033 265.31 233.65C266.027 233.267 266.602 232.692 267.035 231.925C267.485 231.158 267.71 230.225 267.71 229.125C267.71 228.025 267.493 227.092 267.06 226.325C266.627 225.558 266.06 224.992 265.36 224.625C264.66 224.242 263.902 224.05 263.085 224.05C262.252 224.05 261.485 224.242 260.785 224.625C260.102 224.992 259.552 225.558 259.135 226.325C258.718 227.092 258.51 228.025 258.51 229.125C258.51 230.242 258.71 231.183 259.11 231.95C259.527 232.717 260.077 233.292 260.76 233.675C261.443 234.042 262.193 234.225 263.01 234.225ZM291.276 222.3L287.001 236H284.651L281.351 225.125L278.051 236H275.701L271.401 222.3H273.726L276.876 233.8L280.276 222.3H282.601L285.926 233.825L289.026 222.3H291.276ZM292.684 229.1C292.684 227.7 292.967 226.475 293.534 225.425C294.101 224.358 294.876 223.533 295.859 222.95C296.859 222.367 297.976 222.075 299.209 222.075C300.276 222.075 301.267 222.325 302.184 222.825C303.101 223.308 303.801 223.95 304.284 224.75V217.5H306.584V236H304.284V233.425C303.834 234.242 303.167 234.917 302.284 235.45C301.401 235.967 300.367 236.225 299.184 236.225C297.967 236.225 296.859 235.925 295.859 235.325C294.876 234.725 294.101 233.883 293.534 232.8C292.967 231.717 292.684 230.483 292.684 229.1ZM304.284 229.125C304.284 228.092 304.076 227.192 303.659 226.425C303.242 225.658 302.676 225.075 301.959 224.675C301.259 224.258 300.484 224.05 299.634 224.05C298.784 224.05 298.009 224.25 297.309 224.65C296.609 225.05 296.051 225.633 295.634 226.4C295.217 227.167 295.009 228.067 295.009 229.1C295.009 230.15 295.217 231.067 295.634 231.85C296.051 232.617 296.609 233.208 297.309 233.625C298.009 234.025 298.784 234.225 299.634 234.225C300.484 234.225 301.259 234.025 301.959 233.625C302.676 233.208 303.242 232.617 303.659 231.85C304.076 231.067 304.284 230.158 304.284 229.125ZM322.928 228.625C322.928 229.058 322.903 229.517 322.853 230H311.903C311.987 231.35 312.445 232.408 313.278 233.175C314.128 233.925 315.153 234.3 316.353 234.3C317.337 234.3 318.153 234.075 318.803 233.625C319.47 233.158 319.937 232.542 320.203 231.775H322.653C322.287 233.092 321.553 234.167 320.453 235C319.353 235.817 317.987 236.225 316.353 236.225C315.053 236.225 313.887 235.933 312.853 235.35C311.837 234.767 311.037 233.942 310.453 232.875C309.87 231.792 309.578 230.542 309.578 229.125C309.578 227.708 309.862 226.467 310.428 225.4C310.995 224.333 311.787 223.517 312.803 222.95C313.837 222.367 315.02 222.075 316.353 222.075C317.653 222.075 318.803 222.358 319.803 222.925C320.803 223.492 321.57 224.275 322.103 225.275C322.653 226.258 322.928 227.375 322.928 228.625ZM320.578 228.15C320.578 227.283 320.387 226.542 320.003 225.925C319.62 225.292 319.095 224.817 318.428 224.5C317.778 224.167 317.053 224 316.253 224C315.103 224 314.12 224.367 313.303 225.1C312.503 225.833 312.045 226.85 311.928 228.15H320.578ZM328.206 224.525C328.606 223.742 329.173 223.133 329.906 222.7C330.656 222.267 331.565 222.05 332.631 222.05V224.4H332.031C329.481 224.4 328.206 225.783 328.206 228.55V236H325.931V222.3H328.206V224.525ZM57.9215 260.05C58.9882 260.05 59.9382 260.275 60.7715 260.725C61.6048 261.158 62.2632 261.817 62.7465 262.7C63.2298 263.583 63.4715 264.658 63.4715 265.925V274H61.2215V266.25C61.2215 264.883 60.8798 263.842 60.1965 263.125C59.5298 262.392 58.6215 262.025 57.4715 262.025C56.2882 262.025 55.3465 262.408 54.6465 263.175C53.9465 263.925 53.5965 265.017 53.5965 266.45V274H51.3465V266.25C51.3465 264.883 51.0048 263.842 50.3215 263.125C49.6548 262.392 48.7465 262.025 47.5965 262.025C46.4132 262.025 45.4715 262.408 44.7715 263.175C44.0715 263.925 43.7215 265.017 43.7215 266.45V274H41.4465V260.3H43.7215V262.275C44.1715 261.558 44.7715 261.008 45.5215 260.625C46.2882 260.242 47.1298 260.05 48.0465 260.05C49.1965 260.05 50.2132 260.308 51.0965 260.825C51.9798 261.342 52.6382 262.1 53.0715 263.1C53.4548 262.133 54.0882 261.383 54.9715 260.85C55.8548 260.317 56.8382 260.05 57.9215 260.05ZM68.3783 258.075C67.945 258.075 67.5783 257.925 67.2783 257.625C66.9783 257.325 66.8283 256.958 66.8283 256.525C66.8283 256.092 66.9783 255.725 67.2783 255.425C67.5783 255.125 67.945 254.975 68.3783 254.975C68.795 254.975 69.145 255.125 69.4283 255.425C69.7283 255.725 69.8783 256.092 69.8783 256.525C69.8783 256.958 69.7283 257.325 69.4283 257.625C69.145 257.925 68.795 258.075 68.3783 258.075ZM69.4783 260.3V274H67.2033V260.3H69.4783ZM80.5057 274L77.2557 268.9L74.1307 274H71.7557L76.1807 267.2L71.7557 260.3H74.3307L77.5807 265.375L80.6807 260.3H83.0557L78.6557 267.075L83.0807 274H80.5057ZM97.8186 266.625C97.8186 267.058 97.7936 267.517 97.7436 268H86.7936C86.8769 269.35 87.3352 270.408 88.1686 271.175C89.0186 271.925 90.0436 272.3 91.2436 272.3C92.2269 272.3 93.0436 272.075 93.6936 271.625C94.3602 271.158 94.8269 270.542 95.0936 269.775H97.5436C97.1769 271.092 96.4436 272.167 95.3436 273C94.2436 273.817 92.8769 274.225 91.2436 274.225C89.9436 274.225 88.7769 273.933 87.7436 273.35C86.7269 272.767 85.9269 271.942 85.3436 270.875C84.7602 269.792 84.4686 268.542 84.4686 267.125C84.4686 265.708 84.7519 264.467 85.3186 263.4C85.8852 262.333 86.6769 261.517 87.6936 260.95C88.7269 260.367 89.9102 260.075 91.2436 260.075C92.5436 260.075 93.6936 260.358 94.6936 260.925C95.6936 261.492 96.4602 262.275 96.9936 263.275C97.5436 264.258 97.8186 265.375 97.8186 266.625ZM95.4686 266.15C95.4686 265.283 95.2769 264.542 94.8936 263.925C94.5102 263.292 93.9852 262.817 93.3186 262.5C92.6686 262.167 91.9436 262 91.1436 262C89.9936 262 89.0102 262.367 88.1936 263.1C87.3936 263.833 86.9352 264.85 86.8186 266.15H95.4686ZM99.9715 267.1C99.9715 265.7 100.255 264.475 100.821 263.425C101.388 262.358 102.163 261.533 103.146 260.95C104.146 260.367 105.263 260.075 106.496 260.075C107.563 260.075 108.555 260.325 109.471 260.825C110.388 261.308 111.088 261.95 111.571 262.75V255.5H113.871V274H111.571V271.425C111.121 272.242 110.455 272.917 109.571 273.45C108.688 273.967 107.655 274.225 106.471 274.225C105.255 274.225 104.146 273.925 103.146 273.325C102.163 272.725 101.388 271.883 100.821 270.8C100.255 269.717 99.9715 268.483 99.9715 267.1ZM111.571 267.125C111.571 266.092 111.363 265.192 110.946 264.425C110.53 263.658 109.963 263.075 109.246 262.675C108.546 262.258 107.771 262.05 106.921 262.05C106.071 262.05 105.296 262.25 104.596 262.65C103.896 263.05 103.338 263.633 102.921 264.4C102.505 265.167 102.296 266.067 102.296 267.1C102.296 268.15 102.505 269.067 102.921 269.85C103.338 270.617 103.896 271.208 104.596 271.625C105.296 272.025 106.071 272.225 106.921 272.225C107.771 272.225 108.546 272.025 109.246 271.625C109.963 271.208 110.53 270.617 110.946 269.85C111.363 269.067 111.571 268.158 111.571 267.125ZM125.556 258.075C125.123 258.075 124.756 257.925 124.456 257.625C124.156 257.325 124.006 256.958 124.006 256.525C124.006 256.092 124.156 255.725 124.456 255.425C124.756 255.125 125.123 254.975 125.556 254.975C125.973 254.975 126.323 255.125 126.606 255.425C126.906 255.725 127.056 256.092 127.056 256.525C127.056 256.958 126.906 257.325 126.606 257.625C126.323 257.925 125.973 258.075 125.556 258.075ZM126.656 260.3V274H124.381V260.3H126.656ZM137.208 260.05C138.875 260.05 140.225 260.558 141.258 261.575C142.292 262.575 142.808 264.025 142.808 265.925V274H140.558V266.25C140.558 264.883 140.217 263.842 139.533 263.125C138.85 262.392 137.917 262.025 136.733 262.025C135.533 262.025 134.575 262.4 133.858 263.15C133.158 263.9 132.808 264.992 132.808 266.425V274H130.533V260.3H132.808V262.25C133.258 261.55 133.867 261.008 134.633 260.625C135.417 260.242 136.275 260.05 137.208 260.05ZM156.115 264.6C155.181 264.233 154.465 263.7 153.965 263C153.465 262.3 153.215 261.45 153.215 260.45C153.215 259.55 153.44 258.742 153.89 258.025C154.34 257.292 155.006 256.717 155.89 256.3C156.79 255.867 157.873 255.65 159.14 255.65C160.406 255.65 161.481 255.867 162.365 256.3C163.265 256.717 163.94 257.292 164.39 258.025C164.856 258.742 165.09 259.55 165.09 260.45C165.09 261.417 164.831 262.267 164.315 263C163.798 263.717 163.09 264.25 162.19 264.6C163.223 264.917 164.04 265.475 164.64 266.275C165.256 267.058 165.565 268.008 165.565 269.125C165.565 270.208 165.298 271.158 164.765 271.975C164.231 272.775 163.473 273.4 162.49 273.85C161.523 274.283 160.406 274.5 159.14 274.5C157.873 274.5 156.756 274.283 155.79 273.85C154.84 273.4 154.098 272.775 153.565 271.975C153.031 271.158 152.765 270.208 152.765 269.125C152.765 268.008 153.065 267.05 153.665 266.25C154.265 265.45 155.081 264.9 156.115 264.6ZM162.89 260.725C162.89 259.708 162.556 258.925 161.89 258.375C161.223 257.825 160.306 257.55 159.14 257.55C157.99 257.55 157.081 257.825 156.415 258.375C155.748 258.925 155.415 259.717 155.415 260.75C155.415 261.683 155.756 262.433 156.44 263C157.14 263.567 158.04 263.85 159.14 263.85C160.256 263.85 161.156 263.567 161.84 263C162.54 262.417 162.89 261.658 162.89 260.725ZM159.14 265.6C157.906 265.6 156.898 265.892 156.115 266.475C155.331 267.042 154.94 267.9 154.94 269.05C154.94 270.117 155.315 270.975 156.065 271.625C156.831 272.275 157.856 272.6 159.14 272.6C160.423 272.6 161.44 272.275 162.19 271.625C162.94 270.975 163.315 270.117 163.315 269.05C163.315 267.933 162.931 267.083 162.165 266.5C161.398 265.9 160.39 265.6 159.14 265.6ZM178.461 263.875V265.8H168.486V263.875H178.461ZM181.756 258V255.925H186.456V274H184.156V258H181.756ZM190.088 272.175C192.205 270.475 193.863 269.083 195.063 268C196.263 266.9 197.272 265.758 198.088 264.575C198.922 263.375 199.338 262.2 199.338 261.05C199.338 259.967 199.072 259.117 198.538 258.5C198.022 257.867 197.18 257.55 196.013 257.55C194.88 257.55 193.997 257.908 193.363 258.625C192.747 259.325 192.413 260.267 192.363 261.45H190.163C190.23 259.583 190.797 258.142 191.863 257.125C192.93 256.108 194.305 255.6 195.988 255.6C197.705 255.6 199.063 256.075 200.063 257.025C201.08 257.975 201.588 259.283 201.588 260.95C201.588 262.333 201.172 263.683 200.338 265C199.522 266.3 198.588 267.45 197.538 268.45C196.488 269.433 195.147 270.583 193.513 271.9H202.113V273.8H190.088V272.175ZM217.758 274.225C216.475 274.225 215.308 273.933 214.258 273.35C213.225 272.767 212.408 271.942 211.808 270.875C211.225 269.792 210.933 268.542 210.933 267.125C210.933 265.725 211.233 264.492 211.833 263.425C212.45 262.342 213.283 261.517 214.333 260.95C215.383 260.367 216.558 260.075 217.858 260.075C219.158 260.075 220.333 260.367 221.383 260.95C222.433 261.517 223.258 262.333 223.858 263.4C224.475 264.467 224.783 265.708 224.783 267.125C224.783 268.542 224.467 269.792 223.833 270.875C223.217 271.942 222.375 272.767 221.308 273.35C220.242 273.933 219.058 274.225 217.758 274.225ZM217.758 272.225C218.575 272.225 219.342 272.033 220.058 271.65C220.775 271.267 221.35 270.692 221.783 269.925C222.233 269.158 222.458 268.225 222.458 267.125C222.458 266.025 222.242 265.092 221.808 264.325C221.375 263.558 220.808 262.992 220.108 262.625C219.408 262.242 218.65 262.05 217.833 262.05C217 262.05 216.233 262.242 215.533 262.625C214.85 262.992 214.3 263.558 213.883 264.325C213.467 265.092 213.258 266.025 213.258 267.125C213.258 268.242 213.458 269.183 213.858 269.95C214.275 270.717 214.825 271.292 215.508 271.675C216.192 272.042 216.942 272.225 217.758 272.225ZM229.475 272.125H236.2V274H226.875V272.125L233.525 262.15H226.925V260.3H236.15V262.15L229.475 272.125ZM264.067 260.3L259.792 274H257.442L254.142 263.125L250.842 274H248.492L244.192 260.3H246.517L249.667 271.8L253.067 260.3H255.392L258.717 271.825L261.817 260.3H264.067ZM265.474 267.1C265.474 265.7 265.758 264.475 266.324 263.425C266.891 262.358 267.666 261.533 268.649 260.95C269.649 260.367 270.758 260.075 271.974 260.075C273.174 260.075 274.216 260.333 275.099 260.85C275.983 261.367 276.641 262.017 277.074 262.8V260.3H279.374V274H277.074V271.45C276.624 272.25 275.949 272.917 275.049 273.45C274.166 273.967 273.133 274.225 271.949 274.225C270.733 274.225 269.633 273.925 268.649 273.325C267.666 272.725 266.891 271.883 266.324 270.8C265.758 269.717 265.474 268.483 265.474 267.1ZM277.074 267.125C277.074 266.092 276.866 265.192 276.449 264.425C276.033 263.658 275.466 263.075 274.749 262.675C274.049 262.258 273.274 262.05 272.424 262.05C271.574 262.05 270.799 262.25 270.099 262.65C269.399 263.05 268.841 263.633 268.424 264.4C268.008 265.167 267.799 266.067 267.799 267.1C267.799 268.15 268.008 269.067 268.424 269.85C268.841 270.617 269.399 271.208 270.099 271.625C270.799 272.025 271.574 272.225 272.424 272.225C273.274 272.225 274.049 272.025 274.749 271.625C275.466 271.208 276.033 270.617 276.449 269.85C276.866 269.067 277.074 268.158 277.074 267.125ZM285.994 262.175V270.25C285.994 270.917 286.136 271.392 286.419 271.675C286.702 271.942 287.194 272.075 287.894 272.075H289.569V274H287.519C286.252 274 285.302 273.708 284.669 273.125C284.036 272.542 283.719 271.583 283.719 270.25V262.175H281.944V260.3H283.719V256.85H285.994V260.3H289.569V262.175H285.994ZM304.825 266.625C304.825 267.058 304.8 267.517 304.75 268H293.8C293.884 269.35 294.342 270.408 295.175 271.175C296.025 271.925 297.05 272.3 298.25 272.3C299.234 272.3 300.05 272.075 300.7 271.625C301.367 271.158 301.834 270.542 302.1 269.775H304.55C304.184 271.092 303.45 272.167 302.35 273C301.25 273.817 299.884 274.225 298.25 274.225C296.95 274.225 295.784 273.933 294.75 273.35C293.734 272.767 292.934 271.942 292.35 270.875C291.767 269.792 291.475 268.542 291.475 267.125C291.475 265.708 291.759 264.467 292.325 263.4C292.892 262.333 293.684 261.517 294.7 260.95C295.734 260.367 296.917 260.075 298.25 260.075C299.55 260.075 300.7 260.358 301.7 260.925C302.7 261.492 303.467 262.275 304 263.275C304.55 264.258 304.825 265.375 304.825 266.625ZM302.475 266.15C302.475 265.283 302.284 264.542 301.9 263.925C301.517 263.292 300.992 262.817 300.325 262.5C299.675 262.167 298.95 262 298.15 262C297 262 296.017 262.367 295.2 263.1C294.4 263.833 293.942 264.85 293.825 266.15H302.475ZM310.103 262.525C310.503 261.742 311.07 261.133 311.803 260.7C312.553 260.267 313.462 260.05 314.528 260.05V262.4H313.928C311.378 262.4 310.103 263.783 310.103 266.55V274H307.828V260.3H310.103V262.525ZM317.879 274.15C317.446 274.15 317.079 274 316.779 273.7C316.479 273.4 316.329 273.033 316.329 272.6C316.329 272.167 316.479 271.8 316.779 271.5C317.079 271.2 317.446 271.05 317.879 271.05C318.296 271.05 318.646 271.2 318.929 271.5C319.229 271.8 319.379 272.167 319.379 272.6C319.379 273.033 319.229 273.4 318.929 273.7C318.646 274 318.296 274.15 317.879 274.15Z" fill="#2E2E2E"/>
<line x1="16.9414" y1="144" x2="343.059" y2="144" stroke="black" stroke-width="2"/>
<g clip-path="url(#clip0_841_175)">
<path d="M180 0C178.676 0 177.794 0.833333 177.794 2.08333V4.16667C177.794 5.41667 178.676 6.25 180 6.25C181.323 6.25 182.206 5.41667 182.206 4.16667V2.08333C182.206 0.833333 181.323 0 180 0ZM162.792 6.66504C162.241 6.66504 161.691 6.875 161.25 7.29167C160.368 8.125 160.368 9.37581 161.25 10.2091L162.792 11.6659C163.675 12.4992 164.999 12.4992 165.881 11.6659C166.764 10.8325 166.764 9.58171 165.881 8.74837L164.339 7.29167C163.898 6.875 163.344 6.66504 162.792 6.66504ZM197.207 6.66504C196.656 6.66504 196.102 6.875 195.661 7.29167L194.118 8.74837C193.236 9.58171 193.236 10.8325 194.118 11.6659C195.001 12.4992 196.325 12.4992 197.207 11.6659L198.75 10.2091C199.632 9.37581 199.632 8.125 198.75 7.29167C198.309 6.875 197.759 6.66504 197.207 6.66504ZM180 10.4167C175.905 10.4167 171.977 11.9531 169.081 14.688C166.186 17.4229 164.559 21.1323 164.559 25C164.559 28.8677 166.186 32.5771 169.081 35.312C171.977 38.0469 175.905 39.5833 180 39.5833C184.095 39.5833 188.023 38.0469 190.918 35.312C193.814 32.5771 195.441 28.8677 195.441 25C195.441 21.1323 193.814 17.4229 190.918 14.688C188.023 11.9531 184.095 10.4167 180 10.4167ZM155.735 22.9167C154.412 22.9167 153.529 23.75 153.529 25C153.529 26.25 154.412 27.0833 155.735 27.0833H157.941C159.265 27.0833 160.147 26.25 160.147 25C160.147 23.75 159.265 22.9167 157.941 22.9167H155.735ZM202.059 22.9167C200.735 22.9167 199.853 23.75 199.853 25C199.853 26.25 200.735 27.0833 202.059 27.0833H204.265C205.588 27.0833 206.47 26.25 206.47 25C206.47 23.75 205.588 22.9167 204.265 22.9167H202.059ZM164.339 37.7075C163.788 37.7075 163.233 37.9175 162.792 38.3341L161.25 39.7909C160.368 40.6242 160.368 41.875 161.25 42.7083C162.132 43.5417 163.457 43.5417 164.339 42.7083L165.881 41.2516C166.764 40.4183 166.764 39.1675 165.881 38.3341C165.44 37.9175 164.89 37.7075 164.339 37.7075ZM195.661 37.7075C195.109 37.7075 194.56 37.9175 194.118 38.3341C193.236 39.1675 193.236 40.4183 194.118 41.2516L195.661 42.7083C196.543 43.5417 197.868 43.5417 198.75 42.7083C199.632 41.875 199.632 40.6242 198.75 39.7909L197.207 38.3341C196.766 37.9175 196.212 37.7075 195.661 37.7075ZM180 43.75C178.676 43.75 177.794 44.5833 177.794 45.8333V47.9167C177.794 49.1667 178.676 50 180 50C181.323 50 182.206 49.1667 182.206 47.9167V45.8333C182.206 44.5833 181.323 43.75 180 43.75Z" fill="#316B62"/>
</g>
<defs>
<clipPath id="clip0_841_175">
<rect width="52.9412" height="50" fill="white" transform="translate(153.529)"/>
</clipPath>
</defs>
</svg>
