<svg width="360" height="373" viewBox="0 0 360 373" fill="none" xmlns="http://www.w3.org/2000/svg">
<path d="M137.235 101.966V125H132.615V110.018L126.444 125H122.946L116.742 110.018V125H112.122V101.966H117.369L124.695 119.093L132.021 101.966H137.235ZM149.92 125.297C148.16 125.297 146.576 124.912 145.168 124.142C143.76 123.35 142.649 122.239 141.835 120.809C141.043 119.379 140.647 117.729 140.647 115.859C140.647 113.989 141.054 112.339 141.868 110.909C142.704 109.479 143.837 108.379 145.267 107.609C146.697 106.817 148.292 106.421 150.052 106.421C151.812 106.421 153.407 106.817 154.837 107.609C156.267 108.379 157.389 109.479 158.203 110.909C159.039 112.339 159.457 113.989 159.457 115.859C159.457 117.729 159.028 119.379 158.17 120.809C157.334 122.239 156.19 123.35 154.738 124.142C153.308 124.912 151.702 125.297 149.92 125.297ZM149.92 121.271C150.756 121.271 151.537 121.073 152.263 120.677C153.011 120.259 153.605 119.643 154.045 118.829C154.485 118.015 154.705 117.025 154.705 115.859C154.705 114.121 154.243 112.79 153.319 111.866C152.417 110.92 151.306 110.447 149.986 110.447C148.666 110.447 147.555 110.92 146.653 111.866C145.773 112.79 145.333 114.121 145.333 115.859C145.333 117.597 145.762 118.939 146.62 119.885C147.5 120.809 148.6 121.271 149.92 121.271ZM167.466 109.556C168.06 108.588 168.83 107.829 169.776 107.279C170.744 106.729 171.844 106.454 173.076 106.454V111.305H171.855C170.403 111.305 169.303 111.646 168.555 112.328C167.829 113.01 167.466 114.198 167.466 115.892V125H162.846V106.718H167.466V109.556ZM186.319 106.454C188.497 106.454 190.257 107.147 191.599 108.533C192.941 109.897 193.612 111.811 193.612 114.275V125H188.992V114.902C188.992 113.45 188.629 112.339 187.903 111.569C187.177 110.777 186.187 110.381 184.933 110.381C183.657 110.381 182.645 110.777 181.897 111.569C181.171 112.339 180.808 113.45 180.808 114.902V125H176.188V106.718H180.808V108.995C181.424 108.203 182.205 107.587 183.151 107.147C184.119 106.685 185.175 106.454 186.319 106.454ZM200.348 104.54C199.534 104.54 198.852 104.287 198.302 103.781C197.774 103.253 197.51 102.604 197.51 101.834C197.51 101.064 197.774 100.426 198.302 99.92C198.852 99.392 199.534 99.128 200.348 99.128C201.162 99.128 201.833 99.392 202.361 99.92C202.911 100.426 203.186 101.064 203.186 101.834C203.186 102.604 202.911 103.253 202.361 103.781C201.833 104.287 201.162 104.54 200.348 104.54ZM202.625 106.718V125H198.005V106.718H202.625ZM217.321 106.454C219.499 106.454 221.259 107.147 222.601 108.533C223.943 109.897 224.614 111.811 224.614 114.275V125H219.994V114.902C219.994 113.45 219.631 112.339 218.905 111.569C218.179 110.777 217.189 110.381 215.935 110.381C214.659 110.381 213.647 110.777 212.899 111.569C212.173 112.339 211.81 113.45 211.81 114.902V125H207.19V106.718H211.81V108.995C212.426 108.203 213.207 107.587 214.153 107.147C215.121 106.685 216.177 106.454 217.321 106.454ZM236.168 106.421C237.532 106.421 238.731 106.696 239.765 107.246C240.799 107.774 241.613 108.467 242.207 109.325V106.718H246.86V125.132C246.86 126.826 246.519 128.333 245.837 129.653C245.155 130.995 244.132 132.051 242.768 132.821C241.404 133.613 239.754 134.009 237.818 134.009C235.222 134.009 233.088 133.404 231.416 132.194C229.766 130.984 228.831 129.334 228.611 127.244H233.198C233.44 128.08 233.957 128.74 234.749 129.224C235.563 129.73 236.542 129.983 237.686 129.983C239.028 129.983 240.117 129.576 240.953 128.762C241.789 127.97 242.207 126.76 242.207 125.132V122.294C241.613 123.152 240.788 123.867 239.732 124.439C238.698 125.011 237.51 125.297 236.168 125.297C234.628 125.297 233.22 124.901 231.944 124.109C230.668 123.317 229.656 122.206 228.908 120.776C228.182 119.324 227.819 117.663 227.819 115.793C227.819 113.945 228.182 112.306 228.908 110.876C229.656 109.446 230.657 108.346 231.911 107.576C233.187 106.806 234.606 106.421 236.168 106.421ZM242.207 115.859C242.207 114.737 241.987 113.78 241.547 112.988C241.107 112.174 240.513 111.558 239.765 111.14C239.017 110.7 238.214 110.48 237.356 110.48C236.498 110.48 235.706 110.689 234.98 111.107C234.254 111.525 233.66 112.141 233.198 112.955C232.758 113.747 232.538 114.693 232.538 115.793C232.538 116.893 232.758 117.861 233.198 118.697C233.66 119.511 234.254 120.138 234.98 120.578C235.728 121.018 236.52 121.238 237.356 121.238C238.214 121.238 239.017 121.029 239.765 120.611C240.513 120.171 241.107 119.555 241.547 118.763C241.987 117.949 242.207 116.981 242.207 115.859Z" fill="#316B62"/>
<path d="M20.5351 192.7V210H18.2601V197.1L12.5101 210H10.9101L5.13506 197.075V210H2.86006V192.7H5.31006L11.7101 207L18.1101 192.7H20.5351ZM25.5683 194.075C25.1349 194.075 24.7683 193.925 24.4683 193.625C24.1683 193.325 24.0183 192.958 24.0183 192.525C24.0183 192.092 24.1683 191.725 24.4683 191.425C24.7683 191.125 25.1349 190.975 25.5683 190.975C25.9849 190.975 26.3349 191.125 26.6183 191.425C26.9183 191.725 27.0683 192.092 27.0683 192.525C27.0683 192.958 26.9183 193.325 26.6183 193.625C26.3349 193.925 25.9849 194.075 25.5683 194.075ZM26.6683 196.3V210H24.3933V196.3H26.6683ZM37.6956 210L34.4456 204.9L31.3206 210H28.9456L33.3706 203.2L28.9456 196.3H31.5206L34.7706 201.375L37.8706 196.3H40.2456L35.8456 203.075L40.2706 210H37.6956ZM48.5235 208.175C50.6402 206.475 52.2985 205.083 53.4985 204C54.6985 202.9 55.7069 201.758 56.5235 200.575C57.3569 199.375 57.7735 198.2 57.7735 197.05C57.7735 195.967 57.5069 195.117 56.9735 194.5C56.4569 193.867 55.6152 193.55 54.4485 193.55C53.3152 193.55 52.4319 193.908 51.7985 194.625C51.1819 195.325 50.8485 196.267 50.7985 197.45H48.5985C48.6652 195.583 49.2319 194.142 50.2985 193.125C51.3652 192.108 52.7402 191.6 54.4235 191.6C56.1402 191.6 57.4985 192.075 58.4985 193.025C59.5152 193.975 60.0235 195.283 60.0235 196.95C60.0235 198.333 59.6069 199.683 58.7735 201C57.9569 202.3 57.0235 203.45 55.9735 204.45C54.9235 205.433 53.5819 206.583 51.9485 207.9H60.5485V209.8H48.5235V208.175ZM72.9935 198.175V206.25C72.9935 206.917 73.1351 207.392 73.4185 207.675C73.7018 207.942 74.1935 208.075 74.8935 208.075H76.5685V210H74.5185C73.2518 210 72.3018 209.708 71.6685 209.125C71.0351 208.542 70.7185 207.583 70.7185 206.25V198.175H68.9435V196.3H70.7185V192.85H72.9935V196.3H76.5685V198.175H72.9935ZM84.1749 210.225C83.1249 210.225 82.1832 210.05 81.3499 209.7C80.5166 209.333 79.8582 208.833 79.3749 208.2C78.8916 207.55 78.6249 206.808 78.5749 205.975H80.9249C80.9916 206.658 81.3082 207.217 81.8749 207.65C82.4582 208.083 83.2166 208.3 84.1499 208.3C85.0166 208.3 85.6999 208.108 86.1999 207.725C86.6999 207.342 86.9499 206.858 86.9499 206.275C86.9499 205.675 86.6832 205.233 86.1499 204.95C85.6166 204.65 84.7916 204.358 83.6749 204.075C82.6582 203.808 81.8249 203.542 81.1749 203.275C80.5416 202.992 79.9916 202.583 79.5249 202.05C79.0749 201.5 78.8499 200.783 78.8499 199.9C78.8499 199.2 79.0582 198.558 79.4749 197.975C79.8916 197.392 80.4832 196.933 81.2499 196.6C82.0166 196.25 82.8916 196.075 83.8749 196.075C85.3916 196.075 86.6166 196.458 87.5499 197.225C88.4832 197.992 88.9832 199.042 89.0499 200.375H86.7749C86.7249 199.658 86.4332 199.083 85.8999 198.65C85.3832 198.217 84.6832 198 83.7999 198C82.9832 198 82.3332 198.175 81.8499 198.525C81.3666 198.875 81.1249 199.333 81.1249 199.9C81.1249 200.35 81.2666 200.725 81.5499 201.025C81.8499 201.308 82.2166 201.542 82.6499 201.725C83.0999 201.892 83.7166 202.083 84.4999 202.3C85.4832 202.567 86.2832 202.833 86.8999 203.1C87.5166 203.35 88.0416 203.733 88.4749 204.25C88.9249 204.767 89.1582 205.442 89.1749 206.275C89.1749 207.025 88.9666 207.7 88.5499 208.3C88.1332 208.9 87.5416 209.375 86.7749 209.725C86.0249 210.058 85.1582 210.225 84.1749 210.225ZM94.6614 198.825C95.1114 198.042 95.7781 197.392 96.6614 196.875C97.5614 196.342 98.6031 196.075 99.7864 196.075C101.003 196.075 102.103 196.367 103.086 196.95C104.086 197.533 104.87 198.358 105.436 199.425C106.003 200.475 106.286 201.7 106.286 203.1C106.286 204.483 106.003 205.717 105.436 206.8C104.87 207.883 104.086 208.725 103.086 209.325C102.103 209.925 101.003 210.225 99.7864 210.225C98.6198 210.225 97.5864 209.967 96.6864 209.45C95.8031 208.917 95.1281 208.258 94.6614 207.475V216.5H92.3864V196.3H94.6614V198.825ZM103.961 203.1C103.961 202.067 103.753 201.167 103.336 200.4C102.92 199.633 102.353 199.05 101.636 198.65C100.936 198.25 100.161 198.05 99.3114 198.05C98.4781 198.05 97.7031 198.258 96.9864 198.675C96.2864 199.075 95.7198 199.667 95.2864 200.45C94.8698 201.217 94.6614 202.108 94.6614 203.125C94.6614 204.158 94.8698 205.067 95.2864 205.85C95.7198 206.617 96.2864 207.208 96.9864 207.625C97.7031 208.025 98.4781 208.225 99.3114 208.225C100.161 208.225 100.936 208.025 101.636 207.625C102.353 207.208 102.92 206.617 103.336 205.85C103.753 205.067 103.961 204.15 103.961 203.1ZM121.921 210.225C120.638 210.225 119.471 209.933 118.421 209.35C117.388 208.767 116.571 207.942 115.971 206.875C115.388 205.792 115.096 204.542 115.096 203.125C115.096 201.725 115.396 200.492 115.996 199.425C116.613 198.342 117.446 197.517 118.496 196.95C119.546 196.367 120.721 196.075 122.021 196.075C123.321 196.075 124.496 196.367 125.546 196.95C126.596 197.517 127.421 198.333 128.021 199.4C128.638 200.467 128.946 201.708 128.946 203.125C128.946 204.542 128.629 205.792 127.996 206.875C127.379 207.942 126.538 208.767 125.471 209.35C124.404 209.933 123.221 210.225 121.921 210.225ZM121.921 208.225C122.738 208.225 123.504 208.033 124.221 207.65C124.938 207.267 125.513 206.692 125.946 205.925C126.396 205.158 126.621 204.225 126.621 203.125C126.621 202.025 126.404 201.092 125.971 200.325C125.538 199.558 124.971 198.992 124.271 198.625C123.571 198.242 122.813 198.05 121.996 198.05C121.163 198.05 120.396 198.242 119.696 198.625C119.013 198.992 118.463 199.558 118.046 200.325C117.629 201.092 117.421 202.025 117.421 203.125C117.421 204.242 117.621 205.183 118.021 205.95C118.438 206.717 118.988 207.292 119.671 207.675C120.354 208.042 121.104 208.225 121.921 208.225ZM137.512 198.175H134.637V210H132.362V198.175H130.587V196.3H132.362V195.325C132.362 193.792 132.754 192.675 133.537 191.975C134.337 191.258 135.612 190.9 137.362 190.9V192.8C136.362 192.8 135.654 193 135.237 193.4C134.837 193.783 134.637 194.425 134.637 195.325V196.3H137.512V198.175ZM155.555 201.025C156.188 201.125 156.763 201.383 157.28 201.8C157.813 202.217 158.23 202.733 158.53 203.35C158.846 203.967 159.005 204.625 159.005 205.325C159.005 206.208 158.78 207.008 158.33 207.725C157.88 208.425 157.221 208.983 156.355 209.4C155.505 209.8 154.496 210 153.33 210H146.83V192.575H153.08C154.263 192.575 155.271 192.775 156.105 193.175C156.938 193.558 157.563 194.083 157.98 194.75C158.396 195.417 158.605 196.167 158.605 197C158.605 198.033 158.321 198.892 157.755 199.575C157.205 200.242 156.471 200.725 155.555 201.025ZM149.105 200.1H152.93C153.996 200.1 154.821 199.85 155.405 199.35C155.988 198.85 156.28 198.158 156.28 197.275C156.28 196.392 155.988 195.7 155.405 195.2C154.821 194.7 153.98 194.45 152.88 194.45H149.105V200.1ZM153.13 208.125C154.263 208.125 155.146 207.858 155.78 207.325C156.413 206.792 156.73 206.05 156.73 205.1C156.73 204.133 156.396 203.375 155.73 202.825C155.063 202.258 154.171 201.975 153.055 201.975H149.105V208.125H153.13ZM163.337 194.075C162.903 194.075 162.537 193.925 162.237 193.625C161.937 193.325 161.787 192.958 161.787 192.525C161.787 192.092 161.937 191.725 162.237 191.425C162.537 191.125 162.903 190.975 163.337 190.975C163.753 190.975 164.103 191.125 164.387 191.425C164.687 191.725 164.837 192.092 164.837 192.525C164.837 192.958 164.687 193.325 164.387 193.625C164.103 193.925 163.753 194.075 163.337 194.075ZM164.437 196.3V210H162.162V196.3H164.437ZM174.289 210.225C173.006 210.225 171.839 209.933 170.789 209.35C169.756 208.767 168.939 207.942 168.339 206.875C167.756 205.792 167.464 204.542 167.464 203.125C167.464 201.725 167.764 200.492 168.364 199.425C168.981 198.342 169.814 197.517 170.864 196.95C171.914 196.367 173.089 196.075 174.389 196.075C175.689 196.075 176.864 196.367 177.914 196.95C178.964 197.517 179.789 198.333 180.389 199.4C181.006 200.467 181.314 201.708 181.314 203.125C181.314 204.542 180.997 205.792 180.364 206.875C179.747 207.942 178.906 208.767 177.839 209.35C176.772 209.933 175.589 210.225 174.289 210.225ZM174.289 208.225C175.106 208.225 175.872 208.033 176.589 207.65C177.306 207.267 177.881 206.692 178.314 205.925C178.764 205.158 178.989 204.225 178.989 203.125C178.989 202.025 178.772 201.092 178.339 200.325C177.906 199.558 177.339 198.992 176.639 198.625C175.939 198.242 175.181 198.05 174.364 198.05C173.531 198.05 172.764 198.242 172.064 198.625C171.381 198.992 170.831 199.558 170.414 200.325C169.997 201.092 169.789 202.025 169.789 203.125C169.789 204.242 169.989 205.183 170.389 205.95C170.806 206.717 171.356 207.292 172.039 207.675C172.722 208.042 173.472 208.225 174.289 208.225ZM200.82 192.575V194.425H193.245V200.3H199.395V202.15H193.245V210H190.97V192.575H200.82ZM205.843 198.525C206.243 197.742 206.81 197.133 207.543 196.7C208.293 196.267 209.201 196.05 210.268 196.05V198.4H209.668C207.118 198.4 205.843 199.783 205.843 202.55V210H203.568V196.3H205.843V198.525ZM225.044 196.3V210H222.769V207.975C222.336 208.675 221.728 209.225 220.944 209.625C220.178 210.008 219.328 210.2 218.394 210.2C217.328 210.2 216.369 209.983 215.519 209.55C214.669 209.1 213.994 208.433 213.494 207.55C213.011 206.667 212.769 205.592 212.769 204.325V196.3H215.019V204.025C215.019 205.375 215.361 206.417 216.044 207.15C216.728 207.867 217.661 208.225 218.844 208.225C220.061 208.225 221.019 207.85 221.719 207.1C222.419 206.35 222.769 205.258 222.769 203.825V196.3H225.044ZM230.06 194.075C229.627 194.075 229.26 193.925 228.96 193.625C228.66 193.325 228.51 192.958 228.51 192.525C228.51 192.092 228.66 191.725 228.96 191.425C229.26 191.125 229.627 190.975 230.06 190.975C230.477 190.975 230.827 191.125 231.11 191.425C231.41 191.725 231.56 192.092 231.56 192.525C231.56 192.958 231.41 193.325 231.11 193.625C230.827 193.925 230.477 194.075 230.06 194.075ZM231.16 196.3V210H228.885V196.3H231.16ZM237.813 198.175V206.25C237.813 206.917 237.954 207.392 238.238 207.675C238.521 207.942 239.013 208.075 239.713 208.075H241.388V210H239.338C238.071 210 237.121 209.708 236.488 209.125C235.854 208.542 235.538 207.583 235.538 206.25V198.175H233.763V196.3H235.538V192.85H237.813V196.3H241.388V198.175H237.813ZM249.959 203.1C249.959 201.7 250.243 200.475 250.809 199.425C251.376 198.358 252.151 197.533 253.134 196.95C254.134 196.367 255.243 196.075 256.459 196.075C257.659 196.075 258.701 196.333 259.584 196.85C260.468 197.367 261.126 198.017 261.559 198.8V196.3H263.859V210H261.559V207.45C261.109 208.25 260.434 208.917 259.534 209.45C258.651 209.967 257.618 210.225 256.434 210.225C255.218 210.225 254.118 209.925 253.134 209.325C252.151 208.725 251.376 207.883 250.809 206.8C250.243 205.717 249.959 204.483 249.959 203.1ZM261.559 203.125C261.559 202.092 261.351 201.192 260.934 200.425C260.518 199.658 259.951 199.075 259.234 198.675C258.534 198.258 257.759 198.05 256.909 198.05C256.059 198.05 255.284 198.25 254.584 198.65C253.884 199.05 253.326 199.633 252.909 200.4C252.493 201.167 252.284 202.067 252.284 203.1C252.284 204.15 252.493 205.067 252.909 205.85C253.326 206.617 253.884 207.208 254.584 207.625C255.284 208.025 256.059 208.225 256.909 208.225C257.759 208.225 258.534 208.025 259.234 207.625C259.951 207.208 260.518 206.617 260.934 205.85C261.351 205.067 261.559 204.158 261.559 203.125ZM274.379 196.05C276.045 196.05 277.395 196.558 278.429 197.575C279.462 198.575 279.979 200.025 279.979 201.925V210H277.729V202.25C277.729 200.883 277.387 199.842 276.704 199.125C276.02 198.392 275.087 198.025 273.904 198.025C272.704 198.025 271.745 198.4 271.029 199.15C270.329 199.9 269.979 200.992 269.979 202.425V210H267.704V196.3H269.979V198.25C270.429 197.55 271.037 197.008 271.804 196.625C272.587 196.242 273.445 196.05 274.379 196.05ZM282.845 203.1C282.845 201.7 283.128 200.475 283.695 199.425C284.262 198.358 285.037 197.533 286.02 196.95C287.02 196.367 288.137 196.075 289.37 196.075C290.437 196.075 291.428 196.325 292.345 196.825C293.262 197.308 293.962 197.95 294.445 198.75V191.5H296.745V210H294.445V207.425C293.995 208.242 293.328 208.917 292.445 209.45C291.562 209.967 290.528 210.225 289.345 210.225C288.128 210.225 287.02 209.925 286.02 209.325C285.037 208.725 284.262 207.883 283.695 206.8C283.128 205.717 282.845 204.483 282.845 203.1ZM294.445 203.125C294.445 202.092 294.237 201.192 293.82 200.425C293.403 199.658 292.837 199.075 292.12 198.675C291.42 198.258 290.645 198.05 289.795 198.05C288.945 198.05 288.17 198.25 287.47 198.65C286.77 199.05 286.212 199.633 285.795 200.4C285.378 201.167 285.17 202.067 285.17 203.1C285.17 204.15 285.378 205.067 285.795 205.85C286.212 206.617 286.77 207.208 287.47 207.625C288.17 208.025 288.945 208.225 289.795 208.225C290.645 208.225 291.42 208.025 292.12 207.625C292.837 207.208 293.403 206.617 293.82 205.85C294.237 205.067 294.445 204.158 294.445 203.125ZM306.28 194V191.925H310.98V210H308.68V194H306.28ZM324.702 198.175V206.25C324.702 206.917 324.844 207.392 325.127 207.675C325.411 207.942 325.902 208.075 326.602 208.075H328.277V210H326.227C324.961 210 324.011 209.708 323.377 209.125C322.744 208.542 322.427 207.583 322.427 206.25V198.175H320.652V196.3H322.427V192.85H324.702V196.3H328.277V198.175H324.702ZM335.884 210.225C334.834 210.225 333.892 210.05 333.059 209.7C332.226 209.333 331.567 208.833 331.084 208.2C330.601 207.55 330.334 206.808 330.284 205.975H332.634C332.701 206.658 333.017 207.217 333.584 207.65C334.167 208.083 334.926 208.3 335.859 208.3C336.726 208.3 337.409 208.108 337.909 207.725C338.409 207.342 338.659 206.858 338.659 206.275C338.659 205.675 338.392 205.233 337.859 204.95C337.326 204.65 336.501 204.358 335.384 204.075C334.367 203.808 333.534 203.542 332.884 203.275C332.251 202.992 331.701 202.583 331.234 202.05C330.784 201.5 330.559 200.783 330.559 199.9C330.559 199.2 330.767 198.558 331.184 197.975C331.601 197.392 332.192 196.933 332.959 196.6C333.726 196.25 334.601 196.075 335.584 196.075C337.101 196.075 338.326 196.458 339.259 197.225C340.192 197.992 340.692 199.042 340.759 200.375H338.484C338.434 199.658 338.142 199.083 337.609 198.65C337.092 198.217 336.392 198 335.509 198C334.692 198 334.042 198.175 333.559 198.525C333.076 198.875 332.834 199.333 332.834 199.9C332.834 200.35 332.976 200.725 333.259 201.025C333.559 201.308 333.926 201.542 334.359 201.725C334.809 201.892 335.426 202.083 336.209 202.3C337.192 202.567 337.992 202.833 338.609 203.1C339.226 203.35 339.751 203.733 340.184 204.25C340.634 204.767 340.867 205.442 340.884 206.275C340.884 207.025 340.676 207.7 340.259 208.3C339.842 208.9 339.251 209.375 338.484 209.725C337.734 210.058 336.867 210.225 335.884 210.225ZM346.37 198.825C346.82 198.042 347.487 197.392 348.37 196.875C349.27 196.342 350.312 196.075 351.495 196.075C352.712 196.075 353.812 196.367 354.795 196.95C355.795 197.533 356.579 198.358 357.145 199.425C357.712 200.475 357.995 201.7 357.995 203.1C357.995 204.483 357.712 205.717 357.145 206.8C356.579 207.883 355.795 208.725 354.795 209.325C353.812 209.925 352.712 210.225 351.495 210.225C350.329 210.225 349.295 209.967 348.395 209.45C347.512 208.917 346.837 208.258 346.37 207.475V216.5H344.095V196.3H346.37V198.825ZM355.67 203.1C355.67 202.067 355.462 201.167 355.045 200.4C354.629 199.633 354.062 199.05 353.345 198.65C352.645 198.25 351.87 198.05 351.02 198.05C350.187 198.05 349.412 198.258 348.695 198.675C347.995 199.075 347.429 199.667 346.995 200.45C346.579 201.217 346.37 202.108 346.37 203.125C346.37 204.158 346.579 205.067 346.995 205.85C347.429 206.617 347.995 207.208 348.695 207.625C349.412 208.025 350.187 208.225 351.02 208.225C351.87 208.225 352.645 208.025 353.345 207.625C354.062 207.208 354.629 206.617 355.045 205.85C355.462 205.067 355.67 204.15 355.67 203.1ZM13.9742 248.225C12.6909 248.225 11.5242 247.933 10.4742 247.35C9.44089 246.767 8.62422 245.942 8.02422 244.875C7.44089 243.792 7.14922 242.542 7.14922 241.125C7.14922 239.725 7.44922 238.492 8.04922 237.425C8.66589 236.342 9.49922 235.517 10.5492 234.95C11.5992 234.367 12.7742 234.075 14.0742 234.075C15.3742 234.075 16.5492 234.367 17.5992 234.95C18.6492 235.517 19.4742 236.333 20.0742 237.4C20.6909 238.467 20.9992 239.708 20.9992 241.125C20.9992 242.542 20.6826 243.792 20.0492 244.875C19.4326 245.942 18.5909 246.767 17.5242 247.35C16.4576 247.933 15.2742 248.225 13.9742 248.225ZM13.9742 246.225C14.7909 246.225 15.5576 246.033 16.2742 245.65C16.9909 245.267 17.5659 244.692 17.9992 243.925C18.4492 243.158 18.6742 242.225 18.6742 241.125C18.6742 240.025 18.4576 239.092 18.0242 238.325C17.5909 237.558 17.0242 236.992 16.3242 236.625C15.6242 236.242 14.8659 236.05 14.0492 236.05C13.2159 236.05 12.4492 236.242 11.7492 236.625C11.0659 236.992 10.5159 237.558 10.0992 238.325C9.68255 239.092 9.47422 240.025 9.47422 241.125C9.47422 242.242 9.67422 243.183 10.0742 243.95C10.4909 244.717 11.0409 245.292 11.7242 245.675C12.4076 246.042 13.1576 246.225 13.9742 246.225ZM29.5654 236.175H26.6904V248H24.4154V236.175H22.6404V234.3H24.4154V233.325C24.4154 231.792 24.8071 230.675 25.5904 229.975C26.3904 229.258 27.6654 228.9 29.4154 228.9V230.8C28.4154 230.8 27.7071 231 27.2904 231.4C26.8904 231.783 26.6904 232.425 26.6904 233.325V234.3H29.5654V236.175ZM49.183 244.125H41.583L40.183 248H37.783L44.083 230.675H46.708L52.983 248H50.583L49.183 244.125ZM48.533 242.275L45.383 233.475L42.233 242.275H48.533ZM58.0037 229.5V248H55.7287V229.5H58.0037ZM67.8561 248.225C66.5727 248.225 65.4061 247.933 64.3561 247.35C63.3227 246.767 62.5061 245.942 61.9061 244.875C61.3227 243.792 61.0311 242.542 61.0311 241.125C61.0311 239.725 61.3311 238.492 61.9311 237.425C62.5477 236.342 63.3811 235.517 64.4311 234.95C65.4811 234.367 66.6561 234.075 67.9561 234.075C69.2561 234.075 70.4311 234.367 71.4811 234.95C72.5311 235.517 73.3561 236.333 73.9561 237.4C74.5727 238.467 74.8811 239.708 74.8811 241.125C74.8811 242.542 74.5644 243.792 73.9311 244.875C73.3144 245.942 72.4727 246.767 71.4061 247.35C70.3394 247.933 69.1561 248.225 67.8561 248.225ZM67.8561 246.225C68.6727 246.225 69.4394 246.033 70.1561 245.65C70.8727 245.267 71.4477 244.692 71.8811 243.925C72.3311 243.158 72.5561 242.225 72.5561 241.125C72.5561 240.025 72.3394 239.092 71.9061 238.325C71.4727 237.558 70.9061 236.992 70.2061 236.625C69.5061 236.242 68.7477 236.05 67.9311 236.05C67.0977 236.05 66.3311 236.242 65.6311 236.625C64.9477 236.992 64.3977 237.558 63.9811 238.325C63.5644 239.092 63.3561 240.025 63.3561 241.125C63.3561 242.242 63.5561 243.183 63.9561 243.95C64.3727 244.717 64.9227 245.292 65.6061 245.675C66.2894 246.042 67.0394 246.225 67.8561 246.225ZM90.3723 240.625C90.3723 241.058 90.3473 241.517 90.2973 242H79.3473C79.4306 243.35 79.8889 244.408 80.7223 245.175C81.5723 245.925 82.5973 246.3 83.7973 246.3C84.7806 246.3 85.5973 246.075 86.2473 245.625C86.9139 245.158 87.3806 244.542 87.6473 243.775H90.0973C89.7306 245.092 88.9973 246.167 87.8973 247C86.7973 247.817 85.4306 248.225 83.7973 248.225C82.4973 248.225 81.3306 247.933 80.2973 247.35C79.2806 246.767 78.4806 245.942 77.8973 244.875C77.3139 243.792 77.0223 242.542 77.0223 241.125C77.0223 239.708 77.3056 238.467 77.8723 237.4C78.4389 236.333 79.2306 235.517 80.2473 234.95C81.2806 234.367 82.4639 234.075 83.7973 234.075C85.0973 234.075 86.2473 234.358 87.2473 234.925C88.2473 235.492 89.0139 236.275 89.5473 237.275C90.0973 238.258 90.3723 239.375 90.3723 240.625ZM88.0223 240.15C88.0223 239.283 87.8306 238.542 87.4473 237.925C87.0639 237.292 86.5389 236.817 85.8723 236.5C85.2223 236.167 84.4973 236 83.6973 236C82.5473 236 81.5639 236.367 80.7473 237.1C79.9473 237.833 79.4889 238.85 79.3723 240.15H88.0223ZM105.465 230.575C107.365 230.575 109.007 230.933 110.39 231.65C111.79 232.35 112.857 233.358 113.59 234.675C114.34 235.992 114.715 237.542 114.715 239.325C114.715 241.108 114.34 242.658 113.59 243.975C112.857 245.275 111.79 246.275 110.39 246.975C109.007 247.658 107.365 248 105.465 248H100.04V230.575H105.465ZM105.465 246.125C107.715 246.125 109.432 245.533 110.615 244.35C111.799 243.15 112.39 241.475 112.39 239.325C112.39 237.158 111.79 235.467 110.59 234.25C109.407 233.033 107.699 232.425 105.465 232.425H102.315V246.125H105.465ZM118.891 232.075C118.458 232.075 118.091 231.925 117.791 231.625C117.491 231.325 117.341 230.958 117.341 230.525C117.341 230.092 117.491 229.725 117.791 229.425C118.091 229.125 118.458 228.975 118.891 228.975C119.308 228.975 119.658 229.125 119.941 229.425C120.241 229.725 120.391 230.092 120.391 230.525C120.391 230.958 120.241 231.325 119.941 231.625C119.658 231.925 119.308 232.075 118.891 232.075ZM119.991 234.3V248H117.716V234.3H119.991ZM129.518 234.075C130.702 234.075 131.735 234.333 132.618 234.85C133.518 235.367 134.185 236.017 134.618 236.8V234.3H136.918V248.3C136.918 249.55 136.652 250.658 136.118 251.625C135.585 252.608 134.818 253.375 133.818 253.925C132.835 254.475 131.685 254.75 130.368 254.75C128.568 254.75 127.068 254.325 125.868 253.475C124.668 252.625 123.96 251.467 123.743 250H125.993C126.243 250.833 126.76 251.5 127.543 252C128.327 252.517 129.268 252.775 130.368 252.775C131.618 252.775 132.635 252.383 133.418 251.6C134.218 250.817 134.618 249.717 134.618 248.3V245.425C134.168 246.225 133.502 246.892 132.618 247.425C131.735 247.958 130.702 248.225 129.518 248.225C128.302 248.225 127.193 247.925 126.193 247.325C125.21 246.725 124.435 245.883 123.868 244.8C123.302 243.717 123.018 242.483 123.018 241.1C123.018 239.7 123.302 238.475 123.868 237.425C124.435 236.358 125.21 235.533 126.193 234.95C127.193 234.367 128.302 234.075 129.518 234.075ZM134.618 241.125C134.618 240.092 134.41 239.192 133.993 238.425C133.577 237.658 133.01 237.075 132.293 236.675C131.593 236.258 130.818 236.05 129.968 236.05C129.118 236.05 128.343 236.25 127.643 236.65C126.943 237.05 126.385 237.633 125.968 238.4C125.552 239.167 125.343 240.067 125.343 241.1C125.343 242.15 125.552 243.067 125.968 243.85C126.385 244.617 126.943 245.208 127.643 245.625C128.343 246.025 129.118 246.225 129.968 246.225C130.818 246.225 131.593 246.025 132.293 245.625C133.01 245.208 133.577 244.617 133.993 243.85C134.41 243.067 134.618 242.158 134.618 241.125ZM153.263 240.625C153.263 241.058 153.238 241.517 153.188 242H142.238C142.321 243.35 142.78 244.408 143.613 245.175C144.463 245.925 145.488 246.3 146.688 246.3C147.671 246.3 148.488 246.075 149.138 245.625C149.805 245.158 150.271 244.542 150.538 243.775H152.988C152.621 245.092 151.888 246.167 150.788 247C149.688 247.817 148.321 248.225 146.688 248.225C145.388 248.225 144.221 247.933 143.188 247.35C142.171 246.767 141.371 245.942 140.788 244.875C140.205 243.792 139.913 242.542 139.913 241.125C139.913 239.708 140.196 238.467 140.763 237.4C141.33 236.333 142.121 235.517 143.138 234.95C144.171 234.367 145.355 234.075 146.688 234.075C147.988 234.075 149.138 234.358 150.138 234.925C151.138 235.492 151.905 236.275 152.438 237.275C152.988 238.258 153.263 239.375 153.263 240.625ZM150.913 240.15C150.913 239.283 150.721 238.542 150.338 237.925C149.955 237.292 149.43 236.817 148.763 236.5C148.113 236.167 147.388 236 146.588 236C145.438 236 144.455 236.367 143.638 237.1C142.838 237.833 142.38 238.85 142.263 240.15H150.913ZM161.116 248.225C160.066 248.225 159.124 248.05 158.291 247.7C157.457 247.333 156.799 246.833 156.316 246.2C155.832 245.55 155.566 244.808 155.516 243.975H157.866C157.932 244.658 158.249 245.217 158.816 245.65C159.399 246.083 160.157 246.3 161.091 246.3C161.957 246.3 162.641 246.108 163.141 245.725C163.641 245.342 163.891 244.858 163.891 244.275C163.891 243.675 163.624 243.233 163.091 242.95C162.557 242.65 161.732 242.358 160.616 242.075C159.599 241.808 158.766 241.542 158.116 241.275C157.482 240.992 156.932 240.583 156.466 240.05C156.016 239.5 155.791 238.783 155.791 237.9C155.791 237.2 155.999 236.558 156.416 235.975C156.832 235.392 157.424 234.933 158.191 234.6C158.957 234.25 159.832 234.075 160.816 234.075C162.332 234.075 163.557 234.458 164.491 235.225C165.424 235.992 165.924 237.042 165.991 238.375H163.716C163.666 237.658 163.374 237.083 162.841 236.65C162.324 236.217 161.624 236 160.741 236C159.924 236 159.274 236.175 158.791 236.525C158.307 236.875 158.066 237.333 158.066 237.9C158.066 238.35 158.207 238.725 158.491 239.025C158.791 239.308 159.157 239.542 159.591 239.725C160.041 239.892 160.657 240.083 161.441 240.3C162.424 240.567 163.224 240.833 163.841 241.1C164.457 241.35 164.982 241.733 165.416 242.25C165.866 242.767 166.099 243.442 166.116 244.275C166.116 245.025 165.907 245.7 165.491 246.3C165.074 246.9 164.482 247.375 163.716 247.725C162.966 248.058 162.099 248.225 161.116 248.225ZM172.102 236.175V244.25C172.102 244.917 172.244 245.392 172.527 245.675C172.811 245.942 173.302 246.075 174.002 246.075H175.677V248H173.627C172.361 248 171.411 247.708 170.777 247.125C170.144 246.542 169.827 245.583 169.827 244.25V236.175H168.052V234.3H169.827V230.85H172.102V234.3H175.677V236.175H172.102ZM186.274 232.075C185.84 232.075 185.474 231.925 185.174 231.625C184.874 231.325 184.724 230.958 184.724 230.525C184.724 230.092 184.874 229.725 185.174 229.425C185.474 229.125 185.84 228.975 186.274 228.975C186.69 228.975 187.04 229.125 187.324 229.425C187.624 229.725 187.774 230.092 187.774 230.525C187.774 230.958 187.624 231.325 187.324 231.625C187.04 231.925 186.69 232.075 186.274 232.075ZM187.374 234.3V248H185.099V234.3H187.374ZM197.926 234.05C199.593 234.05 200.943 234.558 201.976 235.575C203.01 236.575 203.526 238.025 203.526 239.925V248H201.276V240.25C201.276 238.883 200.935 237.842 200.251 237.125C199.568 236.392 198.635 236.025 197.451 236.025C196.251 236.025 195.293 236.4 194.576 237.15C193.876 237.9 193.526 238.992 193.526 240.425V248H191.251V234.3H193.526V236.25C193.976 235.55 194.585 235.008 195.351 234.625C196.135 234.242 196.993 234.05 197.926 234.05ZM210.017 236.175V244.25C210.017 244.917 210.159 245.392 210.442 245.675C210.726 245.942 211.217 246.075 211.917 246.075H213.592V248H211.542C210.276 248 209.326 247.708 208.692 247.125C208.059 246.542 207.742 245.583 207.742 244.25V236.175H205.967V234.3H207.742V230.85H210.017V234.3H213.592V236.175H210.017ZM222.324 248.225C221.04 248.225 219.874 247.933 218.824 247.35C217.79 246.767 216.974 245.942 216.374 244.875C215.79 243.792 215.499 242.542 215.499 241.125C215.499 239.725 215.799 238.492 216.399 237.425C217.015 236.342 217.849 235.517 218.899 234.95C219.949 234.367 221.124 234.075 222.424 234.075C223.724 234.075 224.899 234.367 225.949 234.95C226.999 235.517 227.824 236.333 228.424 237.4C229.04 238.467 229.349 239.708 229.349 241.125C229.349 242.542 229.032 243.792 228.399 244.875C227.782 245.942 226.94 246.767 225.874 247.35C224.807 247.933 223.624 248.225 222.324 248.225ZM222.324 246.225C223.14 246.225 223.907 246.033 224.624 245.65C225.34 245.267 225.915 244.692 226.349 243.925C226.799 243.158 227.024 242.225 227.024 241.125C227.024 240.025 226.807 239.092 226.374 238.325C225.94 237.558 225.374 236.992 224.674 236.625C223.974 236.242 223.215 236.05 222.399 236.05C221.565 236.05 220.799 236.242 220.099 236.625C219.415 236.992 218.865 237.558 218.449 238.325C218.032 239.092 217.824 240.025 217.824 241.125C217.824 242.242 218.024 243.183 218.424 243.95C218.84 244.717 219.39 245.292 220.074 245.675C220.757 246.042 221.507 246.225 222.324 246.225ZM241.93 238.6C240.997 238.233 240.28 237.7 239.78 237C239.28 236.3 239.03 235.45 239.03 234.45C239.03 233.55 239.255 232.742 239.705 232.025C240.155 231.292 240.822 230.717 241.705 230.3C242.605 229.867 243.688 229.65 244.955 229.65C246.222 229.65 247.297 229.867 248.18 230.3C249.08 230.717 249.755 231.292 250.205 232.025C250.672 232.742 250.905 233.55 250.905 234.45C250.905 235.417 250.647 236.267 250.13 237C249.613 237.717 248.905 238.25 248.005 238.6C249.038 238.917 249.855 239.475 250.455 240.275C251.072 241.058 251.38 242.008 251.38 243.125C251.38 244.208 251.113 245.158 250.58 245.975C250.047 246.775 249.288 247.4 248.305 247.85C247.338 248.283 246.222 248.5 244.955 248.5C243.688 248.5 242.572 248.283 241.605 247.85C240.655 247.4 239.913 246.775 239.38 245.975C238.847 245.158 238.58 244.208 238.58 243.125C238.58 242.008 238.88 241.05 239.48 240.25C240.08 239.45 240.897 238.9 241.93 238.6ZM248.705 234.725C248.705 233.708 248.372 232.925 247.705 232.375C247.038 231.825 246.122 231.55 244.955 231.55C243.805 231.55 242.897 231.825 242.23 232.375C241.563 232.925 241.23 233.717 241.23 234.75C241.23 235.683 241.572 236.433 242.255 237C242.955 237.567 243.855 237.85 244.955 237.85C246.072 237.85 246.972 237.567 247.655 237C248.355 236.417 248.705 235.658 248.705 234.725ZM244.955 239.6C243.722 239.6 242.713 239.892 241.93 240.475C241.147 241.042 240.755 241.9 240.755 243.05C240.755 244.117 241.13 244.975 241.88 245.625C242.647 246.275 243.672 246.6 244.955 246.6C246.238 246.6 247.255 246.275 248.005 245.625C248.755 244.975 249.13 244.117 249.13 243.05C249.13 241.933 248.747 241.083 247.98 240.5C247.213 239.9 246.205 239.6 244.955 239.6ZM264.277 237.875V239.8H254.302V237.875H264.277ZM267.571 232V229.925H272.271V248H269.971V232H267.571ZM275.904 246.175C278.021 244.475 279.679 243.083 280.879 242C282.079 240.9 283.087 239.758 283.904 238.575C284.737 237.375 285.154 236.2 285.154 235.05C285.154 233.967 284.887 233.117 284.354 232.5C283.837 231.867 282.996 231.55 281.829 231.55C280.696 231.55 279.812 231.908 279.179 232.625C278.562 233.325 278.229 234.267 278.179 235.45H275.979C276.046 233.583 276.612 232.142 277.679 231.125C278.746 230.108 280.121 229.6 281.804 229.6C283.521 229.6 284.879 230.075 285.879 231.025C286.896 231.975 287.404 233.283 287.404 234.95C287.404 236.333 286.987 237.683 286.154 239C285.337 240.3 284.404 241.45 283.354 242.45C282.304 243.433 280.962 244.583 279.329 245.9H287.929V247.8H275.904V246.175ZM303.574 248.225C302.29 248.225 301.124 247.933 300.074 247.35C299.04 246.767 298.224 245.942 297.624 244.875C297.04 243.792 296.749 242.542 296.749 241.125C296.749 239.725 297.049 238.492 297.649 237.425C298.265 236.342 299.099 235.517 300.149 234.95C301.199 234.367 302.374 234.075 303.674 234.075C304.974 234.075 306.149 234.367 307.199 234.95C308.249 235.517 309.074 236.333 309.674 237.4C310.29 238.467 310.599 239.708 310.599 241.125C310.599 242.542 310.282 243.792 309.649 244.875C309.032 245.942 308.19 246.767 307.124 247.35C306.057 247.933 304.874 248.225 303.574 248.225ZM303.574 246.225C304.39 246.225 305.157 246.033 305.874 245.65C306.59 245.267 307.165 244.692 307.599 243.925C308.049 243.158 308.274 242.225 308.274 241.125C308.274 240.025 308.057 239.092 307.624 238.325C307.19 237.558 306.624 236.992 305.924 236.625C305.224 236.242 304.465 236.05 303.649 236.05C302.815 236.05 302.049 236.242 301.349 236.625C300.665 236.992 300.115 237.558 299.699 238.325C299.282 239.092 299.074 240.025 299.074 241.125C299.074 242.242 299.274 243.183 299.674 243.95C300.09 244.717 300.64 245.292 301.324 245.675C302.007 246.042 302.757 246.225 303.574 246.225ZM315.29 246.125H322.015V248H312.69V246.125L319.34 236.15H312.74V234.3H321.965V236.15L315.29 246.125ZM337.607 248.225C336.324 248.225 335.157 247.933 334.107 247.35C333.074 246.767 332.257 245.942 331.657 244.875C331.074 243.792 330.782 242.542 330.782 241.125C330.782 239.725 331.082 238.492 331.682 237.425C332.299 236.342 333.132 235.517 334.182 234.95C335.232 234.367 336.407 234.075 337.707 234.075C339.007 234.075 340.182 234.367 341.232 234.95C342.282 235.517 343.107 236.333 343.707 237.4C344.324 238.467 344.632 239.708 344.632 241.125C344.632 242.542 344.315 243.792 343.682 244.875C343.065 245.942 342.224 246.767 341.157 247.35C340.09 247.933 338.907 248.225 337.607 248.225ZM337.607 246.225C338.424 246.225 339.19 246.033 339.907 245.65C340.624 245.267 341.199 244.692 341.632 243.925C342.082 243.158 342.307 242.225 342.307 241.125C342.307 240.025 342.09 239.092 341.657 238.325C341.224 237.558 340.657 236.992 339.957 236.625C339.257 236.242 338.499 236.05 337.682 236.05C336.849 236.05 336.082 236.242 335.382 236.625C334.699 236.992 334.149 237.558 333.732 238.325C333.315 239.092 333.107 240.025 333.107 241.125C333.107 242.242 333.307 243.183 333.707 243.95C334.124 244.717 334.674 245.292 335.357 245.675C336.04 246.042 336.79 246.225 337.607 246.225ZM353.198 236.175H350.323V248H348.048V236.175H346.273V234.3H348.048V233.325C348.048 231.792 348.44 230.675 349.223 229.975C350.023 229.258 351.298 228.9 353.048 228.9V230.8C352.048 230.8 351.34 231 350.923 231.4C350.523 231.783 350.323 232.425 350.323 233.325V234.3H353.198V236.175ZM19.6627 286.225C18.3794 286.225 17.2127 285.933 16.1627 285.35C15.1294 284.767 14.3127 283.942 13.7127 282.875C13.1294 281.792 12.8377 280.542 12.8377 279.125C12.8377 277.725 13.1377 276.492 13.7377 275.425C14.3544 274.342 15.1877 273.517 16.2377 272.95C17.2877 272.367 18.4627 272.075 19.7627 272.075C21.0627 272.075 22.2377 272.367 23.2877 272.95C24.3377 273.517 25.1627 274.333 25.7627 275.4C26.3794 276.467 26.6877 277.708 26.6877 279.125C26.6877 280.542 26.371 281.792 25.7377 282.875C25.121 283.942 24.2794 284.767 23.2127 285.35C22.146 285.933 20.9627 286.225 19.6627 286.225ZM19.6627 284.225C20.4794 284.225 21.246 284.033 21.9627 283.65C22.6794 283.267 23.2544 282.692 23.6877 281.925C24.1377 281.158 24.3627 280.225 24.3627 279.125C24.3627 278.025 24.146 277.092 23.7127 276.325C23.2794 275.558 22.7127 274.992 22.0127 274.625C21.3127 274.242 20.5544 274.05 19.7377 274.05C18.9044 274.05 18.1377 274.242 17.4377 274.625C16.7544 274.992 16.2044 275.558 15.7877 276.325C15.371 277.092 15.1627 278.025 15.1627 279.125C15.1627 280.242 15.3627 281.183 15.7627 281.95C16.1794 282.717 16.7294 283.292 17.4127 283.675C18.096 284.042 18.846 284.225 19.6627 284.225ZM31.9539 274.525C32.3539 273.742 32.9206 273.133 33.6539 272.7C34.4039 272.267 35.3122 272.05 36.3789 272.05V274.4H35.7789C33.2289 274.4 31.9539 275.783 31.9539 278.55V286H29.6789V272.3H31.9539V274.525ZM44.6551 272.075C45.8384 272.075 46.8717 272.333 47.7551 272.85C48.6551 273.367 49.3217 274.017 49.7551 274.8V272.3H52.0551V286.3C52.0551 287.55 51.7884 288.658 51.2551 289.625C50.7217 290.608 49.9551 291.375 48.9551 291.925C47.9717 292.475 46.8217 292.75 45.5051 292.75C43.7051 292.75 42.2051 292.325 41.0051 291.475C39.8051 290.625 39.0967 289.467 38.8801 288H41.1301C41.3801 288.833 41.8967 289.5 42.6801 290C43.4634 290.517 44.4051 290.775 45.5051 290.775C46.7551 290.775 47.7717 290.383 48.5551 289.6C49.3551 288.817 49.7551 287.717 49.7551 286.3V283.425C49.3051 284.225 48.6384 284.892 47.7551 285.425C46.8717 285.958 45.8384 286.225 44.6551 286.225C43.4384 286.225 42.3301 285.925 41.3301 285.325C40.3467 284.725 39.5717 283.883 39.0051 282.8C38.4384 281.717 38.1551 280.483 38.1551 279.1C38.1551 277.7 38.4384 276.475 39.0051 275.425C39.5717 274.358 40.3467 273.533 41.3301 272.95C42.3301 272.367 43.4384 272.075 44.6551 272.075ZM49.7551 279.125C49.7551 278.092 49.5467 277.192 49.1301 276.425C48.7134 275.658 48.1467 275.075 47.4301 274.675C46.7301 274.258 45.9551 274.05 45.1051 274.05C44.2551 274.05 43.4801 274.25 42.7801 274.65C42.0801 275.05 41.5217 275.633 41.1051 276.4C40.6884 277.167 40.4801 278.067 40.4801 279.1C40.4801 280.15 40.6884 281.067 41.1051 281.85C41.5217 282.617 42.0801 283.208 42.7801 283.625C43.4801 284.025 44.2551 284.225 45.1051 284.225C45.9551 284.225 46.7301 284.025 47.4301 283.625C48.1467 283.208 48.7134 282.617 49.1301 281.85C49.5467 281.067 49.7551 280.158 49.7551 279.125ZM55.0496 279.1C55.0496 277.7 55.3329 276.475 55.8996 275.425C56.4663 274.358 57.2413 273.533 58.2246 272.95C59.2246 272.367 60.3329 272.075 61.5496 272.075C62.7496 272.075 63.7913 272.333 64.6746 272.85C65.5579 273.367 66.2163 274.017 66.6496 274.8V272.3H68.9496V286H66.6496V283.45C66.1996 284.25 65.5246 284.917 64.6246 285.45C63.7413 285.967 62.7079 286.225 61.5246 286.225C60.3079 286.225 59.2079 285.925 58.2246 285.325C57.2413 284.725 56.4663 283.883 55.8996 282.8C55.3329 281.717 55.0496 280.483 55.0496 279.1ZM66.6496 279.125C66.6496 278.092 66.4413 277.192 66.0246 276.425C65.6079 275.658 65.0413 275.075 64.3246 274.675C63.6246 274.258 62.8496 274.05 61.9996 274.05C61.1496 274.05 60.3746 274.25 59.6746 274.65C58.9746 275.05 58.4163 275.633 57.9996 276.4C57.5829 277.167 57.3746 278.067 57.3746 279.1C57.3746 280.15 57.5829 281.067 57.9996 281.85C58.4163 282.617 58.9746 283.208 59.6746 283.625C60.3746 284.025 61.1496 284.225 61.9996 284.225C62.8496 284.225 63.6246 284.025 64.3246 283.625C65.0413 283.208 65.6079 282.617 66.0246 281.85C66.4413 281.067 66.6496 280.158 66.6496 279.125ZM79.4691 272.05C81.1358 272.05 82.4858 272.558 83.5191 273.575C84.5525 274.575 85.0691 276.025 85.0691 277.925V286H82.8191V278.25C82.8191 276.883 82.4775 275.842 81.7941 275.125C81.1108 274.392 80.1775 274.025 78.9941 274.025C77.7941 274.025 76.8358 274.4 76.1191 275.15C75.4191 275.9 75.0691 276.992 75.0691 278.425V286H72.7941V272.3H75.0691V274.25C75.5191 273.55 76.1275 273.008 76.8941 272.625C77.6775 272.242 78.5358 272.05 79.4691 272.05ZM89.9604 270.075C89.527 270.075 89.1604 269.925 88.8604 269.625C88.5604 269.325 88.4104 268.958 88.4104 268.525C88.4104 268.092 88.5604 267.725 88.8604 267.425C89.1604 267.125 89.527 266.975 89.9604 266.975C90.377 266.975 90.727 267.125 91.0104 267.425C91.3104 267.725 91.4604 268.092 91.4604 268.525C91.4604 268.958 91.3104 269.325 91.0104 269.625C90.727 269.925 90.377 270.075 89.9604 270.075ZM91.0604 272.3V286H88.7854V272.3H91.0604ZM94.0877 279.125C94.0877 277.708 94.371 276.475 94.9377 275.425C95.5044 274.358 96.2877 273.533 97.2877 272.95C98.3044 272.367 99.4627 272.075 100.763 272.075C102.446 272.075 103.829 272.483 104.913 273.3C106.013 274.117 106.738 275.25 107.088 276.7H104.638C104.404 275.867 103.946 275.208 103.263 274.725C102.596 274.242 101.763 274 100.763 274C99.4627 274 98.4127 274.45 97.6127 275.35C96.8127 276.233 96.4127 277.492 96.4127 279.125C96.4127 280.775 96.8127 282.05 97.6127 282.95C98.4127 283.85 99.4627 284.3 100.763 284.3C101.763 284.3 102.596 284.067 103.263 283.6C103.929 283.133 104.388 282.467 104.638 281.6H107.088C106.721 283 105.988 284.125 104.888 284.975C103.788 285.808 102.413 286.225 100.763 286.225C99.4627 286.225 98.3044 285.933 97.2877 285.35C96.2877 284.767 95.5044 283.942 94.9377 282.875C94.371 281.808 94.0877 280.558 94.0877 279.125ZM118.013 270.075C117.58 270.075 117.213 269.925 116.913 269.625C116.63 269.325 116.488 268.958 116.488 268.525C116.488 268.092 116.63 267.725 116.913 267.425C117.213 267.125 117.58 266.975 118.013 266.975C118.447 266.975 118.805 267.125 119.088 267.425C119.388 267.725 119.538 268.092 119.538 268.525C119.538 268.958 119.388 269.325 119.088 269.625C118.805 269.925 118.447 270.075 118.013 270.075ZM119.138 288.975C119.138 290.192 118.83 291.083 118.213 291.65C117.597 292.217 116.697 292.5 115.513 292.5H114.188V290.575H115.138C115.772 290.575 116.213 290.45 116.463 290.2C116.73 289.95 116.863 289.525 116.863 288.925V272.3H119.138V288.975ZM135.139 272.3V286H132.864V283.975C132.431 284.675 131.823 285.225 131.039 285.625C130.273 286.008 129.423 286.2 128.489 286.2C127.423 286.2 126.464 285.983 125.614 285.55C124.764 285.1 124.089 284.433 123.589 283.55C123.106 282.667 122.864 281.592 122.864 280.325V272.3H125.114V280.025C125.114 281.375 125.456 282.417 126.139 283.15C126.823 283.867 127.756 284.225 128.939 284.225C130.156 284.225 131.114 283.85 131.814 283.1C132.514 282.35 132.864 281.258 132.864 279.825V272.3H135.139ZM140.156 270.075C139.722 270.075 139.356 269.925 139.056 269.625C138.756 269.325 138.606 268.958 138.606 268.525C138.606 268.092 138.756 267.725 139.056 267.425C139.356 267.125 139.722 266.975 140.156 266.975C140.572 266.975 140.922 267.125 141.206 267.425C141.506 267.725 141.656 268.092 141.656 268.525C141.656 268.958 141.506 269.325 141.206 269.625C140.922 269.925 140.572 270.075 140.156 270.075ZM141.256 272.3V286H138.981V272.3H141.256ZM144.283 279.125C144.283 277.708 144.566 276.475 145.133 275.425C145.7 274.358 146.483 273.533 147.483 272.95C148.5 272.367 149.658 272.075 150.958 272.075C152.641 272.075 154.025 272.483 155.108 273.3C156.208 274.117 156.933 275.25 157.283 276.7H154.833C154.6 275.867 154.141 275.208 153.458 274.725C152.791 274.242 151.958 274 150.958 274C149.658 274 148.608 274.45 147.808 275.35C147.008 276.233 146.608 277.492 146.608 279.125C146.608 280.775 147.008 282.05 147.808 282.95C148.608 283.85 149.658 284.3 150.958 284.3C151.958 284.3 152.791 284.067 153.458 283.6C154.125 283.133 154.583 282.467 154.833 281.6H157.283C156.916 283 156.183 284.125 155.083 284.975C153.983 285.808 152.608 286.225 150.958 286.225C149.658 286.225 148.5 285.933 147.483 285.35C146.483 284.767 145.7 283.942 145.133 282.875C144.566 281.808 144.283 280.558 144.283 279.125ZM172.819 278.625C172.819 279.058 172.794 279.517 172.744 280H161.794C161.877 281.35 162.335 282.408 163.169 283.175C164.019 283.925 165.044 284.3 166.244 284.3C167.227 284.3 168.044 284.075 168.694 283.625C169.36 283.158 169.827 282.542 170.094 281.775H172.544C172.177 283.092 171.444 284.167 170.344 285C169.244 285.817 167.877 286.225 166.244 286.225C164.944 286.225 163.777 285.933 162.744 285.35C161.727 284.767 160.927 283.942 160.344 282.875C159.76 281.792 159.469 280.542 159.469 279.125C159.469 277.708 159.752 276.467 160.319 275.4C160.885 274.333 161.677 273.517 162.694 272.95C163.727 272.367 164.91 272.075 166.244 272.075C167.544 272.075 168.694 272.358 169.694 272.925C170.694 273.492 171.46 274.275 171.994 275.275C172.544 276.258 172.819 277.375 172.819 278.625ZM170.469 278.15C170.469 277.283 170.277 276.542 169.894 275.925C169.51 275.292 168.985 274.817 168.319 274.5C167.669 274.167 166.944 274 166.144 274C164.994 274 164.01 274.367 163.194 275.1C162.394 275.833 161.935 276.85 161.819 278.15H170.469ZM188.462 286.225C187.178 286.225 186.012 285.933 184.962 285.35C183.928 284.767 183.112 283.942 182.512 282.875C181.928 281.792 181.637 280.542 181.637 279.125C181.637 277.725 181.937 276.492 182.537 275.425C183.153 274.342 183.987 273.517 185.037 272.95C186.087 272.367 187.262 272.075 188.562 272.075C189.862 272.075 191.037 272.367 192.087 272.95C193.137 273.517 193.962 274.333 194.562 275.4C195.178 276.467 195.487 277.708 195.487 279.125C195.487 280.542 195.17 281.792 194.537 282.875C193.92 283.942 193.078 284.767 192.012 285.35C190.945 285.933 189.762 286.225 188.462 286.225ZM188.462 284.225C189.278 284.225 190.045 284.033 190.762 283.65C191.478 283.267 192.053 282.692 192.487 281.925C192.937 281.158 193.162 280.225 193.162 279.125C193.162 278.025 192.945 277.092 192.512 276.325C192.078 275.558 191.512 274.992 190.812 274.625C190.112 274.242 189.353 274.05 188.537 274.05C187.703 274.05 186.937 274.242 186.237 274.625C185.553 274.992 185.003 275.558 184.587 276.325C184.17 277.092 183.962 278.025 183.962 279.125C183.962 280.242 184.162 281.183 184.562 281.95C184.978 282.717 185.528 283.292 186.212 283.675C186.895 284.042 187.645 284.225 188.462 284.225ZM200.753 274.525C201.153 273.742 201.719 273.133 202.453 272.7C203.203 272.267 204.111 272.05 205.178 272.05V274.4H204.578C202.028 274.4 200.753 275.783 200.753 278.55V286H198.478V272.3H200.753V274.525ZM232.719 272.3L228.444 286H226.094L222.794 275.125L219.494 286H217.144L212.844 272.3H215.169L218.319 283.8L221.719 272.3H224.044L227.369 283.825L230.469 272.3H232.719ZM234.127 279.1C234.127 277.7 234.41 276.475 234.977 275.425C235.543 274.358 236.318 273.533 237.302 272.95C238.302 272.367 239.41 272.075 240.627 272.075C241.827 272.075 242.868 272.333 243.752 272.85C244.635 273.367 245.293 274.017 245.727 274.8V272.3H248.027V286H245.727V283.45C245.277 284.25 244.602 284.917 243.702 285.45C242.818 285.967 241.785 286.225 240.602 286.225C239.385 286.225 238.285 285.925 237.302 285.325C236.318 284.725 235.543 283.883 234.977 282.8C234.41 281.717 234.127 280.483 234.127 279.1ZM245.727 279.125C245.727 278.092 245.518 277.192 245.102 276.425C244.685 275.658 244.118 275.075 243.402 274.675C242.702 274.258 241.927 274.05 241.077 274.05C240.227 274.05 239.452 274.25 238.752 274.65C238.052 275.05 237.493 275.633 237.077 276.4C236.66 277.167 236.452 278.067 236.452 279.1C236.452 280.15 236.66 281.067 237.077 281.85C237.493 282.617 238.052 283.208 238.752 283.625C239.452 284.025 240.227 284.225 241.077 284.225C241.927 284.225 242.702 284.025 243.402 283.625C244.118 283.208 244.685 282.617 245.102 281.85C245.518 281.067 245.727 280.158 245.727 279.125ZM254.646 274.175V282.25C254.646 282.917 254.788 283.392 255.071 283.675C255.355 283.942 255.846 284.075 256.546 284.075H258.221V286H256.171C254.905 286 253.955 285.708 253.321 285.125C252.688 284.542 252.371 283.583 252.371 282.25V274.175H250.596V272.3H252.371V268.85H254.646V272.3H258.221V274.175H254.646ZM273.478 278.625C273.478 279.058 273.453 279.517 273.403 280H262.453C262.536 281.35 262.994 282.408 263.828 283.175C264.678 283.925 265.703 284.3 266.903 284.3C267.886 284.3 268.703 284.075 269.353 283.625C270.019 283.158 270.486 282.542 270.753 281.775H273.203C272.836 283.092 272.103 284.167 271.003 285C269.903 285.817 268.536 286.225 266.903 286.225C265.603 286.225 264.436 285.933 263.403 285.35C262.386 284.767 261.586 283.942 261.003 282.875C260.419 281.792 260.128 280.542 260.128 279.125C260.128 277.708 260.411 276.467 260.978 275.4C261.544 274.333 262.336 273.517 263.353 272.95C264.386 272.367 265.569 272.075 266.903 272.075C268.203 272.075 269.353 272.358 270.353 272.925C271.353 273.492 272.119 274.275 272.653 275.275C273.203 276.258 273.478 277.375 273.478 278.625ZM271.128 278.15C271.128 277.283 270.936 276.542 270.553 275.925C270.169 275.292 269.644 274.817 268.978 274.5C268.328 274.167 267.603 274 266.803 274C265.653 274 264.669 274.367 263.853 275.1C263.053 275.833 262.594 276.85 262.478 278.15H271.128ZM278.756 274.525C279.156 273.742 279.722 273.133 280.456 272.7C281.206 272.267 282.114 272.05 283.181 272.05V274.4H282.581C280.031 274.4 278.756 275.783 278.756 278.55V286H276.481V272.3H278.756V274.525ZM294.747 274.825C295.197 274.042 295.864 273.392 296.747 272.875C297.647 272.342 298.689 272.075 299.872 272.075C301.089 272.075 302.189 272.367 303.172 272.95C304.172 273.533 304.955 274.358 305.522 275.425C306.089 276.475 306.372 277.7 306.372 279.1C306.372 280.483 306.089 281.717 305.522 282.8C304.955 283.883 304.172 284.725 303.172 285.325C302.189 285.925 301.089 286.225 299.872 286.225C298.705 286.225 297.672 285.967 296.772 285.45C295.889 284.917 295.214 284.258 294.747 283.475V292.5H292.472V272.3H294.747V274.825ZM304.047 279.1C304.047 278.067 303.839 277.167 303.422 276.4C303.005 275.633 302.439 275.05 301.722 274.65C301.022 274.25 300.247 274.05 299.397 274.05C298.564 274.05 297.789 274.258 297.072 274.675C296.372 275.075 295.805 275.667 295.372 276.45C294.955 277.217 294.747 278.108 294.747 279.125C294.747 280.158 294.955 281.067 295.372 281.85C295.805 282.617 296.372 283.208 297.072 283.625C297.789 284.025 298.564 284.225 299.397 284.225C300.247 284.225 301.022 284.025 301.722 283.625C302.439 283.208 303.005 282.617 303.422 281.85C303.839 281.067 304.047 280.15 304.047 279.1ZM311.641 274.525C312.041 273.742 312.608 273.133 313.341 272.7C314.091 272.267 315 272.05 316.066 272.05V274.4H315.466C312.916 274.4 311.641 275.783 311.641 278.55V286H309.366V272.3H311.641V274.525ZM319.868 270.075C319.434 270.075 319.068 269.925 318.768 269.625C318.468 269.325 318.318 268.958 318.318 268.525C318.318 268.092 318.468 267.725 318.768 267.425C319.068 267.125 319.434 266.975 319.868 266.975C320.284 266.975 320.634 267.125 320.918 267.425C321.218 267.725 321.368 268.092 321.368 268.525C321.368 268.958 321.218 269.325 320.918 269.625C320.634 269.925 320.284 270.075 319.868 270.075ZM320.968 272.3V286H318.693V272.3H320.968ZM330.82 286.225C329.537 286.225 328.37 285.933 327.32 285.35C326.287 284.767 325.47 283.942 324.87 282.875C324.287 281.792 323.995 280.542 323.995 279.125C323.995 277.725 324.295 276.492 324.895 275.425C325.512 274.342 326.345 273.517 327.395 272.95C328.445 272.367 329.62 272.075 330.92 272.075C332.22 272.075 333.395 272.367 334.445 272.95C335.495 273.517 336.32 274.333 336.92 275.4C337.537 276.467 337.845 277.708 337.845 279.125C337.845 280.542 337.528 281.792 336.895 282.875C336.278 283.942 335.437 284.767 334.37 285.35C333.303 285.933 332.12 286.225 330.82 286.225ZM330.82 284.225C331.637 284.225 332.403 284.033 333.12 283.65C333.837 283.267 334.412 282.692 334.845 281.925C335.295 281.158 335.52 280.225 335.52 279.125C335.52 278.025 335.303 277.092 334.87 276.325C334.437 275.558 333.87 274.992 333.17 274.625C332.47 274.242 331.712 274.05 330.895 274.05C330.062 274.05 329.295 274.242 328.595 274.625C327.912 274.992 327.362 275.558 326.945 276.325C326.528 277.092 326.32 278.025 326.32 279.125C326.32 280.242 326.52 281.183 326.92 281.95C327.337 282.717 327.887 283.292 328.57 283.675C329.253 284.042 330.003 284.225 330.82 284.225ZM343.111 274.525C343.511 273.742 344.078 273.133 344.811 272.7C345.561 272.267 346.469 272.05 347.536 272.05V274.4H346.936C344.386 274.4 343.111 275.783 343.111 278.55V286H340.836V272.3H343.111V274.525ZM36.9827 312.175V320.25C36.9827 320.917 37.1244 321.392 37.4077 321.675C37.691 321.942 38.1827 322.075 38.8827 322.075H40.5577V324H38.5077C37.241 324 36.291 323.708 35.6577 323.125C35.0244 322.542 34.7077 321.583 34.7077 320.25V312.175H32.9327V310.3H34.7077V306.85H36.9827V310.3H40.5577V312.175H36.9827ZM49.2892 324.225C48.0058 324.225 46.8392 323.933 45.7892 323.35C44.7558 322.767 43.9392 321.942 43.3392 320.875C42.7558 319.792 42.4642 318.542 42.4642 317.125C42.4642 315.725 42.7642 314.492 43.3642 313.425C43.9808 312.342 44.8142 311.517 45.8642 310.95C46.9142 310.367 48.0892 310.075 49.3892 310.075C50.6892 310.075 51.8642 310.367 52.9142 310.95C53.9642 311.517 54.7892 312.333 55.3892 313.4C56.0058 314.467 56.3142 315.708 56.3142 317.125C56.3142 318.542 55.9975 319.792 55.3642 320.875C54.7475 321.942 53.9058 322.767 52.8392 323.35C51.7725 323.933 50.5892 324.225 49.2892 324.225ZM49.2892 322.225C50.1058 322.225 50.8725 322.033 51.5892 321.65C52.3058 321.267 52.8808 320.692 53.3142 319.925C53.7642 319.158 53.9892 318.225 53.9892 317.125C53.9892 316.025 53.7725 315.092 53.3392 314.325C52.9058 313.558 52.3392 312.992 51.6392 312.625C50.9392 312.242 50.1808 312.05 49.3642 312.05C48.5308 312.05 47.7642 312.242 47.0642 312.625C46.3808 312.992 45.8308 313.558 45.4142 314.325C44.9975 315.092 44.7892 316.025 44.7892 317.125C44.7892 318.242 44.9892 319.183 45.3892 319.95C45.8058 320.717 46.3558 321.292 47.0392 321.675C47.7225 322.042 48.4725 322.225 49.2892 322.225ZM65.1204 317.125C65.1204 315.708 65.4037 314.475 65.9704 313.425C66.5371 312.358 67.3204 311.533 68.3204 310.95C69.3371 310.367 70.4954 310.075 71.7954 310.075C73.4787 310.075 74.8621 310.483 75.9454 311.3C77.0454 312.117 77.7704 313.25 78.1204 314.7H75.6704C75.4371 313.867 74.9787 313.208 74.2954 312.725C73.6287 312.242 72.7954 312 71.7954 312C70.4954 312 69.4454 312.45 68.6454 313.35C67.8454 314.233 67.4454 315.492 67.4454 317.125C67.4454 318.775 67.8454 320.05 68.6454 320.95C69.4454 321.85 70.4954 322.3 71.7954 322.3C72.7954 322.3 73.6287 322.067 74.2954 321.6C74.9621 321.133 75.4204 320.467 75.6704 319.6H78.1204C77.7537 321 77.0204 322.125 75.9204 322.975C74.8204 323.808 73.4454 324.225 71.7954 324.225C70.4954 324.225 69.3371 323.933 68.3204 323.35C67.3204 322.767 66.5371 321.942 65.9704 320.875C65.4037 319.808 65.1204 318.558 65.1204 317.125ZM87.131 324.225C85.8476 324.225 84.681 323.933 83.631 323.35C82.5976 322.767 81.781 321.942 81.181 320.875C80.5976 319.792 80.306 318.542 80.306 317.125C80.306 315.725 80.606 314.492 81.206 313.425C81.8226 312.342 82.656 311.517 83.706 310.95C84.756 310.367 85.931 310.075 87.231 310.075C88.531 310.075 89.706 310.367 90.756 310.95C91.806 311.517 92.631 312.333 93.231 313.4C93.8476 314.467 94.156 315.708 94.156 317.125C94.156 318.542 93.8393 319.792 93.206 320.875C92.5893 321.942 91.7476 322.767 90.681 323.35C89.6143 323.933 88.431 324.225 87.131 324.225ZM87.131 322.225C87.9476 322.225 88.7143 322.033 89.431 321.65C90.1476 321.267 90.7226 320.692 91.156 319.925C91.606 319.158 91.831 318.225 91.831 317.125C91.831 316.025 91.6143 315.092 91.181 314.325C90.7476 313.558 90.181 312.992 89.481 312.625C88.781 312.242 88.0226 312.05 87.206 312.05C86.3726 312.05 85.606 312.242 84.906 312.625C84.2226 312.992 83.6726 313.558 83.256 314.325C82.8393 315.092 82.631 316.025 82.631 317.125C82.631 318.242 82.831 319.183 83.231 319.95C83.6476 320.717 84.1976 321.292 84.881 321.675C85.5643 322.042 86.3143 322.225 87.131 322.225ZM103.822 310.05C105.489 310.05 106.839 310.558 107.872 311.575C108.906 312.575 109.422 314.025 109.422 315.925V324H107.172V316.25C107.172 314.883 106.831 313.842 106.147 313.125C105.464 312.392 104.531 312.025 103.347 312.025C102.147 312.025 101.189 312.4 100.472 313.15C99.7722 313.9 99.4222 314.992 99.4222 316.425V324H97.1472V310.3H99.4222V312.25C99.8722 311.55 100.481 311.008 101.247 310.625C102.031 310.242 102.889 310.05 103.822 310.05ZM117.988 324.225C116.938 324.225 115.997 324.05 115.163 323.7C114.33 323.333 113.672 322.833 113.188 322.2C112.705 321.55 112.438 320.808 112.388 319.975H114.738C114.805 320.658 115.122 321.217 115.688 321.65C116.272 322.083 117.03 322.3 117.963 322.3C118.83 322.3 119.513 322.108 120.013 321.725C120.513 321.342 120.763 320.858 120.763 320.275C120.763 319.675 120.497 319.233 119.963 318.95C119.43 318.65 118.605 318.358 117.488 318.075C116.472 317.808 115.638 317.542 114.988 317.275C114.355 316.992 113.805 316.583 113.338 316.05C112.888 315.5 112.663 314.783 112.663 313.9C112.663 313.2 112.872 312.558 113.288 311.975C113.705 311.392 114.297 310.933 115.063 310.6C115.83 310.25 116.705 310.075 117.688 310.075C119.205 310.075 120.43 310.458 121.363 311.225C122.297 311.992 122.797 313.042 122.863 314.375H120.588C120.538 313.658 120.247 313.083 119.713 312.65C119.197 312.217 118.497 312 117.613 312C116.797 312 116.147 312.175 115.663 312.525C115.18 312.875 114.938 313.333 114.938 313.9C114.938 314.35 115.08 314.725 115.363 315.025C115.663 315.308 116.03 315.542 116.463 315.725C116.913 315.892 117.53 316.083 118.313 316.3C119.297 316.567 120.097 316.833 120.713 317.1C121.33 317.35 121.855 317.733 122.288 318.25C122.738 318.767 122.972 319.442 122.988 320.275C122.988 321.025 122.78 321.7 122.363 322.3C121.947 322.9 121.355 323.375 120.588 323.725C119.838 324.058 118.972 324.225 117.988 324.225ZM138.35 310.3V324H136.075V321.975C135.642 322.675 135.033 323.225 134.25 323.625C133.483 324.008 132.633 324.2 131.7 324.2C130.633 324.2 129.675 323.983 128.825 323.55C127.975 323.1 127.3 322.433 126.8 321.55C126.317 320.667 126.075 319.592 126.075 318.325V310.3H128.325V318.025C128.325 319.375 128.667 320.417 129.35 321.15C130.033 321.867 130.967 322.225 132.15 322.225C133.367 322.225 134.325 321.85 135.025 321.1C135.725 320.35 136.075 319.258 136.075 317.825V310.3H138.35ZM158.666 310.05C159.733 310.05 160.683 310.275 161.516 310.725C162.349 311.158 163.008 311.817 163.491 312.7C163.974 313.583 164.216 314.658 164.216 315.925V324H161.966V316.25C161.966 314.883 161.624 313.842 160.941 313.125C160.274 312.392 159.366 312.025 158.216 312.025C157.033 312.025 156.091 312.408 155.391 313.175C154.691 313.925 154.341 315.017 154.341 316.45V324H152.091V316.25C152.091 314.883 151.749 313.842 151.066 313.125C150.399 312.392 149.491 312.025 148.341 312.025C147.158 312.025 146.216 312.408 145.516 313.175C144.816 313.925 144.466 315.017 144.466 316.45V324H142.191V310.3H144.466V312.275C144.916 311.558 145.516 311.008 146.266 310.625C147.033 310.242 147.874 310.05 148.791 310.05C149.941 310.05 150.958 310.308 151.841 310.825C152.724 311.342 153.383 312.1 153.816 313.1C154.199 312.133 154.833 311.383 155.716 310.85C156.599 310.317 157.583 310.05 158.666 310.05ZM169.123 308.075C168.69 308.075 168.323 307.925 168.023 307.625C167.723 307.325 167.573 306.958 167.573 306.525C167.573 306.092 167.723 305.725 168.023 305.425C168.323 305.125 168.69 304.975 169.123 304.975C169.54 304.975 169.89 305.125 170.173 305.425C170.473 305.725 170.623 306.092 170.623 306.525C170.623 306.958 170.473 307.325 170.173 307.625C169.89 307.925 169.54 308.075 169.123 308.075ZM170.223 310.3V324H167.948V310.3H170.223ZM180.775 310.05C182.442 310.05 183.792 310.558 184.825 311.575C185.859 312.575 186.375 314.025 186.375 315.925V324H184.125V316.25C184.125 314.883 183.784 313.842 183.1 313.125C182.417 312.392 181.484 312.025 180.3 312.025C179.1 312.025 178.142 312.4 177.425 313.15C176.725 313.9 176.375 314.992 176.375 316.425V324H174.1V310.3H176.375V312.25C176.825 311.55 177.434 311.008 178.2 310.625C178.984 310.242 179.842 310.05 180.775 310.05ZM195.742 310.075C196.925 310.075 197.958 310.333 198.842 310.85C199.742 311.367 200.408 312.017 200.842 312.8V310.3H203.142V324.3C203.142 325.55 202.875 326.658 202.342 327.625C201.808 328.608 201.042 329.375 200.042 329.925C199.058 330.475 197.908 330.75 196.592 330.75C194.792 330.75 193.292 330.325 192.092 329.475C190.892 328.625 190.183 327.467 189.967 326H192.217C192.467 326.833 192.983 327.5 193.767 328C194.55 328.517 195.492 328.775 196.592 328.775C197.842 328.775 198.858 328.383 199.642 327.6C200.442 326.817 200.842 325.717 200.842 324.3V321.425C200.392 322.225 199.725 322.892 198.842 323.425C197.958 323.958 196.925 324.225 195.742 324.225C194.525 324.225 193.417 323.925 192.417 323.325C191.433 322.725 190.658 321.883 190.092 320.8C189.525 319.717 189.242 318.483 189.242 317.1C189.242 315.7 189.525 314.475 190.092 313.425C190.658 312.358 191.433 311.533 192.417 310.95C193.417 310.367 194.525 310.075 195.742 310.075ZM200.842 317.125C200.842 316.092 200.633 315.192 200.217 314.425C199.8 313.658 199.233 313.075 198.517 312.675C197.817 312.258 197.042 312.05 196.192 312.05C195.342 312.05 194.567 312.25 193.867 312.65C193.167 313.05 192.608 313.633 192.192 314.4C191.775 315.167 191.567 316.067 191.567 317.1C191.567 318.15 191.775 319.067 192.192 319.85C192.608 320.617 193.167 321.208 193.867 321.625C194.567 322.025 195.342 322.225 196.192 322.225C197.042 322.225 197.817 322.025 198.517 321.625C199.233 321.208 199.8 320.617 200.217 319.85C200.633 319.067 200.842 318.158 200.842 317.125ZM212.801 317.1C212.801 315.7 213.084 314.475 213.651 313.425C214.218 312.358 214.993 311.533 215.976 310.95C216.976 310.367 218.084 310.075 219.301 310.075C220.501 310.075 221.543 310.333 222.426 310.85C223.309 311.367 223.968 312.017 224.401 312.8V310.3H226.701V324H224.401V321.45C223.951 322.25 223.276 322.917 222.376 323.45C221.493 323.967 220.459 324.225 219.276 324.225C218.059 324.225 216.959 323.925 215.976 323.325C214.993 322.725 214.218 321.883 213.651 320.8C213.084 319.717 212.801 318.483 212.801 317.1ZM224.401 317.125C224.401 316.092 224.193 315.192 223.776 314.425C223.359 313.658 222.793 313.075 222.076 312.675C221.376 312.258 220.601 312.05 219.751 312.05C218.901 312.05 218.126 312.25 217.426 312.65C216.726 313.05 216.168 313.633 215.751 314.4C215.334 315.167 215.126 316.067 215.126 317.1C215.126 318.15 215.334 319.067 215.751 319.85C216.168 320.617 216.726 321.208 217.426 321.625C218.126 322.025 218.901 322.225 219.751 322.225C220.601 322.225 221.376 322.025 222.076 321.625C222.793 321.208 223.359 320.617 223.776 319.85C224.193 319.067 224.401 318.158 224.401 317.125ZM237.221 310.05C238.887 310.05 240.237 310.558 241.271 311.575C242.304 312.575 242.821 314.025 242.821 315.925V324H240.571V316.25C240.571 314.883 240.229 313.842 239.546 313.125C238.862 312.392 237.929 312.025 236.746 312.025C235.546 312.025 234.587 312.4 233.871 313.15C233.171 313.9 232.821 314.992 232.821 316.425V324H230.546V310.3H232.821V312.25C233.271 311.55 233.879 311.008 234.646 310.625C235.429 310.242 236.287 310.05 237.221 310.05ZM258.337 310.3L250.087 330.45H247.737L250.437 323.85L244.912 310.3H247.437L251.737 321.4L255.987 310.3H258.337ZM272.864 312.175H269.989V324H267.714V312.175H265.939V310.3H267.714V309.325C267.714 307.792 268.105 306.675 268.889 305.975C269.689 305.258 270.964 304.9 272.714 304.9V306.8C271.714 306.8 271.005 307 270.589 307.4C270.189 307.783 269.989 308.425 269.989 309.325V310.3H272.864V312.175ZM281.491 324.225C280.208 324.225 279.041 323.933 277.991 323.35C276.958 322.767 276.141 321.942 275.541 320.875C274.958 319.792 274.666 318.542 274.666 317.125C274.666 315.725 274.966 314.492 275.566 313.425C276.183 312.342 277.016 311.517 278.066 310.95C279.116 310.367 280.291 310.075 281.591 310.075C282.891 310.075 284.066 310.367 285.116 310.95C286.166 311.517 286.991 312.333 287.591 313.4C288.208 314.467 288.516 315.708 288.516 317.125C288.516 318.542 288.2 319.792 287.566 320.875C286.95 321.942 286.108 322.767 285.041 323.35C283.975 323.933 282.791 324.225 281.491 324.225ZM281.491 322.225C282.308 322.225 283.075 322.033 283.791 321.65C284.508 321.267 285.083 320.692 285.516 319.925C285.966 319.158 286.191 318.225 286.191 317.125C286.191 316.025 285.975 315.092 285.541 314.325C285.108 313.558 284.541 312.992 283.841 312.625C283.141 312.242 282.383 312.05 281.566 312.05C280.733 312.05 279.966 312.242 279.266 312.625C278.583 312.992 278.033 313.558 277.616 314.325C277.2 315.092 276.991 316.025 276.991 317.125C276.991 318.242 277.191 319.183 277.591 319.95C278.008 320.717 278.558 321.292 279.241 321.675C279.925 322.042 280.675 322.225 281.491 322.225ZM297.483 324.225C296.199 324.225 295.033 323.933 293.983 323.35C292.949 322.767 292.133 321.942 291.533 320.875C290.949 319.792 290.658 318.542 290.658 317.125C290.658 315.725 290.958 314.492 291.558 313.425C292.174 312.342 293.008 311.517 294.058 310.95C295.108 310.367 296.283 310.075 297.583 310.075C298.883 310.075 300.058 310.367 301.108 310.95C302.158 311.517 302.983 312.333 303.583 313.4C304.199 314.467 304.508 315.708 304.508 317.125C304.508 318.542 304.191 319.792 303.558 320.875C302.941 321.942 302.099 322.767 301.033 323.35C299.966 323.933 298.783 324.225 297.483 324.225ZM297.483 322.225C298.299 322.225 299.066 322.033 299.783 321.65C300.499 321.267 301.074 320.692 301.508 319.925C301.958 319.158 302.183 318.225 302.183 317.125C302.183 316.025 301.966 315.092 301.533 314.325C301.099 313.558 300.533 312.992 299.833 312.625C299.133 312.242 298.374 312.05 297.558 312.05C296.724 312.05 295.958 312.242 295.258 312.625C294.574 312.992 294.024 313.558 293.608 314.325C293.191 315.092 292.983 316.025 292.983 317.125C292.983 318.242 293.183 319.183 293.583 319.95C293.999 320.717 294.549 321.292 295.233 321.675C295.916 322.042 296.666 322.225 297.483 322.225ZM306.649 317.1C306.649 315.7 306.932 314.475 307.499 313.425C308.065 312.358 308.84 311.533 309.824 310.95C310.824 310.367 311.94 310.075 313.174 310.075C314.24 310.075 315.232 310.325 316.149 310.825C317.065 311.308 317.765 311.95 318.249 312.75V305.5H320.549V324H318.249V321.425C317.799 322.242 317.132 322.917 316.249 323.45C315.365 323.967 314.332 324.225 313.149 324.225C311.932 324.225 310.824 323.925 309.824 323.325C308.84 322.725 308.065 321.883 307.499 320.8C306.932 319.717 306.649 318.483 306.649 317.1ZM318.249 317.125C318.249 316.092 318.04 315.192 317.624 314.425C317.207 313.658 316.64 313.075 315.924 312.675C315.224 312.258 314.449 312.05 313.599 312.05C312.749 312.05 311.974 312.25 311.274 312.65C310.574 313.05 310.015 313.633 309.599 314.4C309.182 315.167 308.974 316.067 308.974 317.1C308.974 318.15 309.182 319.067 309.599 319.85C310.015 320.617 310.574 321.208 311.274 321.625C311.974 322.025 312.749 322.225 313.599 322.225C314.449 322.225 315.224 322.025 315.924 321.625C316.64 321.208 317.207 320.617 317.624 319.85C318.04 319.067 318.249 318.158 318.249 317.125ZM325.118 324.15C324.685 324.15 324.318 324 324.018 323.7C323.718 323.4 323.568 323.033 323.568 322.6C323.568 322.167 323.718 321.8 324.018 321.5C324.318 321.2 324.685 321.05 325.118 321.05C325.535 321.05 325.885 321.2 326.168 321.5C326.468 321.8 326.618 322.167 326.618 322.6C326.618 323.033 326.468 323.4 326.168 323.7C325.885 324 325.535 324.15 325.118 324.15Z" fill="#2E2E2E"/>
<line x1="16.9414" y1="156" x2="343.059" y2="156" stroke="black" stroke-width="2"/>
<path d="M178.941 9.25C178.222 9.25 177.507 9.50886 176.958 10.0269L168.273 18.223C166.961 19.4656 167.892 21.5833 169.746 21.5833H188.129C189.987 21.5833 190.921 19.4656 189.609 18.223L180.931 10.0269C180.382 9.50886 179.66 9.25 178.941 9.25ZM178.89 27.7078C178.025 27.7206 177.201 28.0569 176.599 28.6428C175.996 29.2288 175.665 30.0166 175.676 30.8333V37C175.67 37.4086 175.75 37.8142 175.912 38.1934C176.073 38.5725 176.312 38.9176 176.616 39.2086C176.92 39.4996 177.282 39.7306 177.681 39.8883C178.08 40.046 178.508 40.1272 178.941 40.1272C179.374 40.1272 179.802 40.046 180.201 39.8883C180.6 39.7306 180.962 39.4996 181.266 39.2086C181.57 38.9176 181.809 38.5725 181.971 38.1934C182.132 37.8142 182.212 37.4086 182.206 37V30.8333C182.212 30.4208 182.13 30.0114 181.965 29.6292C181.801 29.2471 181.557 28.9 181.248 28.6085C180.938 28.3171 180.57 28.0872 180.166 27.9325C179.761 27.7778 179.327 27.7014 178.89 27.7078V27.7078ZM155.82 36.7471C155.17 36.7472 154.535 36.9307 153.996 37.274C153.456 37.6174 153.038 38.105 152.794 38.6743C152.55 39.2436 152.492 39.8687 152.627 40.4695C152.762 41.0703 153.083 41.6194 153.55 42.0465L158.167 46.4066C158.468 46.7025 158.828 46.9387 159.227 47.1015C159.625 47.2642 160.055 47.3502 160.489 47.3544C160.923 47.3586 161.354 47.2809 161.756 47.1258C162.158 46.9707 162.524 46.7415 162.831 46.4514C163.138 46.1613 163.381 45.8163 163.545 45.4365C163.709 45.0567 163.791 44.6498 163.787 44.2396C163.783 43.8293 163.692 43.4241 163.519 43.0475C163.347 42.671 163.097 42.3307 162.783 42.0465L158.167 37.6865C157.862 37.3893 157.498 37.153 157.095 36.9916C156.692 36.8302 156.258 36.7471 155.82 36.7471ZM201.96 36.7531C201.112 36.777 200.307 37.1117 199.715 37.6865L195.099 42.0465C194.786 42.3307 194.535 42.671 194.363 43.0475C194.191 43.4241 194.1 43.8293 194.095 44.2396C194.091 44.6498 194.173 45.0567 194.337 45.4365C194.501 45.8163 194.744 46.1613 195.051 46.4514C195.359 46.7415 195.724 46.9708 196.126 47.1258C196.528 47.2809 196.959 47.3586 197.393 47.3544C197.828 47.3502 198.257 47.2643 198.655 47.1015C199.054 46.9387 199.415 46.7025 199.715 46.4066L204.332 42.0465C204.804 41.6135 205.126 41.0559 205.256 40.4468C205.387 39.8378 205.319 39.2058 205.063 38.6336C204.807 38.0613 204.373 37.5756 203.819 37.2401C203.266 36.9045 202.617 36.7348 201.96 36.7531V36.7531ZM178.941 46.25C171.082 46.25 164.473 51.57 162.949 58.5833H149.559C149.126 58.5775 148.697 58.653 148.295 58.8054C147.894 58.9577 147.528 59.1839 147.22 59.4708C146.912 59.7577 146.668 60.0996 146.501 60.4765C146.334 60.8535 146.248 61.258 146.248 61.6667C146.248 62.0753 146.334 62.4798 146.501 62.8568C146.668 63.2337 146.912 63.5756 147.22 63.8625C147.528 64.1494 147.894 64.3756 148.295 64.5279C148.697 64.6803 149.126 64.7558 149.559 64.75H208.323C208.756 64.7558 209.186 64.6803 209.587 64.5279C209.989 64.3756 210.354 64.1494 210.662 63.8625C210.97 63.5756 211.215 63.2337 211.382 62.8568C211.549 62.4798 211.635 62.0753 211.635 61.6667C211.635 61.258 211.549 60.8535 211.382 60.4765C211.215 60.0996 210.97 59.7577 210.662 59.4708C210.354 59.1839 209.989 58.9577 209.587 58.8054C209.186 58.653 208.756 58.5775 208.323 58.5833H194.933C193.409 51.57 186.8 46.25 178.941 46.25Z" fill="#316B62"/>
</svg>
