<svg width="372" height="373" viewBox="0 0 372 373" fill="none" xmlns="http://www.w3.org/2000/svg">
<path d="M126.991 105.695V111.47H134.746V115.133H126.991V121.238H135.736V125H122.371V101.933H135.736V105.695H126.991ZM147.558 120.743L152.178 106.718H157.095L150.33 125H144.72L137.988 106.718H142.938L147.558 120.743ZM176.685 115.463C176.685 116.123 176.641 116.717 176.553 117.245H163.188C163.298 118.565 163.76 119.599 164.574 120.347C165.388 121.095 166.389 121.469 167.577 121.469C169.293 121.469 170.514 120.732 171.24 119.258H176.223C175.695 121.018 174.683 122.47 173.187 123.614C171.691 124.736 169.854 125.297 167.676 125.297C165.916 125.297 164.332 124.912 162.924 124.142C161.538 123.35 160.449 122.239 159.657 120.809C158.887 119.379 158.502 117.729 158.502 115.859C158.502 113.967 158.887 112.306 159.657 110.876C160.427 109.446 161.505 108.346 162.891 107.576C164.277 106.806 165.872 106.421 167.676 106.421C169.414 106.421 170.965 106.795 172.329 107.543C173.715 108.291 174.782 109.358 175.53 110.744C176.3 112.108 176.685 113.681 176.685 115.463ZM171.9 114.143C171.878 112.955 171.449 112.009 170.613 111.305C169.777 110.579 168.754 110.216 167.544 110.216C166.4 110.216 165.432 110.568 164.64 111.272C163.87 111.954 163.397 112.911 163.221 114.143H171.9ZM190.188 106.454C192.366 106.454 194.126 107.147 195.468 108.533C196.81 109.897 197.481 111.811 197.481 114.275V125H192.861V114.902C192.861 113.45 192.498 112.339 191.772 111.569C191.046 110.777 190.056 110.381 188.802 110.381C187.526 110.381 186.514 110.777 185.766 111.569C185.04 112.339 184.677 113.45 184.677 114.902V125H180.057V106.718H184.677V108.995C185.293 108.203 186.074 107.587 187.02 107.147C187.988 106.685 189.044 106.454 190.188 106.454ZM204.217 104.54C203.403 104.54 202.721 104.287 202.171 103.781C201.643 103.253 201.379 102.604 201.379 101.834C201.379 101.064 201.643 100.426 202.171 99.92C202.721 99.392 203.403 99.128 204.217 99.128C205.031 99.128 205.702 99.392 206.23 99.92C206.78 100.426 207.055 101.064 207.055 101.834C207.055 102.604 206.78 103.253 206.23 103.781C205.702 104.287 205.031 104.54 204.217 104.54ZM206.494 106.718V125H201.874V106.718H206.494ZM221.19 106.454C223.368 106.454 225.128 107.147 226.47 108.533C227.812 109.897 228.483 111.811 228.483 114.275V125H223.863V114.902C223.863 113.45 223.5 112.339 222.774 111.569C222.048 110.777 221.058 110.381 219.804 110.381C218.528 110.381 217.516 110.777 216.768 111.569C216.042 112.339 215.679 113.45 215.679 114.902V125H211.059V106.718H215.679V108.995C216.295 108.203 217.076 107.587 218.022 107.147C218.99 106.685 220.046 106.454 221.19 106.454ZM240.037 106.421C241.401 106.421 242.6 106.696 243.634 107.246C244.668 107.774 245.482 108.467 246.076 109.325V106.718H250.729V125.132C250.729 126.826 250.388 128.333 249.706 129.653C249.024 130.995 248.001 132.051 246.637 132.821C245.273 133.613 243.623 134.009 241.687 134.009C239.091 134.009 236.957 133.404 235.285 132.194C233.635 130.984 232.7 129.334 232.48 127.244H237.067C237.309 128.08 237.826 128.74 238.618 129.224C239.432 129.73 240.411 129.983 241.555 129.983C242.897 129.983 243.986 129.576 244.822 128.762C245.658 127.97 246.076 126.76 246.076 125.132V122.294C245.482 123.152 244.657 123.867 243.601 124.439C242.567 125.011 241.379 125.297 240.037 125.297C238.497 125.297 237.089 124.901 235.813 124.109C234.537 123.317 233.525 122.206 232.777 120.776C232.051 119.324 231.688 117.663 231.688 115.793C231.688 113.945 232.051 112.306 232.777 110.876C233.525 109.446 234.526 108.346 235.78 107.576C237.056 106.806 238.475 106.421 240.037 106.421ZM246.076 115.859C246.076 114.737 245.856 113.78 245.416 112.988C244.976 112.174 244.382 111.558 243.634 111.14C242.886 110.7 242.083 110.48 241.225 110.48C240.367 110.48 239.575 110.689 238.849 111.107C238.123 111.525 237.529 112.141 237.067 112.955C236.627 113.747 236.407 114.693 236.407 115.793C236.407 116.893 236.627 117.861 237.067 118.697C237.529 119.511 238.123 120.138 238.849 120.578C239.597 121.018 240.389 121.238 241.225 121.238C242.083 121.238 242.886 121.029 243.634 120.611C244.382 120.171 244.976 119.555 245.416 118.763C245.856 117.949 246.076 116.981 246.076 115.859Z" fill="#316B62"/>
<path d="M49.5994 197.675C49.5994 199.125 49.0994 200.333 48.0994 201.3C47.1161 202.25 45.6077 202.725 43.5744 202.725H40.2244V210H37.9494V192.575H43.5744C45.5411 192.575 47.0327 193.05 48.0494 194C49.0827 194.95 49.5994 196.175 49.5994 197.675ZM43.5744 200.85C44.8411 200.85 45.7744 200.575 46.3744 200.025C46.9744 199.475 47.2744 198.692 47.2744 197.675C47.2744 195.525 46.0411 194.45 43.5744 194.45H40.2244V200.85H43.5744ZM54.702 198.525C55.102 197.742 55.6686 197.133 56.402 196.7C57.152 196.267 58.0603 196.05 59.127 196.05V198.4H58.527C55.977 198.4 54.702 199.783 54.702 202.55V210H52.427V196.3H54.702V198.525ZM62.9281 194.075C62.4948 194.075 62.1281 193.925 61.8281 193.625C61.5281 193.325 61.3781 192.958 61.3781 192.525C61.3781 192.092 61.5281 191.725 61.8281 191.425C62.1281 191.125 62.4948 190.975 62.9281 190.975C63.3448 190.975 63.6948 191.125 63.9781 191.425C64.2781 191.725 64.4281 192.092 64.4281 192.525C64.4281 192.958 64.2781 193.325 63.9781 193.625C63.6948 193.925 63.3448 194.075 62.9281 194.075ZM64.0281 196.3V210H61.7531V196.3H64.0281ZM73.8805 210.225C72.5971 210.225 71.4305 209.933 70.3805 209.35C69.3471 208.767 68.5305 207.942 67.9305 206.875C67.3471 205.792 67.0555 204.542 67.0555 203.125C67.0555 201.725 67.3555 200.492 67.9555 199.425C68.5721 198.342 69.4055 197.517 70.4555 196.95C71.5055 196.367 72.6805 196.075 73.9805 196.075C75.2805 196.075 76.4555 196.367 77.5055 196.95C78.5555 197.517 79.3805 198.333 79.9805 199.4C80.5971 200.467 80.9055 201.708 80.9055 203.125C80.9055 204.542 80.5888 205.792 79.9555 206.875C79.3388 207.942 78.4971 208.767 77.4305 209.35C76.3638 209.933 75.1805 210.225 73.8805 210.225ZM73.8805 208.225C74.6971 208.225 75.4638 208.033 76.1805 207.65C76.8971 207.267 77.4721 206.692 77.9055 205.925C78.3555 205.158 78.5805 204.225 78.5805 203.125C78.5805 202.025 78.3638 201.092 77.9305 200.325C77.4971 199.558 76.9305 198.992 76.2305 198.625C75.5305 198.242 74.7721 198.05 73.9555 198.05C73.1221 198.05 72.3555 198.242 71.6555 198.625C70.9721 198.992 70.4221 199.558 70.0055 200.325C69.5888 201.092 69.3805 202.025 69.3805 203.125C69.3805 204.242 69.5805 205.183 69.9805 205.95C70.3971 206.717 70.9471 207.292 71.6305 207.675C72.3138 208.042 73.0638 208.225 73.8805 208.225ZM86.1717 198.525C86.5717 197.742 87.1383 197.133 87.8717 196.7C88.6217 196.267 89.53 196.05 90.5967 196.05V198.4H89.9967C87.4467 198.4 86.1717 199.783 86.1717 202.55V210H83.8967V196.3H86.1717V198.525ZM102.663 198.175V206.25C102.663 206.917 102.805 207.392 103.088 207.675C103.371 207.942 103.863 208.075 104.563 208.075H106.238V210H104.188C102.921 210 101.971 209.708 101.338 209.125C100.705 208.542 100.388 207.583 100.388 206.25V198.175H98.6129V196.3H100.388V192.85H102.663V196.3H106.238V198.175H102.663ZM114.969 210.225C113.686 210.225 112.519 209.933 111.469 209.35C110.436 208.767 109.619 207.942 109.019 206.875C108.436 205.792 108.144 204.542 108.144 203.125C108.144 201.725 108.444 200.492 109.044 199.425C109.661 198.342 110.494 197.517 111.544 196.95C112.594 196.367 113.769 196.075 115.069 196.075C116.369 196.075 117.544 196.367 118.594 196.95C119.644 197.517 120.469 198.333 121.069 199.4C121.686 200.467 121.994 201.708 121.994 203.125C121.994 204.542 121.678 205.792 121.044 206.875C120.428 207.942 119.586 208.767 118.519 209.35C117.453 209.933 116.269 210.225 114.969 210.225ZM114.969 208.225C115.786 208.225 116.553 208.033 117.269 207.65C117.986 207.267 118.561 206.692 118.994 205.925C119.444 205.158 119.669 204.225 119.669 203.125C119.669 202.025 119.453 201.092 119.019 200.325C118.586 199.558 118.019 198.992 117.319 198.625C116.619 198.242 115.861 198.05 115.044 198.05C114.211 198.05 113.444 198.242 112.744 198.625C112.061 198.992 111.511 199.558 111.094 200.325C110.678 201.092 110.469 202.025 110.469 203.125C110.469 204.242 110.669 205.183 111.069 205.95C111.486 206.717 112.036 207.292 112.719 207.675C113.403 208.042 114.153 208.225 114.969 208.225ZM130.801 203.1C130.801 201.7 131.084 200.475 131.651 199.425C132.217 198.358 132.992 197.533 133.976 196.95C134.976 196.367 136.092 196.075 137.326 196.075C138.392 196.075 139.384 196.325 140.301 196.825C141.217 197.308 141.917 197.95 142.401 198.75V191.5H144.701V210H142.401V207.425C141.951 208.242 141.284 208.917 140.401 209.45C139.517 209.967 138.484 210.225 137.301 210.225C136.084 210.225 134.976 209.925 133.976 209.325C132.992 208.725 132.217 207.883 131.651 206.8C131.084 205.717 130.801 204.483 130.801 203.1ZM142.401 203.125C142.401 202.092 142.192 201.192 141.776 200.425C141.359 199.658 140.792 199.075 140.076 198.675C139.376 198.258 138.601 198.05 137.751 198.05C136.901 198.05 136.126 198.25 135.426 198.65C134.726 199.05 134.167 199.633 133.751 200.4C133.334 201.167 133.126 202.067 133.126 203.1C133.126 204.15 133.334 205.067 133.751 205.85C134.167 206.617 134.726 207.208 135.426 207.625C136.126 208.025 136.901 208.225 137.751 208.225C138.601 208.225 139.376 208.025 140.076 207.625C140.792 207.208 141.359 206.617 141.776 205.85C142.192 205.067 142.401 204.158 142.401 203.125ZM149.72 194.075C149.287 194.075 148.92 193.925 148.62 193.625C148.32 193.325 148.17 192.958 148.17 192.525C148.17 192.092 148.32 191.725 148.62 191.425C148.92 191.125 149.287 190.975 149.72 190.975C150.137 190.975 150.487 191.125 150.77 191.425C151.07 191.725 151.22 192.092 151.22 192.525C151.22 192.958 151.07 193.325 150.77 193.625C150.487 193.925 150.137 194.075 149.72 194.075ZM150.82 196.3V210H148.545V196.3H150.82ZM161.372 196.05C163.039 196.05 164.389 196.558 165.422 197.575C166.456 198.575 166.972 200.025 166.972 201.925V210H164.722V202.25C164.722 200.883 164.381 199.842 163.697 199.125C163.014 198.392 162.081 198.025 160.897 198.025C159.697 198.025 158.739 198.4 158.022 199.15C157.322 199.9 156.972 200.992 156.972 202.425V210H154.697V196.3H156.972V198.25C157.422 197.55 158.031 197.008 158.797 196.625C159.581 196.242 160.439 196.05 161.372 196.05ZM177.364 196.05C179.03 196.05 180.38 196.558 181.414 197.575C182.447 198.575 182.964 200.025 182.964 201.925V210H180.714V202.25C180.714 200.883 180.372 199.842 179.689 199.125C179.005 198.392 178.072 198.025 176.889 198.025C175.689 198.025 174.73 198.4 174.014 199.15C173.314 199.9 172.964 200.992 172.964 202.425V210H170.689V196.3H172.964V198.25C173.414 197.55 174.022 197.008 174.789 196.625C175.572 196.242 176.43 196.05 177.364 196.05ZM199.18 202.625C199.18 203.058 199.155 203.517 199.105 204H188.155C188.238 205.35 188.697 206.408 189.53 207.175C190.38 207.925 191.405 208.3 192.605 208.3C193.588 208.3 194.405 208.075 195.055 207.625C195.722 207.158 196.188 206.542 196.455 205.775H198.905C198.538 207.092 197.805 208.167 196.705 209C195.605 209.817 194.238 210.225 192.605 210.225C191.305 210.225 190.138 209.933 189.105 209.35C188.088 208.767 187.288 207.942 186.705 206.875C186.122 205.792 185.83 204.542 185.83 203.125C185.83 201.708 186.113 200.467 186.68 199.4C187.247 198.333 188.038 197.517 189.055 196.95C190.088 196.367 191.272 196.075 192.605 196.075C193.905 196.075 195.055 196.358 196.055 196.925C197.055 197.492 197.822 198.275 198.355 199.275C198.905 200.258 199.18 201.375 199.18 202.625ZM196.83 202.15C196.83 201.283 196.638 200.542 196.255 199.925C195.872 199.292 195.347 198.817 194.68 198.5C194.03 198.167 193.305 198 192.505 198C191.355 198 190.372 198.367 189.555 199.1C188.755 199.833 188.297 200.85 188.18 202.15H196.83ZM204.458 198.525C204.858 197.742 205.424 197.133 206.158 196.7C206.908 196.267 207.816 196.05 208.883 196.05V198.4H208.283C205.733 198.4 204.458 199.783 204.458 202.55V210H202.183V196.3H204.458V198.525ZM213.859 206.85L211.059 213.575H209.534L211.359 206.85H213.859ZM225.905 198.175V206.25C225.905 206.917 226.047 207.392 226.33 207.675C226.613 207.942 227.105 208.075 227.805 208.075H229.48V210H227.43C226.163 210 225.213 209.708 224.58 209.125C223.947 208.542 223.63 207.583 223.63 206.25V198.175H221.855V196.3H223.63V192.85H225.905V196.3H229.48V198.175H225.905ZM231.387 203.1C231.387 201.7 231.67 200.475 232.237 199.425C232.803 198.358 233.578 197.533 234.562 196.95C235.562 196.367 236.67 196.075 237.887 196.075C239.087 196.075 240.128 196.333 241.012 196.85C241.895 197.367 242.553 198.017 242.987 198.8V196.3H245.287V210H242.987V207.45C242.537 208.25 241.862 208.917 240.962 209.45C240.078 209.967 239.045 210.225 237.862 210.225C236.645 210.225 235.545 209.925 234.562 209.325C233.578 208.725 232.803 207.883 232.237 206.8C231.67 205.717 231.387 204.483 231.387 203.1ZM242.987 203.125C242.987 202.092 242.778 201.192 242.362 200.425C241.945 199.658 241.378 199.075 240.662 198.675C239.962 198.258 239.187 198.05 238.337 198.05C237.487 198.05 236.712 198.25 236.012 198.65C235.312 199.05 234.753 199.633 234.337 200.4C233.92 201.167 233.712 202.067 233.712 203.1C233.712 204.15 233.92 205.067 234.337 205.85C234.753 206.617 235.312 207.208 236.012 207.625C236.712 208.025 237.487 208.225 238.337 208.225C239.187 208.225 239.962 208.025 240.662 207.625C241.378 207.208 241.945 206.617 242.362 205.85C242.778 205.067 242.987 204.158 242.987 203.125ZM256.781 210L251.406 203.95V210H249.131V191.5H251.406V202.375L256.681 196.3H259.856L253.406 203.125L259.881 210H256.781ZM274.497 202.625C274.497 203.058 274.472 203.517 274.422 204H263.472C263.556 205.35 264.014 206.408 264.847 207.175C265.697 207.925 266.722 208.3 267.922 208.3C268.906 208.3 269.722 208.075 270.372 207.625C271.039 207.158 271.506 206.542 271.772 205.775H274.222C273.856 207.092 273.122 208.167 272.022 209C270.922 209.817 269.556 210.225 267.922 210.225C266.622 210.225 265.456 209.933 264.422 209.35C263.406 208.767 262.606 207.942 262.022 206.875C261.439 205.792 261.147 204.542 261.147 203.125C261.147 201.708 261.431 200.467 261.997 199.4C262.564 198.333 263.356 197.517 264.372 196.95C265.406 196.367 266.589 196.075 267.922 196.075C269.222 196.075 270.372 196.358 271.372 196.925C272.372 197.492 273.139 198.275 273.672 199.275C274.222 200.258 274.497 201.375 274.497 202.625ZM272.147 202.15C272.147 201.283 271.956 200.542 271.572 199.925C271.189 199.292 270.664 198.817 269.997 198.5C269.347 198.167 268.622 198 267.822 198C266.672 198 265.689 198.367 264.872 199.1C264.072 199.833 263.614 200.85 263.497 202.15H272.147ZM283.19 194V191.925H287.89V210H285.59V194H283.19ZM301.613 198.175V206.25C301.613 206.917 301.755 207.392 302.038 207.675C302.321 207.942 302.813 208.075 303.513 208.075H305.188V210H303.138C301.871 210 300.921 209.708 300.288 209.125C299.655 208.542 299.338 207.583 299.338 206.25V198.175H297.563V196.3H299.338V192.85H301.613V196.3H305.188V198.175H301.613ZM312.795 210.225C311.745 210.225 310.803 210.05 309.97 209.7C309.136 209.333 308.478 208.833 307.995 208.2C307.511 207.55 307.245 206.808 307.195 205.975H309.545C309.611 206.658 309.928 207.217 310.495 207.65C311.078 208.083 311.836 208.3 312.77 208.3C313.636 208.3 314.32 208.108 314.82 207.725C315.32 207.342 315.57 206.858 315.57 206.275C315.57 205.675 315.303 205.233 314.77 204.95C314.236 204.65 313.411 204.358 312.295 204.075C311.278 203.808 310.445 203.542 309.795 203.275C309.161 202.992 308.611 202.583 308.145 202.05C307.695 201.5 307.47 200.783 307.47 199.9C307.47 199.2 307.678 198.558 308.095 197.975C308.511 197.392 309.103 196.933 309.87 196.6C310.636 196.25 311.511 196.075 312.495 196.075C314.011 196.075 315.236 196.458 316.17 197.225C317.103 197.992 317.603 199.042 317.67 200.375H315.395C315.345 199.658 315.053 199.083 314.52 198.65C314.003 198.217 313.303 198 312.42 198C311.603 198 310.953 198.175 310.47 198.525C309.986 198.875 309.745 199.333 309.745 199.9C309.745 200.35 309.886 200.725 310.17 201.025C310.47 201.308 310.836 201.542 311.27 201.725C311.72 201.892 312.336 202.083 313.12 202.3C314.103 202.567 314.903 202.833 315.52 203.1C316.136 203.35 316.661 203.733 317.095 204.25C317.545 204.767 317.778 205.442 317.795 206.275C317.795 207.025 317.586 207.7 317.17 208.3C316.753 208.9 316.161 209.375 315.395 209.725C314.645 210.058 313.778 210.225 312.795 210.225ZM323.281 198.825C323.731 198.042 324.398 197.392 325.281 196.875C326.181 196.342 327.223 196.075 328.406 196.075C329.623 196.075 330.723 196.367 331.706 196.95C332.706 197.533 333.489 198.358 334.056 199.425C334.623 200.475 334.906 201.7 334.906 203.1C334.906 204.483 334.623 205.717 334.056 206.8C333.489 207.883 332.706 208.725 331.706 209.325C330.723 209.925 329.623 210.225 328.406 210.225C327.239 210.225 326.206 209.967 325.306 209.45C324.423 208.917 323.748 208.258 323.281 207.475V216.5H321.006V196.3H323.281V198.825ZM332.581 203.1C332.581 202.067 332.373 201.167 331.956 200.4C331.539 199.633 330.973 199.05 330.256 198.65C329.556 198.25 328.781 198.05 327.931 198.05C327.098 198.05 326.323 198.258 325.606 198.675C324.906 199.075 324.339 199.667 323.906 200.45C323.489 201.217 323.281 202.108 323.281 203.125C323.281 204.158 323.489 205.067 323.906 205.85C324.339 206.617 324.906 207.208 325.606 207.625C326.323 208.025 327.098 208.225 327.931 208.225C328.781 208.225 329.556 208.025 330.256 207.625C330.973 207.208 331.539 206.617 331.956 205.85C332.373 205.067 332.581 204.15 332.581 203.1ZM18.5811 235.625C18.0977 234.608 17.3977 233.825 16.4811 233.275C15.5644 232.708 14.4977 232.425 13.2811 232.425C12.0644 232.425 10.9644 232.708 9.98105 233.275C9.01439 233.825 8.24772 234.625 7.68106 235.675C7.13105 236.708 6.85605 237.908 6.85605 239.275C6.85605 240.642 7.13105 241.842 7.68106 242.875C8.24772 243.908 9.01439 244.708 9.98105 245.275C10.9644 245.825 12.0644 246.1 13.2811 246.1C14.9811 246.1 16.3811 245.592 17.4811 244.575C18.5811 243.558 19.2227 242.183 19.4061 240.45H12.4561V238.6H21.8311V240.35C21.6977 241.783 21.2477 243.1 20.4811 244.3C19.7144 245.483 18.7061 246.425 17.4561 247.125C16.2061 247.808 14.8144 248.15 13.2811 248.15C11.6644 248.15 10.1894 247.775 8.85605 247.025C7.52272 246.258 6.46439 245.2 5.68105 243.85C4.91439 242.5 4.53105 240.975 4.53105 239.275C4.53105 237.575 4.91439 236.05 5.68105 234.7C6.46439 233.333 7.52272 232.275 8.85605 231.525C10.1894 230.758 11.6644 230.375 13.2811 230.375C15.1311 230.375 16.7644 230.833 18.1811 231.75C19.6144 232.667 20.6561 233.958 21.3061 235.625H18.5811ZM27.1141 236.525C27.5141 235.742 28.0807 235.133 28.8141 234.7C29.5641 234.267 30.4724 234.05 31.5391 234.05V236.4H30.9391C28.3891 236.4 27.1141 237.783 27.1141 240.55V248H24.8391V234.3H27.1141V236.525ZM46.6652 240.625C46.6652 241.058 46.6402 241.517 46.5902 242H35.6402C35.7236 243.35 36.1819 244.408 37.0152 245.175C37.8652 245.925 38.8902 246.3 40.0902 246.3C41.0736 246.3 41.8902 246.075 42.5402 245.625C43.2069 245.158 43.6736 244.542 43.9402 243.775H46.3902C46.0236 245.092 45.2902 246.167 44.1902 247C43.0902 247.817 41.7236 248.225 40.0902 248.225C38.7902 248.225 37.6236 247.933 36.5902 247.35C35.5736 246.767 34.7736 245.942 34.1902 244.875C33.6069 243.792 33.3152 242.542 33.3152 241.125C33.3152 239.708 33.5986 238.467 34.1652 237.4C34.7319 236.333 35.5236 235.517 36.5402 234.95C37.5736 234.367 38.7569 234.075 40.0902 234.075C41.3902 234.075 42.5402 234.358 43.5402 234.925C44.5402 235.492 45.3069 236.275 45.8402 237.275C46.3902 238.258 46.6652 239.375 46.6652 240.625ZM44.3152 240.15C44.3152 239.283 44.1236 238.542 43.7402 237.925C43.3569 237.292 42.8319 236.817 42.1652 236.5C41.5152 236.167 40.7902 236 39.9902 236C38.8402 236 37.8569 236.367 37.0402 237.1C36.2402 237.833 35.7819 238.85 35.6652 240.15H44.3152ZM62.1682 240.625C62.1682 241.058 62.1432 241.517 62.0932 242H51.1432C51.2265 243.35 51.6848 244.408 52.5182 245.175C53.3682 245.925 54.3932 246.3 55.5932 246.3C56.5765 246.3 57.3932 246.075 58.0432 245.625C58.7098 245.158 59.1765 244.542 59.4432 243.775H61.8932C61.5265 245.092 60.7932 246.167 59.6932 247C58.5932 247.817 57.2265 248.225 55.5932 248.225C54.2932 248.225 53.1265 247.933 52.0932 247.35C51.0765 246.767 50.2765 245.942 49.6932 244.875C49.1098 243.792 48.8182 242.542 48.8182 241.125C48.8182 239.708 49.1015 238.467 49.6682 237.4C50.2348 236.333 51.0265 235.517 52.0432 234.95C53.0765 234.367 54.2598 234.075 55.5932 234.075C56.8932 234.075 58.0432 234.358 59.0432 234.925C60.0432 235.492 60.8098 236.275 61.3432 237.275C61.8932 238.258 62.1682 239.375 62.1682 240.625ZM59.8182 240.15C59.8182 239.283 59.6265 238.542 59.2432 237.925C58.8598 237.292 58.3348 236.817 57.6682 236.5C57.0182 236.167 56.2932 236 55.4932 236C54.3432 236 53.3598 236.367 52.5432 237.1C51.7432 237.833 51.2848 238.85 51.1682 240.15H59.8182ZM71.8461 234.05C73.5128 234.05 74.8628 234.558 75.8961 235.575C76.9294 236.575 77.4461 238.025 77.4461 239.925V248H75.1961V240.25C75.1961 238.883 74.8544 237.842 74.1711 237.125C73.4878 236.392 72.5544 236.025 71.3711 236.025C70.1711 236.025 69.2128 236.4 68.4961 237.15C67.7961 237.9 67.4461 238.992 67.4461 240.425V248H65.1711V234.3H67.4461V236.25C67.8961 235.55 68.5044 235.008 69.2711 234.625C70.0544 234.242 70.9128 234.05 71.8461 234.05ZM93.3523 248.175C92.2023 248.175 91.169 247.975 90.2523 247.575C89.3523 247.158 88.644 246.592 88.1273 245.875C87.6107 245.142 87.344 244.3 87.3273 243.35H89.7523C89.8357 244.167 90.169 244.858 90.7523 245.425C91.3523 245.975 92.219 246.25 93.3523 246.25C94.4357 246.25 95.2857 245.983 95.9023 245.45C96.5357 244.9 96.8523 244.2 96.8523 243.35C96.8523 242.683 96.669 242.142 96.3023 241.725C95.9357 241.308 95.4773 240.992 94.9273 240.775C94.3773 240.558 93.6357 240.325 92.7023 240.075C91.5523 239.775 90.6273 239.475 89.9273 239.175C89.244 238.875 88.6523 238.408 88.1523 237.775C87.669 237.125 87.4273 236.258 87.4273 235.175C87.4273 234.225 87.669 233.383 88.1523 232.65C88.6357 231.917 89.3107 231.35 90.1773 230.95C91.0607 230.55 92.069 230.35 93.2023 230.35C94.8357 230.35 96.169 230.758 97.2023 231.575C98.2523 232.392 98.844 233.475 98.9773 234.825H96.4773C96.394 234.158 96.044 233.575 95.4273 233.075C94.8107 232.558 93.994 232.3 92.9773 232.3C92.0273 232.3 91.2523 232.55 90.6523 233.05C90.0523 233.533 89.7523 234.217 89.7523 235.1C89.7523 235.733 89.9273 236.25 90.2773 236.65C90.644 237.05 91.0857 237.358 91.6023 237.575C92.1357 237.775 92.8773 238.008 93.8273 238.275C94.9773 238.592 95.9023 238.908 96.6023 239.225C97.3023 239.525 97.9023 240 98.4023 240.65C98.9023 241.283 99.1523 242.15 99.1523 243.25C99.1523 244.1 98.9273 244.9 98.4773 245.65C98.0273 246.4 97.3607 247.008 96.4773 247.475C95.594 247.942 94.5523 248.175 93.3523 248.175ZM104.775 236.825C105.225 236.042 105.892 235.392 106.775 234.875C107.675 234.342 108.717 234.075 109.9 234.075C111.117 234.075 112.217 234.367 113.2 234.95C114.2 235.533 114.984 236.358 115.55 237.425C116.117 238.475 116.4 239.7 116.4 241.1C116.4 242.483 116.117 243.717 115.55 244.8C114.984 245.883 114.2 246.725 113.2 247.325C112.217 247.925 111.117 248.225 109.9 248.225C108.734 248.225 107.7 247.967 106.8 247.45C105.917 246.917 105.242 246.258 104.775 245.475V254.5H102.5V234.3H104.775V236.825ZM114.075 241.1C114.075 240.067 113.867 239.167 113.45 238.4C113.034 237.633 112.467 237.05 111.75 236.65C111.05 236.25 110.275 236.05 109.425 236.05C108.592 236.05 107.817 236.258 107.1 236.675C106.4 237.075 105.834 237.667 105.4 238.45C104.984 239.217 104.775 240.108 104.775 241.125C104.775 242.158 104.984 243.067 105.4 243.85C105.834 244.617 106.4 245.208 107.1 245.625C107.817 246.025 108.592 246.225 109.425 246.225C110.275 246.225 111.05 246.025 111.75 245.625C112.467 245.208 113.034 244.617 113.45 243.85C113.867 243.067 114.075 242.15 114.075 241.1ZM131.895 240.625C131.895 241.058 131.87 241.517 131.82 242H120.87C120.953 243.35 121.411 244.408 122.245 245.175C123.095 245.925 124.12 246.3 125.32 246.3C126.303 246.3 127.12 246.075 127.77 245.625C128.436 245.158 128.903 244.542 129.17 243.775H131.62C131.253 245.092 130.52 246.167 129.42 247C128.32 247.817 126.953 248.225 125.32 248.225C124.02 248.225 122.853 247.933 121.82 247.35C120.803 246.767 120.003 245.942 119.42 244.875C118.836 243.792 118.545 242.542 118.545 241.125C118.545 239.708 118.828 238.467 119.395 237.4C119.961 236.333 120.753 235.517 121.77 234.95C122.803 234.367 123.986 234.075 125.32 234.075C126.62 234.075 127.77 234.358 128.77 234.925C129.77 235.492 130.536 236.275 131.07 237.275C131.62 238.258 131.895 239.375 131.895 240.625ZM129.545 240.15C129.545 239.283 129.353 238.542 128.97 237.925C128.586 237.292 128.061 236.817 127.395 236.5C126.745 236.167 126.02 236 125.22 236C124.07 236 123.086 236.367 122.27 237.1C121.47 237.833 121.011 238.85 120.895 240.15H129.545ZM134.048 241.125C134.048 239.708 134.331 238.475 134.898 237.425C135.464 236.358 136.248 235.533 137.248 234.95C138.264 234.367 139.423 234.075 140.723 234.075C142.406 234.075 143.789 234.483 144.873 235.3C145.973 236.117 146.698 237.25 147.048 238.7H144.598C144.364 237.867 143.906 237.208 143.223 236.725C142.556 236.242 141.723 236 140.723 236C139.423 236 138.373 236.45 137.573 237.35C136.773 238.233 136.373 239.492 136.373 241.125C136.373 242.775 136.773 244.05 137.573 244.95C138.373 245.85 139.423 246.3 140.723 246.3C141.723 246.3 142.556 246.067 143.223 245.6C143.889 245.133 144.348 244.467 144.598 243.6H147.048C146.681 245 145.948 246.125 144.848 246.975C143.748 247.808 142.373 248.225 140.723 248.225C139.423 248.225 138.264 247.933 137.248 247.35C136.248 246.767 135.464 245.942 134.898 244.875C134.331 243.808 134.048 242.558 134.048 241.125ZM152.858 236.175V244.25C152.858 244.917 153 245.392 153.283 245.675C153.567 245.942 154.058 246.075 154.758 246.075H156.433V248H154.383C153.117 248 152.167 247.708 151.533 247.125C150.9 246.542 150.583 245.583 150.583 244.25V236.175H148.808V234.3H150.583V230.85H152.858V234.3H156.433V236.175H152.858ZM161.465 236.525C161.865 235.742 162.431 235.133 163.165 234.7C163.915 234.267 164.823 234.05 165.89 234.05V236.4H165.29C162.74 236.4 161.465 237.783 161.465 240.55V248H159.19V234.3H161.465V236.525ZM180.666 234.3V248H178.391V245.975C177.957 246.675 177.349 247.225 176.566 247.625C175.799 248.008 174.949 248.2 174.016 248.2C172.949 248.2 171.991 247.983 171.141 247.55C170.291 247.1 169.616 246.433 169.116 245.55C168.632 244.667 168.391 243.592 168.391 242.325V234.3H170.641V242.025C170.641 243.375 170.982 244.417 171.666 245.15C172.349 245.867 173.282 246.225 174.466 246.225C175.682 246.225 176.641 245.85 177.341 245.1C178.041 244.35 178.391 243.258 178.391 241.825V234.3H180.666ZM200.982 234.05C202.049 234.05 202.999 234.275 203.832 234.725C204.665 235.158 205.324 235.817 205.807 236.7C206.29 237.583 206.532 238.658 206.532 239.925V248H204.282V240.25C204.282 238.883 203.94 237.842 203.257 237.125C202.59 236.392 201.682 236.025 200.532 236.025C199.349 236.025 198.407 236.408 197.707 237.175C197.007 237.925 196.657 239.017 196.657 240.45V248H194.407V240.25C194.407 238.883 194.065 237.842 193.382 237.125C192.715 236.392 191.807 236.025 190.657 236.025C189.474 236.025 188.532 236.408 187.832 237.175C187.132 237.925 186.782 239.017 186.782 240.45V248H184.507V234.3H186.782V236.275C187.232 235.558 187.832 235.008 188.582 234.625C189.349 234.242 190.19 234.05 191.107 234.05C192.257 234.05 193.274 234.308 194.157 234.825C195.04 235.342 195.699 236.1 196.132 237.1C196.515 236.133 197.149 235.383 198.032 234.85C198.915 234.317 199.899 234.05 200.982 234.05ZM219.204 236.825C219.654 236.042 220.321 235.392 221.204 234.875C222.104 234.342 223.146 234.075 224.329 234.075C225.546 234.075 226.646 234.367 227.629 234.95C228.629 235.533 229.412 236.358 229.979 237.425C230.546 238.475 230.829 239.7 230.829 241.1C230.829 242.483 230.546 243.717 229.979 244.8C229.412 245.883 228.629 246.725 227.629 247.325C226.646 247.925 225.546 248.225 224.329 248.225C223.162 248.225 222.129 247.967 221.229 247.45C220.346 246.917 219.671 246.258 219.204 245.475V254.5H216.929V234.3H219.204V236.825ZM228.504 241.1C228.504 240.067 228.296 239.167 227.879 238.4C227.462 237.633 226.896 237.05 226.179 236.65C225.479 236.25 224.704 236.05 223.854 236.05C223.021 236.05 222.246 236.258 221.529 236.675C220.829 237.075 220.262 237.667 219.829 238.45C219.412 239.217 219.204 240.108 219.204 241.125C219.204 242.158 219.412 243.067 219.829 243.85C220.262 244.617 220.829 245.208 221.529 245.625C222.246 246.025 223.021 246.225 223.854 246.225C224.704 246.225 225.479 246.025 226.179 245.625C226.896 245.208 227.462 244.617 227.879 243.85C228.296 243.067 228.504 242.15 228.504 241.1ZM239.798 248.225C238.515 248.225 237.348 247.933 236.298 247.35C235.265 246.767 234.448 245.942 233.848 244.875C233.265 243.792 232.973 242.542 232.973 241.125C232.973 239.725 233.273 238.492 233.873 237.425C234.49 236.342 235.323 235.517 236.373 234.95C237.423 234.367 238.598 234.075 239.898 234.075C241.198 234.075 242.373 234.367 243.423 234.95C244.473 235.517 245.298 236.333 245.898 237.4C246.515 238.467 246.823 239.708 246.823 241.125C246.823 242.542 246.507 243.792 245.873 244.875C245.257 245.942 244.415 246.767 243.348 247.35C242.282 247.933 241.098 248.225 239.798 248.225ZM239.798 246.225C240.615 246.225 241.382 246.033 242.098 245.65C242.815 245.267 243.39 244.692 243.823 243.925C244.273 243.158 244.498 242.225 244.498 241.125C244.498 240.025 244.282 239.092 243.848 238.325C243.415 237.558 242.848 236.992 242.148 236.625C241.448 236.242 240.69 236.05 239.873 236.05C239.04 236.05 238.273 236.242 237.573 236.625C236.89 236.992 236.34 237.558 235.923 238.325C235.507 239.092 235.298 240.025 235.298 241.125C235.298 242.242 235.498 243.183 235.898 243.95C236.315 244.717 236.865 245.292 237.548 245.675C238.232 246.042 238.982 246.225 239.798 246.225ZM268.065 234.3L263.79 248H261.44L258.14 237.125L254.84 248H252.49L248.19 234.3H250.515L253.665 245.8L257.065 234.3H259.39L262.715 245.825L265.815 234.3H268.065ZM269.472 241.1C269.472 239.7 269.756 238.475 270.322 237.425C270.889 236.358 271.664 235.533 272.647 234.95C273.647 234.367 274.764 234.075 275.997 234.075C277.064 234.075 278.056 234.325 278.972 234.825C279.889 235.308 280.589 235.95 281.072 236.75V229.5H283.372V248H281.072V245.425C280.622 246.242 279.956 246.917 279.072 247.45C278.189 247.967 277.156 248.225 275.972 248.225C274.756 248.225 273.647 247.925 272.647 247.325C271.664 246.725 270.889 245.883 270.322 244.8C269.756 243.717 269.472 242.483 269.472 241.1ZM281.072 241.125C281.072 240.092 280.864 239.192 280.447 238.425C280.031 237.658 279.464 237.075 278.747 236.675C278.047 236.258 277.272 236.05 276.422 236.05C275.572 236.05 274.797 236.25 274.097 236.65C273.397 237.05 272.839 237.633 272.422 238.4C272.006 239.167 271.797 240.067 271.797 241.1C271.797 242.15 272.006 243.067 272.422 243.85C272.839 244.617 273.397 245.208 274.097 245.625C274.797 246.025 275.572 246.225 276.422 246.225C277.272 246.225 278.047 246.025 278.747 245.625C279.464 245.208 280.031 244.617 280.447 243.85C280.864 243.067 281.072 242.158 281.072 241.125ZM299.717 240.625C299.717 241.058 299.692 241.517 299.642 242H288.692C288.775 243.35 289.234 244.408 290.067 245.175C290.917 245.925 291.942 246.3 293.142 246.3C294.125 246.3 294.942 246.075 295.592 245.625C296.259 245.158 296.725 244.542 296.992 243.775H299.442C299.075 245.092 298.342 246.167 297.242 247C296.142 247.817 294.775 248.225 293.142 248.225C291.842 248.225 290.675 247.933 289.642 247.35C288.625 246.767 287.825 245.942 287.242 244.875C286.659 243.792 286.367 242.542 286.367 241.125C286.367 239.708 286.65 238.467 287.217 237.4C287.784 236.333 288.575 235.517 289.592 234.95C290.625 234.367 291.809 234.075 293.142 234.075C294.442 234.075 295.592 234.358 296.592 234.925C297.592 235.492 298.359 236.275 298.892 237.275C299.442 238.258 299.717 239.375 299.717 240.625ZM297.367 240.15C297.367 239.283 297.175 238.542 296.792 237.925C296.409 237.292 295.884 236.817 295.217 236.5C294.567 236.167 293.842 236 293.042 236C291.892 236 290.909 236.367 290.092 237.1C289.292 237.833 288.834 238.85 288.717 240.15H297.367ZM304.995 236.525C305.395 235.742 305.962 235.133 306.695 234.7C307.445 234.267 308.353 234.05 309.42 234.05V236.4H308.82C306.27 236.4 304.995 237.783 304.995 240.55V248H302.72V234.3H304.995V236.525ZM336.961 234.3L332.686 248H330.336L327.036 237.125L323.736 248H321.386L317.086 234.3H319.411L322.561 245.8L325.961 234.3H328.286L331.611 245.825L334.711 234.3H336.961ZM340.394 232.075C339.961 232.075 339.594 231.925 339.294 231.625C338.994 231.325 338.844 230.958 338.844 230.525C338.844 230.092 338.994 229.725 339.294 229.425C339.594 229.125 339.961 228.975 340.394 228.975C340.811 228.975 341.161 229.125 341.444 229.425C341.744 229.725 341.894 230.092 341.894 230.525C341.894 230.958 341.744 231.325 341.444 231.625C341.161 231.925 340.811 232.075 340.394 232.075ZM341.494 234.3V248H339.219V234.3H341.494ZM348.146 236.175V244.25C348.146 244.917 348.288 245.392 348.571 245.675C348.855 245.942 349.346 246.075 350.046 246.075H351.721V248H349.671C348.405 248 347.455 247.708 346.821 247.125C346.188 246.542 345.871 245.583 345.871 244.25V236.175H344.096V234.3H345.871V230.85H348.146V234.3H351.721V236.175H348.146ZM361.278 234.05C362.311 234.05 363.244 234.275 364.078 234.725C364.911 235.158 365.561 235.817 366.028 236.7C366.511 237.583 366.753 238.658 366.753 239.925V248H364.503V240.25C364.503 238.883 364.161 237.842 363.478 237.125C362.794 236.392 361.861 236.025 360.678 236.025C359.478 236.025 358.519 236.4 357.803 237.15C357.103 237.9 356.753 238.992 356.753 240.425V248H354.478V229.5H356.753V236.25C357.203 235.55 357.819 235.008 358.603 234.625C359.403 234.242 360.294 234.05 361.278 234.05ZM21.9589 272.05C22.9922 272.05 23.9256 272.275 24.7589 272.725C25.5922 273.158 26.2422 273.817 26.7089 274.7C27.1922 275.583 27.4339 276.658 27.4339 277.925V286H25.1839V278.25C25.1839 276.883 24.8422 275.842 24.1589 275.125C23.4756 274.392 22.5422 274.025 21.3589 274.025C20.1589 274.025 19.2006 274.4 18.4839 275.15C17.7839 275.9 17.4339 276.992 17.4339 278.425V286H15.1589V267.5H17.4339V274.25C17.8839 273.55 18.5006 273.008 19.2839 272.625C20.0839 272.242 20.9756 272.05 21.9589 272.05ZM30.3001 279.1C30.3001 277.7 30.5834 276.475 31.1501 275.425C31.7168 274.358 32.4918 273.533 33.4751 272.95C34.4751 272.367 35.5834 272.075 36.8001 272.075C38.0001 272.075 39.0418 272.333 39.9251 272.85C40.8084 273.367 41.4668 274.017 41.9001 274.8V272.3H44.2001V286H41.9001V283.45C41.4501 284.25 40.7751 284.917 39.8751 285.45C38.9918 285.967 37.9584 286.225 36.7751 286.225C35.5584 286.225 34.4584 285.925 33.4751 285.325C32.4918 284.725 31.7168 283.883 31.1501 282.8C30.5834 281.717 30.3001 280.483 30.3001 279.1ZM41.9001 279.125C41.9001 278.092 41.6918 277.192 41.2751 276.425C40.8584 275.658 40.2918 275.075 39.5751 274.675C38.8751 274.258 38.1001 274.05 37.2501 274.05C36.4001 274.05 35.6251 274.25 34.9251 274.65C34.2251 275.05 33.6668 275.633 33.2501 276.4C32.8334 277.167 32.6251 278.067 32.6251 279.1C32.6251 280.15 32.8334 281.067 33.2501 281.85C33.6668 282.617 34.2251 283.208 34.9251 283.625C35.6251 284.025 36.4001 284.225 37.2501 284.225C38.1001 284.225 38.8751 284.025 39.5751 283.625C40.2918 283.208 40.8584 282.617 41.2751 281.85C41.6918 281.067 41.9001 280.158 41.9001 279.125ZM50.3196 267.5V286H48.0446V267.5H50.3196ZM59.772 274.175H56.897V286H54.622V274.175H52.847V272.3H54.622V271.325C54.622 269.792 55.0136 268.675 55.797 267.975C56.597 267.258 57.872 266.9 59.622 266.9V268.8C58.622 268.8 57.9136 269 57.497 269.4C57.097 269.783 56.897 270.425 56.897 271.325V272.3H59.772V274.175ZM68.2396 279.1C68.2396 277.7 68.5229 276.475 69.0896 275.425C69.6562 274.358 70.4312 273.533 71.4146 272.95C72.4146 272.367 73.5229 272.075 74.7396 272.075C75.9396 272.075 76.9812 272.333 77.8646 272.85C78.7479 273.367 79.4062 274.017 79.8396 274.8V272.3H82.1396V286H79.8396V283.45C79.3896 284.25 78.7146 284.917 77.8146 285.45C76.9312 285.967 75.8979 286.225 74.7146 286.225C73.4979 286.225 72.3979 285.925 71.4146 285.325C70.4312 284.725 69.6562 283.883 69.0896 282.8C68.5229 281.717 68.2396 280.483 68.2396 279.1ZM79.8396 279.125C79.8396 278.092 79.6312 277.192 79.2146 276.425C78.7979 275.658 78.2312 275.075 77.5146 274.675C76.8146 274.258 76.0396 274.05 75.1896 274.05C74.3396 274.05 73.5646 274.25 72.8646 274.65C72.1646 275.05 71.6062 275.633 71.1896 276.4C70.7729 277.167 70.5646 278.067 70.5646 279.1C70.5646 280.15 70.7729 281.067 71.1896 281.85C71.6062 282.617 72.1646 283.208 72.8646 283.625C73.5646 284.025 74.3396 284.225 75.1896 284.225C76.0396 284.225 76.8146 284.025 77.5146 283.625C78.2312 283.208 78.7979 282.617 79.2146 281.85C79.6312 281.067 79.8396 280.158 79.8396 279.125ZM97.4991 286.225C96.4491 286.225 95.5075 286.05 94.6741 285.7C93.8408 285.333 93.1825 284.833 92.6991 284.2C92.2158 283.55 91.9491 282.808 91.8991 281.975H94.2491C94.3158 282.658 94.6325 283.217 95.1991 283.65C95.7825 284.083 96.5408 284.3 97.4741 284.3C98.3408 284.3 99.0241 284.108 99.5241 283.725C100.024 283.342 100.274 282.858 100.274 282.275C100.274 281.675 100.007 281.233 99.4741 280.95C98.9408 280.65 98.1158 280.358 96.9991 280.075C95.9825 279.808 95.1491 279.542 94.4991 279.275C93.8658 278.992 93.3158 278.583 92.8491 278.05C92.3991 277.5 92.1741 276.783 92.1741 275.9C92.1741 275.2 92.3825 274.558 92.7991 273.975C93.2158 273.392 93.8075 272.933 94.5741 272.6C95.3408 272.25 96.2158 272.075 97.1991 272.075C98.7158 272.075 99.9408 272.458 100.874 273.225C101.807 273.992 102.307 275.042 102.374 276.375H100.099C100.049 275.658 99.7575 275.083 99.2241 274.65C98.7075 274.217 98.0075 274 97.1241 274C96.3075 274 95.6575 274.175 95.1741 274.525C94.6908 274.875 94.4491 275.333 94.4491 275.9C94.4491 276.35 94.5908 276.725 94.8741 277.025C95.1741 277.308 95.5408 277.542 95.9741 277.725C96.4241 277.892 97.0408 278.083 97.8241 278.3C98.8075 278.567 99.6075 278.833 100.224 279.1C100.841 279.35 101.366 279.733 101.799 280.25C102.249 280.767 102.482 281.442 102.499 282.275C102.499 283.025 102.291 283.7 101.874 284.3C101.457 284.9 100.866 285.375 100.099 285.725C99.3491 286.058 98.4825 286.225 97.4991 286.225ZM118.211 278.625C118.211 279.058 118.186 279.517 118.136 280H107.186C107.269 281.35 107.727 282.408 108.561 283.175C109.411 283.925 110.436 284.3 111.636 284.3C112.619 284.3 113.436 284.075 114.086 283.625C114.752 283.158 115.219 282.542 115.486 281.775H117.936C117.569 283.092 116.836 284.167 115.736 285C114.636 285.817 113.269 286.225 111.636 286.225C110.336 286.225 109.169 285.933 108.136 285.35C107.119 284.767 106.319 283.942 105.736 282.875C105.152 281.792 104.861 280.542 104.861 279.125C104.861 277.708 105.144 276.467 105.711 275.4C106.277 274.333 107.069 273.517 108.086 272.95C109.119 272.367 110.302 272.075 111.636 272.075C112.936 272.075 114.086 272.358 115.086 272.925C116.086 273.492 116.852 274.275 117.386 275.275C117.936 276.258 118.211 277.375 118.211 278.625ZM115.861 278.15C115.861 277.283 115.669 276.542 115.286 275.925C114.902 275.292 114.377 274.817 113.711 274.5C113.061 274.167 112.336 274 111.536 274C110.386 274 109.402 274.367 108.586 275.1C107.786 275.833 107.327 276.85 107.211 278.15H115.861ZM123.489 274.525C123.889 273.742 124.455 273.133 125.189 272.7C125.939 272.267 126.847 272.05 127.914 272.05V274.4H127.314C124.764 274.4 123.489 275.783 123.489 278.55V286H121.214V272.3H123.489V274.525ZM135.64 283.9L139.89 272.3H142.315L136.94 286H134.29L128.915 272.3H131.365L135.64 283.9ZM145.728 270.075C145.295 270.075 144.928 269.925 144.628 269.625C144.328 269.325 144.178 268.958 144.178 268.525C144.178 268.092 144.328 267.725 144.628 267.425C144.928 267.125 145.295 266.975 145.728 266.975C146.145 266.975 146.495 267.125 146.778 267.425C147.078 267.725 147.228 268.092 147.228 268.525C147.228 268.958 147.078 269.325 146.778 269.625C146.495 269.925 146.145 270.075 145.728 270.075ZM146.828 272.3V286H144.553V272.3H146.828ZM157.381 272.05C159.047 272.05 160.397 272.558 161.431 273.575C162.464 274.575 162.981 276.025 162.981 277.925V286H160.731V278.25C160.731 276.883 160.389 275.842 159.706 275.125C159.022 274.392 158.089 274.025 156.906 274.025C155.706 274.025 154.747 274.4 154.031 275.15C153.331 275.9 152.981 276.992 152.981 278.425V286H150.706V272.3H152.981V274.25C153.431 273.55 154.039 273.008 154.806 272.625C155.589 272.242 156.447 272.05 157.381 272.05ZM172.347 272.075C173.53 272.075 174.564 272.333 175.447 272.85C176.347 273.367 177.014 274.017 177.447 274.8V272.3H179.747V286.3C179.747 287.55 179.48 288.658 178.947 289.625C178.414 290.608 177.647 291.375 176.647 291.925C175.664 292.475 174.514 292.75 173.197 292.75C171.397 292.75 169.897 292.325 168.697 291.475C167.497 290.625 166.789 289.467 166.572 288H168.822C169.072 288.833 169.589 289.5 170.372 290C171.155 290.517 172.097 290.775 173.197 290.775C174.447 290.775 175.464 290.383 176.247 289.6C177.047 288.817 177.447 287.717 177.447 286.3V283.425C176.997 284.225 176.33 284.892 175.447 285.425C174.564 285.958 173.53 286.225 172.347 286.225C171.13 286.225 170.022 285.925 169.022 285.325C168.039 284.725 167.264 283.883 166.697 282.8C166.13 281.717 165.847 280.483 165.847 279.1C165.847 277.7 166.13 276.475 166.697 275.425C167.264 274.358 168.039 273.533 169.022 272.95C170.022 272.367 171.13 272.075 172.347 272.075ZM177.447 279.125C177.447 278.092 177.239 277.192 176.822 276.425C176.405 275.658 175.839 275.075 175.122 274.675C174.422 274.258 173.647 274.05 172.797 274.05C171.947 274.05 171.172 274.25 170.472 274.65C169.772 275.05 169.214 275.633 168.797 276.4C168.38 277.167 168.172 278.067 168.172 279.1C168.172 280.15 168.38 281.067 168.797 281.85C169.214 282.617 169.772 283.208 170.472 283.625C171.172 284.025 171.947 284.225 172.797 284.225C173.647 284.225 174.422 284.025 175.122 283.625C175.839 283.208 176.405 282.617 176.822 281.85C177.239 281.067 177.447 280.158 177.447 279.125ZM196.232 286.225C194.948 286.225 193.782 285.933 192.732 285.35C191.698 284.767 190.882 283.942 190.282 282.875C189.698 281.792 189.407 280.542 189.407 279.125C189.407 277.725 189.707 276.492 190.307 275.425C190.923 274.342 191.757 273.517 192.807 272.95C193.857 272.367 195.032 272.075 196.332 272.075C197.632 272.075 198.807 272.367 199.857 272.95C200.907 273.517 201.732 274.333 202.332 275.4C202.948 276.467 203.257 277.708 203.257 279.125C203.257 280.542 202.94 281.792 202.307 282.875C201.69 283.942 200.848 284.767 199.782 285.35C198.715 285.933 197.532 286.225 196.232 286.225ZM196.232 284.225C197.048 284.225 197.815 284.033 198.532 283.65C199.248 283.267 199.823 282.692 200.257 281.925C200.707 281.158 200.932 280.225 200.932 279.125C200.932 278.025 200.715 277.092 200.282 276.325C199.848 275.558 199.282 274.992 198.582 274.625C197.882 274.242 197.123 274.05 196.307 274.05C195.473 274.05 194.707 274.242 194.007 274.625C193.323 274.992 192.773 275.558 192.357 276.325C191.94 277.092 191.732 278.025 191.732 279.125C191.732 280.242 191.932 281.183 192.332 281.95C192.748 282.717 193.298 283.292 193.982 283.675C194.665 284.042 195.415 284.225 196.232 284.225ZM211.823 274.175H208.948V286H206.673V274.175H204.898V272.3H206.673V271.325C206.673 269.792 207.064 268.675 207.848 267.975C208.648 267.258 209.923 266.9 211.673 266.9V268.8C210.673 268.8 209.964 269 209.548 269.4C209.148 269.783 208.948 270.425 208.948 271.325V272.3H211.823V274.175ZM231.44 282.125H223.84L222.44 286H220.04L226.34 268.675H228.965L235.24 286H232.84L231.44 282.125ZM230.79 280.275L227.64 271.475L224.49 280.275H230.79ZM240.261 267.5V286H237.986V267.5H240.261ZM250.113 286.225C248.83 286.225 247.663 285.933 246.613 285.35C245.58 284.767 244.763 283.942 244.163 282.875C243.58 281.792 243.288 280.542 243.288 279.125C243.288 277.725 243.588 276.492 244.188 275.425C244.805 274.342 245.638 273.517 246.688 272.95C247.738 272.367 248.913 272.075 250.213 272.075C251.513 272.075 252.688 272.367 253.738 272.95C254.788 273.517 255.613 274.333 256.213 275.4C256.83 276.467 257.138 277.708 257.138 279.125C257.138 280.542 256.822 281.792 256.188 282.875C255.572 283.942 254.73 284.767 253.663 285.35C252.597 285.933 251.413 286.225 250.113 286.225ZM250.113 284.225C250.93 284.225 251.697 284.033 252.413 283.65C253.13 283.267 253.705 282.692 254.138 281.925C254.588 281.158 254.813 280.225 254.813 279.125C254.813 278.025 254.597 277.092 254.163 276.325C253.73 275.558 253.163 274.992 252.463 274.625C251.763 274.242 251.005 274.05 250.188 274.05C249.355 274.05 248.588 274.242 247.888 274.625C247.205 274.992 246.655 275.558 246.238 276.325C245.822 277.092 245.613 278.025 245.613 279.125C245.613 280.242 245.813 281.183 246.213 281.95C246.63 282.717 247.18 283.292 247.863 283.675C248.547 284.042 249.297 284.225 250.113 284.225ZM272.63 278.625C272.63 279.058 272.605 279.517 272.555 280H261.605C261.688 281.35 262.146 282.408 262.98 283.175C263.83 283.925 264.855 284.3 266.055 284.3C267.038 284.3 267.855 284.075 268.505 283.625C269.171 283.158 269.638 282.542 269.905 281.775H272.355C271.988 283.092 271.255 284.167 270.155 285C269.055 285.817 267.688 286.225 266.055 286.225C264.755 286.225 263.588 285.933 262.555 285.35C261.538 284.767 260.738 283.942 260.155 282.875C259.571 281.792 259.28 280.542 259.28 279.125C259.28 277.708 259.563 276.467 260.13 275.4C260.696 274.333 261.488 273.517 262.505 272.95C263.538 272.367 264.721 272.075 266.055 272.075C267.355 272.075 268.505 272.358 269.505 272.925C270.505 273.492 271.271 274.275 271.805 275.275C272.355 276.258 272.63 277.375 272.63 278.625ZM270.28 278.15C270.28 277.283 270.088 276.542 269.705 275.925C269.321 275.292 268.796 274.817 268.13 274.5C267.48 274.167 266.755 274 265.955 274C264.805 274 263.821 274.367 263.005 275.1C262.205 275.833 261.746 276.85 261.63 278.15H270.28ZM287.723 268.575C289.623 268.575 291.264 268.933 292.648 269.65C294.048 270.35 295.114 271.358 295.848 272.675C296.598 273.992 296.973 275.542 296.973 277.325C296.973 279.108 296.598 280.658 295.848 281.975C295.114 283.275 294.048 284.275 292.648 284.975C291.264 285.658 289.623 286 287.723 286H282.298V268.575H287.723ZM287.723 284.125C289.973 284.125 291.689 283.533 292.873 282.35C294.056 281.15 294.648 279.475 294.648 277.325C294.648 275.158 294.048 273.467 292.848 272.25C291.664 271.033 289.956 270.425 287.723 270.425H284.573V284.125H287.723ZM301.148 270.075C300.715 270.075 300.348 269.925 300.048 269.625C299.748 269.325 299.598 268.958 299.598 268.525C299.598 268.092 299.748 267.725 300.048 267.425C300.348 267.125 300.715 266.975 301.148 266.975C301.565 266.975 301.915 267.125 302.198 267.425C302.498 267.725 302.648 268.092 302.648 268.525C302.648 268.958 302.498 269.325 302.198 269.625C301.915 269.925 301.565 270.075 301.148 270.075ZM302.248 272.3V286H299.973V272.3H302.248ZM311.776 272.075C312.959 272.075 313.992 272.333 314.876 272.85C315.776 273.367 316.442 274.017 316.876 274.8V272.3H319.176V286.3C319.176 287.55 318.909 288.658 318.376 289.625C317.842 290.608 317.076 291.375 316.076 291.925C315.092 292.475 313.942 292.75 312.626 292.75C310.826 292.75 309.326 292.325 308.126 291.475C306.926 290.625 306.217 289.467 306.001 288H308.251C308.501 288.833 309.017 289.5 309.801 290C310.584 290.517 311.526 290.775 312.626 290.775C313.876 290.775 314.892 290.383 315.676 289.6C316.476 288.817 316.876 287.717 316.876 286.3V283.425C316.426 284.225 315.759 284.892 314.876 285.425C313.992 285.958 312.959 286.225 311.776 286.225C310.559 286.225 309.451 285.925 308.451 285.325C307.467 284.725 306.692 283.883 306.126 282.8C305.559 281.717 305.276 280.483 305.276 279.1C305.276 277.7 305.559 276.475 306.126 275.425C306.692 274.358 307.467 273.533 308.451 272.95C309.451 272.367 310.559 272.075 311.776 272.075ZM316.876 279.125C316.876 278.092 316.667 277.192 316.251 276.425C315.834 275.658 315.267 275.075 314.551 274.675C313.851 274.258 313.076 274.05 312.226 274.05C311.376 274.05 310.601 274.25 309.901 274.65C309.201 275.05 308.642 275.633 308.226 276.4C307.809 277.167 307.601 278.067 307.601 279.1C307.601 280.15 307.809 281.067 308.226 281.85C308.642 282.617 309.201 283.208 309.901 283.625C310.601 284.025 311.376 284.225 312.226 284.225C313.076 284.225 313.851 284.025 314.551 283.625C315.267 283.208 315.834 282.617 316.251 281.85C316.667 281.067 316.876 280.158 316.876 279.125ZM335.52 278.625C335.52 279.058 335.495 279.517 335.445 280H324.495C324.579 281.35 325.037 282.408 325.87 283.175C326.72 283.925 327.745 284.3 328.945 284.3C329.929 284.3 330.745 284.075 331.395 283.625C332.062 283.158 332.529 282.542 332.795 281.775H335.245C334.879 283.092 334.145 284.167 333.045 285C331.945 285.817 330.579 286.225 328.945 286.225C327.645 286.225 326.479 285.933 325.445 285.35C324.429 284.767 323.629 283.942 323.045 282.875C322.462 281.792 322.17 280.542 322.17 279.125C322.17 277.708 322.454 276.467 323.02 275.4C323.587 274.333 324.379 273.517 325.395 272.95C326.429 272.367 327.612 272.075 328.945 272.075C330.245 272.075 331.395 272.358 332.395 272.925C333.395 273.492 334.162 274.275 334.695 275.275C335.245 276.258 335.52 277.375 335.52 278.625ZM333.17 278.15C333.17 277.283 332.979 276.542 332.595 275.925C332.212 275.292 331.687 274.817 331.02 274.5C330.37 274.167 329.645 274 328.845 274C327.695 274 326.712 274.367 325.895 275.1C325.095 275.833 324.637 276.85 324.52 278.15H333.17ZM343.373 286.225C342.323 286.225 341.381 286.05 340.548 285.7C339.715 285.333 339.056 284.833 338.573 284.2C338.09 283.55 337.823 282.808 337.773 281.975H340.123C340.19 282.658 340.506 283.217 341.073 283.65C341.656 284.083 342.415 284.3 343.348 284.3C344.215 284.3 344.898 284.108 345.398 283.725C345.898 283.342 346.148 282.858 346.148 282.275C346.148 281.675 345.881 281.233 345.348 280.95C344.815 280.65 343.99 280.358 342.873 280.075C341.856 279.808 341.023 279.542 340.373 279.275C339.74 278.992 339.19 278.583 338.723 278.05C338.273 277.5 338.048 276.783 338.048 275.9C338.048 275.2 338.256 274.558 338.673 273.975C339.09 273.392 339.681 272.933 340.448 272.6C341.215 272.25 342.09 272.075 343.073 272.075C344.59 272.075 345.815 272.458 346.748 273.225C347.681 273.992 348.181 275.042 348.248 276.375H345.973C345.923 275.658 345.631 275.083 345.098 274.65C344.581 274.217 343.881 274 342.998 274C342.181 274 341.531 274.175 341.048 274.525C340.565 274.875 340.323 275.333 340.323 275.9C340.323 276.35 340.465 276.725 340.748 277.025C341.048 277.308 341.415 277.542 341.848 277.725C342.298 277.892 342.915 278.083 343.698 278.3C344.681 278.567 345.481 278.833 346.098 279.1C346.715 279.35 347.24 279.733 347.673 280.25C348.123 280.767 348.356 281.442 348.373 282.275C348.373 283.025 348.165 283.7 347.748 284.3C347.331 284.9 346.74 285.375 345.973 285.725C345.223 286.058 344.356 286.225 343.373 286.225ZM354.36 274.175V282.25C354.36 282.917 354.501 283.392 354.785 283.675C355.068 283.942 355.56 284.075 356.26 284.075H357.935V286H355.885C354.618 286 353.668 285.708 353.035 285.125C352.401 284.542 352.085 283.583 352.085 282.25V274.175H350.31V272.3H352.085V268.85H354.36V272.3H357.935V274.175H354.36ZM63.9215 310.05C64.9882 310.05 65.9382 310.275 66.7715 310.725C67.6048 311.158 68.2632 311.817 68.7465 312.7C69.2298 313.583 69.4715 314.658 69.4715 315.925V324H67.2215V316.25C67.2215 314.883 66.8798 313.842 66.1965 313.125C65.5298 312.392 64.6215 312.025 63.4715 312.025C62.2882 312.025 61.3465 312.408 60.6465 313.175C59.9465 313.925 59.5965 315.017 59.5965 316.45V324H57.3465V316.25C57.3465 314.883 57.0048 313.842 56.3215 313.125C55.6548 312.392 54.7465 312.025 53.5965 312.025C52.4132 312.025 51.4715 312.408 50.7715 313.175C50.0715 313.925 49.7215 315.017 49.7215 316.45V324H47.4465V310.3H49.7215V312.275C50.1715 311.558 50.7715 311.008 51.5215 310.625C52.2882 310.242 53.1298 310.05 54.0465 310.05C55.1965 310.05 56.2132 310.308 57.0965 310.825C57.9798 311.342 58.6382 312.1 59.0715 313.1C59.4548 312.133 60.0882 311.383 60.9715 310.85C61.8548 310.317 62.8382 310.05 63.9215 310.05ZM74.3783 308.075C73.945 308.075 73.5783 307.925 73.2783 307.625C72.9783 307.325 72.8283 306.958 72.8283 306.525C72.8283 306.092 72.9783 305.725 73.2783 305.425C73.5783 305.125 73.945 304.975 74.3783 304.975C74.795 304.975 75.145 305.125 75.4283 305.425C75.7283 305.725 75.8783 306.092 75.8783 306.525C75.8783 306.958 75.7283 307.325 75.4283 307.625C75.145 307.925 74.795 308.075 74.3783 308.075ZM75.4783 310.3V324H73.2033V310.3H75.4783ZM86.5057 324L83.2557 318.9L80.1307 324H77.7557L82.1807 317.2L77.7557 310.3H80.3307L83.5807 315.375L86.6807 310.3H89.0557L84.6557 317.075L89.0807 324H86.5057ZM103.819 316.625C103.819 317.058 103.794 317.517 103.744 318H92.7936C92.8769 319.35 93.3352 320.408 94.1686 321.175C95.0186 321.925 96.0436 322.3 97.2436 322.3C98.2269 322.3 99.0436 322.075 99.6936 321.625C100.36 321.158 100.827 320.542 101.094 319.775H103.544C103.177 321.092 102.444 322.167 101.344 323C100.244 323.817 98.8769 324.225 97.2436 324.225C95.9436 324.225 94.7769 323.933 93.7436 323.35C92.7269 322.767 91.9269 321.942 91.3436 320.875C90.7602 319.792 90.4686 318.542 90.4686 317.125C90.4686 315.708 90.7519 314.467 91.3186 313.4C91.8852 312.333 92.6769 311.517 93.6936 310.95C94.7269 310.367 95.9102 310.075 97.2436 310.075C98.5436 310.075 99.6936 310.358 100.694 310.925C101.694 311.492 102.46 312.275 102.994 313.275C103.544 314.258 103.819 315.375 103.819 316.625ZM101.469 316.15C101.469 315.283 101.277 314.542 100.894 313.925C100.51 313.292 99.9852 312.817 99.3186 312.5C98.6686 312.167 97.9436 312 97.1436 312C95.9936 312 95.0102 312.367 94.1936 313.1C93.3936 313.833 92.9352 314.85 92.8186 316.15H101.469ZM105.971 317.1C105.971 315.7 106.255 314.475 106.821 313.425C107.388 312.358 108.163 311.533 109.146 310.95C110.146 310.367 111.263 310.075 112.496 310.075C113.563 310.075 114.555 310.325 115.471 310.825C116.388 311.308 117.088 311.95 117.571 312.75V305.5H119.871V324H117.571V321.425C117.121 322.242 116.455 322.917 115.571 323.45C114.688 323.967 113.655 324.225 112.471 324.225C111.255 324.225 110.146 323.925 109.146 323.325C108.163 322.725 107.388 321.883 106.821 320.8C106.255 319.717 105.971 318.483 105.971 317.1ZM117.571 317.125C117.571 316.092 117.363 315.192 116.946 314.425C116.53 313.658 115.963 313.075 115.246 312.675C114.546 312.258 113.771 312.05 112.921 312.05C112.071 312.05 111.296 312.25 110.596 312.65C109.896 313.05 109.338 313.633 108.921 314.4C108.505 315.167 108.296 316.067 108.296 317.1C108.296 318.15 108.505 319.067 108.921 319.85C109.338 320.617 109.896 321.208 110.596 321.625C111.296 322.025 112.071 322.225 112.921 322.225C113.771 322.225 114.546 322.025 115.246 321.625C115.963 321.208 116.53 320.617 116.946 319.85C117.363 319.067 117.571 318.158 117.571 317.125ZM131.556 308.075C131.123 308.075 130.756 307.925 130.456 307.625C130.156 307.325 130.006 306.958 130.006 306.525C130.006 306.092 130.156 305.725 130.456 305.425C130.756 305.125 131.123 304.975 131.556 304.975C131.973 304.975 132.323 305.125 132.606 305.425C132.906 305.725 133.056 306.092 133.056 306.525C133.056 306.958 132.906 307.325 132.606 307.625C132.323 307.925 131.973 308.075 131.556 308.075ZM132.656 310.3V324H130.381V310.3H132.656ZM143.208 310.05C144.875 310.05 146.225 310.558 147.258 311.575C148.292 312.575 148.808 314.025 148.808 315.925V324H146.558V316.25C146.558 314.883 146.217 313.842 145.533 313.125C144.85 312.392 143.917 312.025 142.733 312.025C141.533 312.025 140.575 312.4 139.858 313.15C139.158 313.9 138.808 314.992 138.808 316.425V324H136.533V310.3H138.808V312.25C139.258 311.55 139.867 311.008 140.633 310.625C141.417 310.242 142.275 310.05 143.208 310.05ZM162.115 314.6C161.181 314.233 160.465 313.7 159.965 313C159.465 312.3 159.215 311.45 159.215 310.45C159.215 309.55 159.44 308.742 159.89 308.025C160.34 307.292 161.006 306.717 161.89 306.3C162.79 305.867 163.873 305.65 165.14 305.65C166.406 305.65 167.481 305.867 168.365 306.3C169.265 306.717 169.94 307.292 170.39 308.025C170.856 308.742 171.09 309.55 171.09 310.45C171.09 311.417 170.831 312.267 170.315 313C169.798 313.717 169.09 314.25 168.19 314.6C169.223 314.917 170.04 315.475 170.64 316.275C171.256 317.058 171.565 318.008 171.565 319.125C171.565 320.208 171.298 321.158 170.765 321.975C170.231 322.775 169.473 323.4 168.49 323.85C167.523 324.283 166.406 324.5 165.14 324.5C163.873 324.5 162.756 324.283 161.79 323.85C160.84 323.4 160.098 322.775 159.565 321.975C159.031 321.158 158.765 320.208 158.765 319.125C158.765 318.008 159.065 317.05 159.665 316.25C160.265 315.45 161.081 314.9 162.115 314.6ZM168.89 310.725C168.89 309.708 168.556 308.925 167.89 308.375C167.223 307.825 166.306 307.55 165.14 307.55C163.99 307.55 163.081 307.825 162.415 308.375C161.748 308.925 161.415 309.717 161.415 310.75C161.415 311.683 161.756 312.433 162.44 313C163.14 313.567 164.04 313.85 165.14 313.85C166.256 313.85 167.156 313.567 167.84 313C168.54 312.417 168.89 311.658 168.89 310.725ZM165.14 315.6C163.906 315.6 162.898 315.892 162.115 316.475C161.331 317.042 160.94 317.9 160.94 319.05C160.94 320.117 161.315 320.975 162.065 321.625C162.831 322.275 163.856 322.6 165.14 322.6C166.423 322.6 167.44 322.275 168.19 321.625C168.94 320.975 169.315 320.117 169.315 319.05C169.315 317.933 168.931 317.083 168.165 316.5C167.398 315.9 166.39 315.6 165.14 315.6ZM184.461 313.875V315.8H174.486V313.875H184.461ZM187.756 308V305.925H192.456V324H190.156V308H187.756ZM196.088 322.175C198.205 320.475 199.863 319.083 201.063 318C202.263 316.9 203.272 315.758 204.088 314.575C204.922 313.375 205.338 312.2 205.338 311.05C205.338 309.967 205.072 309.117 204.538 308.5C204.022 307.867 203.18 307.55 202.013 307.55C200.88 307.55 199.997 307.908 199.363 308.625C198.747 309.325 198.413 310.267 198.363 311.45H196.163C196.23 309.583 196.797 308.142 197.863 307.125C198.93 306.108 200.305 305.6 201.988 305.6C203.705 305.6 205.063 306.075 206.063 307.025C207.08 307.975 207.588 309.283 207.588 310.95C207.588 312.333 207.172 313.683 206.338 315C205.522 316.3 204.588 317.45 203.538 318.45C202.488 319.433 201.147 320.583 199.513 321.9H208.113V323.8H196.088V322.175ZM223.758 324.225C222.475 324.225 221.308 323.933 220.258 323.35C219.225 322.767 218.408 321.942 217.808 320.875C217.225 319.792 216.933 318.542 216.933 317.125C216.933 315.725 217.233 314.492 217.833 313.425C218.45 312.342 219.283 311.517 220.333 310.95C221.383 310.367 222.558 310.075 223.858 310.075C225.158 310.075 226.333 310.367 227.383 310.95C228.433 311.517 229.258 312.333 229.858 313.4C230.475 314.467 230.783 315.708 230.783 317.125C230.783 318.542 230.467 319.792 229.833 320.875C229.217 321.942 228.375 322.767 227.308 323.35C226.242 323.933 225.058 324.225 223.758 324.225ZM223.758 322.225C224.575 322.225 225.342 322.033 226.058 321.65C226.775 321.267 227.35 320.692 227.783 319.925C228.233 319.158 228.458 318.225 228.458 317.125C228.458 316.025 228.242 315.092 227.808 314.325C227.375 313.558 226.808 312.992 226.108 312.625C225.408 312.242 224.65 312.05 223.833 312.05C223 312.05 222.233 312.242 221.533 312.625C220.85 312.992 220.3 313.558 219.883 314.325C219.467 315.092 219.258 316.025 219.258 317.125C219.258 318.242 219.458 319.183 219.858 319.95C220.275 320.717 220.825 321.292 221.508 321.675C222.192 322.042 222.942 322.225 223.758 322.225ZM235.475 322.125H242.2V324H232.875V322.125L239.525 312.15H232.925V310.3H242.15V312.15L235.475 322.125ZM270.067 310.3L265.792 324H263.442L260.142 313.125L256.842 324H254.492L250.192 310.3H252.517L255.667 321.8L259.067 310.3H261.392L264.717 321.825L267.817 310.3H270.067ZM271.474 317.1C271.474 315.7 271.758 314.475 272.324 313.425C272.891 312.358 273.666 311.533 274.649 310.95C275.649 310.367 276.758 310.075 277.974 310.075C279.174 310.075 280.216 310.333 281.099 310.85C281.983 311.367 282.641 312.017 283.074 312.8V310.3H285.374V324H283.074V321.45C282.624 322.25 281.949 322.917 281.049 323.45C280.166 323.967 279.133 324.225 277.949 324.225C276.733 324.225 275.633 323.925 274.649 323.325C273.666 322.725 272.891 321.883 272.324 320.8C271.758 319.717 271.474 318.483 271.474 317.1ZM283.074 317.125C283.074 316.092 282.866 315.192 282.449 314.425C282.033 313.658 281.466 313.075 280.749 312.675C280.049 312.258 279.274 312.05 278.424 312.05C277.574 312.05 276.799 312.25 276.099 312.65C275.399 313.05 274.841 313.633 274.424 314.4C274.008 315.167 273.799 316.067 273.799 317.1C273.799 318.15 274.008 319.067 274.424 319.85C274.841 320.617 275.399 321.208 276.099 321.625C276.799 322.025 277.574 322.225 278.424 322.225C279.274 322.225 280.049 322.025 280.749 321.625C281.466 321.208 282.033 320.617 282.449 319.85C282.866 319.067 283.074 318.158 283.074 317.125ZM291.994 312.175V320.25C291.994 320.917 292.136 321.392 292.419 321.675C292.702 321.942 293.194 322.075 293.894 322.075H295.569V324H293.519C292.252 324 291.302 323.708 290.669 323.125C290.036 322.542 289.719 321.583 289.719 320.25V312.175H287.944V310.3H289.719V306.85H291.994V310.3H295.569V312.175H291.994ZM310.825 316.625C310.825 317.058 310.8 317.517 310.75 318H299.8C299.884 319.35 300.342 320.408 301.175 321.175C302.025 321.925 303.05 322.3 304.25 322.3C305.234 322.3 306.05 322.075 306.7 321.625C307.367 321.158 307.834 320.542 308.1 319.775H310.55C310.184 321.092 309.45 322.167 308.35 323C307.25 323.817 305.884 324.225 304.25 324.225C302.95 324.225 301.784 323.933 300.75 323.35C299.734 322.767 298.934 321.942 298.35 320.875C297.767 319.792 297.475 318.542 297.475 317.125C297.475 315.708 297.759 314.467 298.325 313.4C298.892 312.333 299.684 311.517 300.7 310.95C301.734 310.367 302.917 310.075 304.25 310.075C305.55 310.075 306.7 310.358 307.7 310.925C308.7 311.492 309.467 312.275 310 313.275C310.55 314.258 310.825 315.375 310.825 316.625ZM308.475 316.15C308.475 315.283 308.284 314.542 307.9 313.925C307.517 313.292 306.992 312.817 306.325 312.5C305.675 312.167 304.95 312 304.15 312C303 312 302.017 312.367 301.2 313.1C300.4 313.833 299.942 314.85 299.825 316.15H308.475ZM316.103 312.525C316.503 311.742 317.07 311.133 317.803 310.7C318.553 310.267 319.462 310.05 320.528 310.05V312.4H319.928C317.378 312.4 316.103 313.783 316.103 316.55V324H313.828V310.3H316.103V312.525ZM323.879 324.15C323.446 324.15 323.079 324 322.779 323.7C322.479 323.4 322.329 323.033 322.329 322.6C322.329 322.167 322.479 321.8 322.779 321.5C323.079 321.2 323.446 321.05 323.879 321.05C324.296 321.05 324.646 321.2 324.929 321.5C325.229 321.8 325.379 322.167 325.379 322.6C325.379 323.033 325.229 323.4 324.929 323.7C324.646 324 324.296 324.15 323.879 324.15Z" fill="#2E2E2E"/>
<line x1="22.9414" y1="156" x2="349.059" y2="156" stroke="black" stroke-width="2"/>
<path d="M176.805 9.25C174.951 9.25 174.02 11.3678 175.332 12.6104L184.017 20.8065C185.114 21.8425 186.892 21.8425 187.989 20.8065L196.668 12.6104C197.98 11.3678 197.046 9.25 195.188 9.25H176.805ZM185.949 27.7078C185.084 27.7206 184.26 28.0569 183.658 28.6428C183.055 29.2288 182.723 30.0166 182.735 30.8333V37C182.729 37.4086 182.809 37.8142 182.97 38.1934C183.132 38.5725 183.371 38.9176 183.675 39.2086C183.979 39.4996 184.341 39.7306 184.74 39.8883C185.139 40.046 185.567 40.1272 186 40.1272C186.433 40.1272 186.861 40.046 187.26 39.8883C187.659 39.7306 188.021 39.4996 188.325 39.2086C188.629 38.9176 188.868 38.5725 189.03 38.1934C189.191 37.8142 189.271 37.4086 189.265 37V30.8333C189.271 30.4208 189.189 30.0114 189.024 29.6292C188.86 29.2471 188.616 28.9 188.306 28.6085C187.997 28.3171 187.629 28.0872 187.224 27.9325C186.819 27.7778 186.386 27.7014 185.949 27.7078ZM162.879 36.7471C162.229 36.7472 161.594 36.9307 161.054 37.274C160.515 37.6174 160.097 38.105 159.853 38.6743C159.609 39.2436 159.551 39.8687 159.686 40.4695C159.82 41.0703 160.142 41.6194 160.609 42.0465L165.226 46.4066C165.527 46.7025 165.887 46.9387 166.286 47.1015C166.684 47.2642 167.113 47.3502 167.548 47.3544C167.982 47.3586 168.413 47.2809 168.815 47.1258C169.217 46.9707 169.583 46.7415 169.89 46.4514C170.197 46.1613 170.44 45.8163 170.604 45.4365C170.768 45.0567 170.85 44.6498 170.846 44.2396C170.841 43.8293 170.75 43.4241 170.578 43.0475C170.406 42.671 170.156 42.3307 169.842 42.0465L165.226 37.6865C164.921 37.3893 164.557 37.153 164.154 36.9916C163.75 36.8302 163.317 36.7471 162.879 36.7471ZM209.019 36.7531C208.171 36.777 207.366 37.1117 206.774 37.6865L202.158 42.0465C201.844 42.3307 201.594 42.671 201.422 43.0475C201.25 43.4241 201.159 43.8293 201.154 44.2396C201.15 44.6498 201.232 45.0567 201.396 45.4365C201.56 45.8163 201.803 46.1613 202.11 46.4514C202.417 46.7415 202.783 46.9708 203.185 47.1258C203.587 47.2809 204.018 47.3586 204.452 47.3544C204.887 47.3502 205.316 47.2643 205.714 47.1015C206.113 46.9387 206.473 46.7025 206.774 46.4066L211.391 42.0465C211.862 41.6134 212.185 41.0559 212.315 40.4468C212.446 39.8378 212.378 39.2058 212.122 38.6336C211.865 38.0613 211.432 37.5756 210.878 37.2401C210.324 36.9045 209.676 36.7348 209.019 36.7531ZM186 46.25C178.141 46.25 171.532 51.57 170.008 58.5833H156.618C156.185 58.5775 155.755 58.653 155.354 58.8054C154.953 58.9577 154.587 59.1839 154.279 59.4708C153.971 59.7577 153.726 60.0996 153.559 60.4765C153.392 60.8535 153.306 61.258 153.306 61.6667C153.306 62.0753 153.392 62.4798 153.559 62.8568C153.726 63.2337 153.971 63.5756 154.279 63.8625C154.587 64.1494 154.953 64.3756 155.354 64.5279C155.755 64.6803 156.185 64.7558 156.618 64.75H215.382C215.815 64.7558 216.244 64.6803 216.646 64.5279C217.047 64.3756 217.413 64.1494 217.721 63.8625C218.029 63.5756 218.274 63.2337 218.441 62.8568C218.608 62.4798 218.694 62.0753 218.694 61.6667C218.694 61.258 218.608 60.8535 218.441 60.4765C218.274 60.0996 218.029 59.7577 217.721 59.4708C217.413 59.1839 217.047 58.9577 216.646 58.8054C216.244 58.653 215.815 58.5775 215.382 58.5833H201.992C200.468 51.57 193.859 46.25 186 46.25Z" fill="#316B62"/>
</svg>
