<svg width="2500" height="1781" viewBox="0 0 2500 1781" fill="none" xmlns="http://www.w3.org/2000/svg">
<g clip-path="url(#clip0_753_37)">
<path d="M77.9971 39.6482H2352.22V1409.89H77.9971V39.6482Z" fill="#0033A1"/>
<path d="M2345.88 39.6482L993.079 1409.89H1012.11L2352.22 52.3356V39.6482L2345.88 39.6482ZM154.122 1409.89H168.395L258.793 39.6482H244.52L154.122 1409.89ZM225.489 1409.89H239.762L436.418 39.6482H422.144L225.489 1409.89ZM303.2 1409.89H317.473L623.558 39.6482H609.284L303.2 1409.89ZM387.254 1409.89H403.113L839.244 39.6482H824.971L387.254 1409.89ZM468.136 1409.89H482.41L1043.83 39.6482H1029.56L468.136 1409.89ZM560.12 1409.89H575.98L1276.96 39.6482H1261.1L560.12 1409.89ZM718.713 1409.89L1627.45 39.6482H1611.59L702.854 1409.89H718.713ZM847.174 1409.89L1952.57 39.6482H1933.54L829.729 1409.89H847.174ZM1280.13 1409.89L2352.22 558.247V539.216L1256.34 1409.89H1280.13ZM1592.56 1409.89L2352.22 935.699V918.254L1565.6 1409.89H1592.56ZM2096.89 1409.89L2352.22 1290.95V1275.09L2063.58 1409.89H2096.89Z" fill="white"/>
<path d="M587.081 992.792C350.778 992.792 190.599 846.887 190.599 610.583C190.599 380.623 361.879 218.858 590.253 218.858C650.518 218.858 717.128 229.96 767.877 253.749V366.35C742.503 333.045 691.753 274.366 591.839 274.366C449.105 274.366 368.223 404.412 368.223 593.138C368.223 791.379 444.348 932.527 606.112 932.527C663.206 932.527 734.573 903.98 766.291 873.848L793.252 932.527C763.12 957.902 706.026 992.792 587.081 992.792ZM1361.02 605.825C1361.02 897.637 1180.22 918.254 1042.24 918.254V288.639C1184.98 288.639 1361.02 306.085 1361.02 605.825ZM1173.88 978.519C1316.61 978.519 1537.05 889.707 1537.05 602.654C1537.05 299.741 1319.78 231.546 1156.43 231.546H885.236V978.519H1173.88ZM2020.76 992.792C1784.46 992.792 1624.28 846.887 1624.28 610.583C1624.28 380.623 1795.56 218.858 2023.93 218.858C2084.2 218.858 2150.81 229.96 2201.56 253.749V366.35C2176.18 333.045 2125.43 274.366 2025.52 274.366C1882.79 274.366 1801.9 404.412 1801.9 593.138C1801.9 791.379 1878.03 932.527 2039.79 932.527C2096.89 932.527 2168.25 903.98 2199.97 873.848L2226.93 932.527C2195.21 957.902 2138.12 992.792 2020.76 992.792Z" fill="white" stroke="white" stroke-width="7.07325"/>
<path d="M2398.21 1484.43H2425.17V1489.19H2414.07V1519.32H2409.31V1489.19H2398.21V1484.43ZM2456.89 1517.74V1490.77L2447.38 1519.32H2442.62L2433.1 1490.77V1517.74H2428.35V1484.43H2434.69L2444.21 1512.98L2453.72 1484.43H2460.06V1517.74H2456.89ZM165.223 1520.91L163.637 1519.32V1517.74C163.637 1514.56 150.95 1509.81 138.262 1509.81C125.575 1509.81 108.13 1516.15 108.13 1532.01C108.13 1547.87 125.575 1554.21 138.262 1554.21C144.606 1554.21 165.223 1549.45 165.223 1544.7C165.223 1543.11 165.223 1543.11 163.637 1541.52L165.223 1539.94L181.083 1565.31L179.497 1566.9C179.497 1565.31 177.911 1565.31 177.911 1565.31C174.739 1565.31 160.465 1573.24 136.677 1573.24C111.302 1573.24 84.3408 1558.97 84.3408 1530.42C84.3408 1501.88 111.302 1487.6 136.677 1487.6C149.364 1487.6 158.88 1489.19 165.223 1490.77C171.567 1492.36 174.739 1493.95 176.325 1493.95C177.911 1493.95 177.911 1493.95 179.497 1492.36H181.083L165.223 1520.91ZM293.684 1558.97C295.27 1558.97 296.855 1557.38 298.441 1554.21H300.027V1574.83H298.441C296.855 1571.66 296.856 1571.66 293.684 1571.66H222.317V1570.07C223.903 1570.07 227.075 1570.07 227.075 1566.9V1506.63C227.075 1505.05 225.489 1503.46 222.317 1503.46V1501.88H295.27C296.855 1501.88 298.441 1501.88 298.441 1498.7H300.027V1519.32H298.441C298.441 1516.15 296.855 1516.15 295.27 1516.15H249.278V1528.84H279.41C280.996 1528.84 282.582 1528.84 282.582 1525.67H284.168V1546.28H282.582C282.582 1543.11 280.996 1543.11 279.41 1543.11H249.278V1558.97H293.684ZM426.902 1568.49C426.902 1570.07 428.488 1571.66 431.66 1571.66V1573.24H401.527V1571.66C403.113 1571.66 406.285 1571.66 406.285 1570.07C406.285 1566.9 385.668 1547.87 368.222 1527.25V1568.49C368.222 1570.07 369.808 1571.66 372.98 1571.66V1573.24H346.019V1571.66C347.605 1571.66 350.777 1571.66 350.777 1568.49V1508.22C350.777 1506.63 349.191 1505.05 346.019 1505.05V1503.46H384.082V1505.05C382.496 1505.05 380.91 1505.05 380.91 1508.22C380.91 1509.81 396.769 1525.67 409.457 1539.94V1508.22C409.457 1506.63 407.871 1505.05 404.699 1505.05V1503.46H433.246V1505.05C430.074 1505.05 428.488 1505.05 428.488 1508.22V1568.49H426.902ZM542.675 1503.46C544.261 1503.46 545.847 1503.46 545.847 1500.29H547.433V1524.08H545.847C545.847 1520.91 544.261 1520.91 542.675 1520.91H520.472V1570.07C520.472 1571.66 522.058 1573.24 523.644 1573.24V1574.83H495.097V1573.24C496.683 1573.24 498.269 1573.24 498.269 1570.07V1520.91H476.066C474.48 1520.91 472.894 1520.91 472.894 1524.08H471.308V1500.29H472.894C472.894 1503.46 474.48 1503.46 476.066 1503.46H542.675ZM656.862 1558.97C658.448 1558.97 660.034 1557.38 661.62 1554.21H663.206V1574.83H661.62C660.034 1571.66 660.034 1571.66 656.862 1571.66H585.495V1570.07C587.081 1570.07 590.253 1570.07 590.253 1566.9V1506.63C590.253 1505.05 588.667 1503.46 585.495 1503.46V1501.88H658.448C660.034 1501.88 661.62 1501.88 661.62 1498.7H663.206V1519.32H661.62C661.62 1516.15 660.034 1516.15 658.448 1516.15H612.456V1528.84H642.588C644.174 1528.84 645.76 1528.84 645.76 1525.67H647.346V1546.28H645.76C645.76 1543.11 644.174 1543.11 642.588 1543.11H612.456V1558.97H656.862ZM732.986 1516.15H755.189C764.705 1516.15 767.877 1519.32 767.877 1524.08C767.877 1530.42 763.119 1532.01 756.775 1532.01H734.572V1516.15H732.986ZM712.369 1568.49C712.369 1570.07 710.783 1571.66 709.197 1571.66V1573.24H736.158V1571.66C734.572 1571.66 731.401 1571.66 731.401 1568.49V1547.87H747.26C748.846 1551.04 759.947 1568.49 759.947 1570.07C759.947 1571.66 756.775 1571.66 756.775 1571.66V1573.24H788.494V1571.66C786.908 1571.66 783.736 1570.07 782.15 1568.49L767.877 1547.87C777.392 1544.7 785.322 1538.35 785.322 1525.67C785.322 1511.39 774.221 1503.46 759.947 1503.46H709.197V1505.05C710.783 1505.05 712.369 1505.05 712.369 1508.22V1568.49ZM831.314 1549.45L832.9 1551.04V1552.63C832.9 1557.38 851.931 1560.56 864.619 1560.56C867.79 1560.56 878.892 1560.56 878.892 1554.21C878.892 1541.52 826.556 1554.21 826.556 1527.25C826.556 1517.74 836.072 1503.46 861.447 1503.46C877.306 1503.46 889.994 1508.22 893.165 1508.22C894.751 1508.22 896.337 1506.63 896.337 1506.63H897.923L888.408 1527.25L886.822 1525.67V1524.08C886.822 1522.49 875.72 1517.74 864.619 1517.74C859.861 1517.74 847.173 1517.74 847.173 1524.08C847.173 1535.18 899.509 1524.08 899.509 1551.04C899.509 1563.73 888.408 1574.83 864.619 1574.83C848.759 1574.83 831.314 1568.49 829.728 1568.49C828.142 1568.49 826.556 1570.07 826.556 1570.07H824.97L831.314 1549.45ZM1089.82 1508.22C1089.82 1506.63 1088.23 1505.05 1085.06 1505.05V1503.46H1154.84C1156.43 1503.46 1158.02 1503.46 1158.02 1500.29H1159.6V1522.49H1158.02C1158.02 1519.32 1156.43 1519.32 1154.84 1519.32H1112.02V1533.59H1140.57C1142.16 1533.59 1143.74 1533.59 1143.74 1530.42H1145.33V1551.04H1143.74C1143.74 1547.87 1142.16 1547.87 1140.57 1547.87H1112.02V1570.07C1112.02 1571.66 1113.61 1573.24 1116.78 1573.24V1574.83H1085.06V1573.24C1088.23 1573.24 1089.82 1573.24 1089.82 1570.07V1508.22ZM1235.73 1519.32C1248.41 1519.32 1257.93 1527.25 1257.93 1538.35C1257.93 1549.45 1248.41 1557.38 1235.73 1557.38C1223.04 1557.38 1213.52 1549.45 1213.52 1538.35C1215.11 1527.25 1224.62 1519.32 1235.73 1519.32ZM1235.73 1501.88C1215.11 1501.88 1192.91 1512.98 1192.91 1538.35C1192.91 1563.73 1215.11 1574.83 1235.73 1574.83C1256.34 1574.83 1278.55 1563.73 1278.55 1538.35C1278.55 1512.98 1256.34 1501.88 1235.73 1501.88ZM1343.57 1516.15H1365.77C1375.29 1516.15 1378.46 1519.32 1378.46 1524.08C1378.46 1530.42 1373.7 1532.01 1367.36 1532.01H1345.16V1516.15H1343.57ZM1322.95 1568.49C1322.95 1570.07 1321.37 1571.66 1319.78 1571.66V1573.24H1346.74V1571.66C1345.16 1571.66 1341.98 1571.66 1341.98 1568.49V1547.87H1357.84C1359.43 1551.04 1370.53 1568.49 1370.53 1570.07C1370.53 1571.66 1367.36 1571.66 1367.36 1571.66V1573.24H1399.08V1571.66C1397.49 1571.66 1394.32 1570.07 1392.73 1568.49L1378.46 1547.87C1387.98 1544.7 1395.91 1538.35 1395.91 1525.67C1395.91 1511.39 1384.8 1503.46 1368.94 1503.46H1318.19V1505.05C1319.78 1505.05 1321.37 1505.05 1321.37 1508.22V1568.49H1322.95ZM1616.35 1508.22H1636.97C1654.41 1508.22 1660.76 1517.74 1660.76 1532.01C1660.76 1546.28 1654.41 1555.8 1636.97 1555.8H1616.35V1508.22ZM1592.56 1568.49C1592.56 1570.07 1592.56 1571.66 1587.8 1571.66V1573.24H1638.55C1668.69 1573.24 1682.96 1552.63 1682.96 1532.01C1682.96 1508.22 1668.69 1490.77 1640.14 1490.77H1587.8V1492.36C1592.56 1492.36 1592.56 1493.95 1592.56 1495.53V1568.49ZM1755.91 1503.46V1505.05C1752.74 1505.05 1751.15 1505.05 1751.15 1508.22V1568.49C1751.15 1570.07 1752.74 1571.66 1755.91 1571.66V1573.24H1724.19V1571.66C1727.36 1571.66 1728.95 1571.66 1728.95 1568.49V1508.22C1728.95 1506.63 1727.36 1505.05 1724.19 1505.05V1503.46H1755.91ZM1801.9 1549.45L1803.49 1551.04V1552.63C1803.49 1557.38 1822.52 1560.56 1835.21 1560.56C1839.97 1560.56 1849.48 1560.56 1849.48 1554.21C1849.48 1541.52 1797.15 1554.21 1797.15 1527.25C1797.15 1517.74 1806.66 1503.46 1832.04 1503.46C1847.9 1503.46 1860.58 1508.22 1863.75 1508.22C1865.34 1508.22 1866.93 1506.63 1866.93 1506.63H1868.51L1859 1527.25L1857.41 1525.67V1524.08C1857.41 1522.49 1846.31 1517.74 1835.21 1517.74C1830.45 1517.74 1817.76 1517.74 1817.76 1524.08C1817.76 1535.18 1870.1 1524.08 1870.1 1551.04C1870.1 1563.73 1859 1574.83 1835.21 1574.83C1819.35 1574.83 1801.9 1568.49 1800.32 1568.49C1798.73 1568.49 1797.15 1570.07 1797.15 1570.07H1795.56L1801.9 1549.45ZM1982.7 1558.97C1984.29 1558.97 1985.87 1557.38 1987.46 1554.21H1989.04V1574.83H1987.46C1985.87 1571.66 1985.87 1571.66 1982.7 1571.66H1911.33V1570.07C1912.92 1570.07 1916.09 1570.07 1916.09 1566.9V1506.63C1916.09 1505.05 1914.5 1503.46 1911.33 1503.46V1501.88H1984.29C1985.87 1501.88 1987.46 1501.88 1987.46 1498.7H1989.04V1519.32H1987.46C1987.46 1516.15 1985.87 1516.15 1984.29 1516.15H1938.29V1528.84H1968.43C1970.01 1528.84 1971.6 1528.84 1971.6 1525.67H1973.18V1546.28H1971.6C1971.6 1543.11 1970.01 1543.11 1968.43 1543.11H1938.29V1558.97H1982.7ZM2062 1547.87L2074.68 1519.32L2087.37 1547.87H2062ZM2122.26 1573.24V1571.66C2120.68 1571.66 2119.09 1571.66 2119.09 1570.07C2112.75 1554.21 2088.96 1508.22 2088.96 1506.63C2088.96 1505.05 2088.96 1505.05 2090.54 1505.05V1503.46H2057.24V1505.05C2058.82 1505.05 2058.82 1505.05 2058.82 1506.63C2058.82 1508.22 2044.55 1539.94 2031.86 1570.07C2031.86 1571.66 2030.28 1571.66 2028.69 1571.66V1573.24H2052.48V1571.66C2052.48 1571.66 2050.89 1571.66 2050.89 1570.07C2050.89 1568.49 2054.07 1562.14 2055.65 1558.97H2092.13C2093.71 1562.14 2096.89 1568.49 2096.89 1570.07C2096.89 1571.66 2095.3 1571.66 2095.3 1571.66V1573.24H2122.26ZM2166.67 1549.45L2168.25 1551.04V1552.63C2168.25 1557.38 2187.28 1560.56 2199.97 1560.56C2204.73 1560.56 2214.25 1560.56 2214.25 1554.21C2214.25 1541.52 2161.91 1554.21 2161.91 1527.25C2161.91 1517.74 2171.43 1503.46 2196.8 1503.46C2212.66 1503.46 2225.35 1508.22 2228.52 1508.22C2230.1 1508.22 2231.69 1506.63 2231.69 1506.63H2233.28L2223.76 1527.25L2222.18 1525.67V1524.08C2222.18 1522.49 2211.07 1517.74 2199.97 1517.74C2195.21 1517.74 2182.53 1517.74 2182.53 1524.08C2182.53 1535.18 2234.86 1524.08 2234.86 1551.04C2234.86 1563.73 2223.76 1574.83 2199.97 1574.83C2184.11 1574.83 2166.67 1568.49 2165.08 1568.49C2163.5 1568.49 2161.91 1570.07 2161.91 1570.07H2160.32L2166.67 1549.45ZM2345.88 1558.97C2347.46 1558.97 2349.05 1557.38 2350.64 1554.21H2352.22V1574.83H2350.64C2349.05 1571.66 2349.05 1571.66 2345.88 1571.66H2274.51V1570.07C2276.1 1570.07 2279.27 1570.07 2279.27 1566.9V1506.63C2279.27 1505.05 2277.68 1503.46 2274.51 1503.46V1501.88H2347.46C2349.05 1501.88 2350.64 1501.88 2350.64 1498.7H2352.22V1519.32H2350.64C2350.64 1516.15 2349.05 1516.15 2347.46 1516.15H2301.47V1528.84H2331.6C2333.19 1528.84 2334.78 1528.84 2334.78 1525.67H2336.36V1546.28H2334.78C2334.78 1543.11 2333.19 1543.11 2331.6 1543.11H2301.47V1558.97H2345.88ZM163.637 1679.5L162.051 1677.91V1674.74C162.051 1671.57 149.364 1666.81 136.677 1666.81C123.989 1666.81 106.544 1673.16 106.544 1689.02C106.544 1704.88 123.989 1711.22 136.677 1711.22C143.02 1711.22 163.637 1706.46 163.637 1701.7C163.637 1700.12 163.637 1700.12 162.051 1698.53L163.637 1696.95L179.497 1722.32L177.911 1723.91C177.911 1722.32 176.325 1722.32 176.325 1722.32C173.153 1722.32 158.88 1730.25 135.091 1730.25C109.716 1730.25 82.7549 1715.98 82.7549 1687.43C82.7549 1658.88 109.716 1644.61 135.091 1644.61C147.778 1644.61 157.294 1646.2 163.637 1647.78C169.981 1649.37 173.153 1650.95 174.739 1650.95C176.325 1650.95 176.325 1650.95 177.911 1649.37H179.497L163.637 1679.5ZM247.692 1679.5C260.379 1679.5 269.895 1687.43 269.895 1698.53C269.895 1709.63 260.379 1717.56 247.692 1717.56C235.004 1717.56 225.489 1709.63 225.489 1698.53C225.489 1685.84 236.59 1679.5 247.692 1679.5ZM247.692 1662.06C227.075 1662.06 204.872 1673.16 204.872 1698.53C204.872 1723.91 227.075 1735.01 247.692 1735.01C268.309 1735.01 290.512 1723.91 290.512 1698.53C290.512 1673.16 268.309 1662.06 247.692 1662.06ZM401.527 1728.66C401.527 1730.25 403.113 1731.84 406.285 1731.84V1733.42H376.152V1731.84C377.738 1731.84 380.91 1731.84 380.91 1730.25C380.91 1727.08 360.293 1708.05 342.848 1687.43V1728.66C342.848 1730.25 344.433 1731.84 347.605 1731.84V1733.42H320.644V1731.84C322.23 1731.84 325.402 1731.84 325.402 1728.66V1668.4C325.402 1666.81 323.816 1665.23 320.644 1665.23V1663.64H358.707V1665.23C357.121 1665.23 355.535 1665.23 355.535 1668.4C355.535 1669.98 371.394 1685.84 384.082 1700.12V1668.4C384.082 1666.81 382.496 1665.23 379.324 1665.23V1663.64H407.871V1665.23C404.699 1665.23 403.113 1665.23 403.113 1668.4V1728.66H401.527ZM504.612 1662.06C506.198 1662.06 507.784 1662.06 507.784 1658.88H509.37V1682.67H507.784C507.784 1679.5 506.198 1679.5 504.612 1679.5H482.409V1728.66C482.409 1730.25 483.995 1731.84 485.581 1731.84V1733.42H457.034V1731.84C458.62 1731.84 460.206 1731.84 460.206 1728.66V1679.5H438.003C436.417 1679.5 434.831 1679.5 434.831 1682.67H433.246V1658.88H434.831C434.831 1662.06 436.417 1662.06 438.003 1662.06H504.612ZM563.292 1676.33H585.495C595.01 1676.33 598.182 1679.5 598.182 1684.26C598.182 1690.6 593.424 1692.19 587.081 1692.19H564.878V1676.33H563.292ZM542.675 1728.66C542.675 1730.25 541.089 1731.84 539.503 1731.84V1733.42H566.464V1731.84C564.878 1731.84 561.706 1731.84 561.706 1728.66V1708.05H577.565C579.151 1711.22 590.253 1728.66 590.253 1730.25C590.253 1731.84 587.081 1731.84 587.081 1731.84V1733.42H618.799V1731.84C617.213 1731.84 614.042 1730.25 612.456 1728.66L598.182 1708.05C607.698 1704.88 615.628 1698.53 615.628 1685.84C615.628 1671.57 604.526 1663.64 590.253 1663.64H539.503V1665.23C541.089 1665.23 542.675 1665.23 542.675 1668.4V1728.66ZM686.994 1679.5C699.682 1679.5 709.197 1687.43 709.197 1698.53C709.197 1709.63 699.682 1717.56 686.994 1717.56C674.307 1717.56 664.791 1709.63 664.791 1698.53C664.791 1685.84 674.307 1679.5 686.994 1679.5ZM686.994 1662.06C666.377 1662.06 644.174 1673.16 644.174 1698.53C644.174 1723.91 666.377 1735.01 686.994 1735.01C707.612 1735.01 729.815 1723.91 729.815 1698.53C729.815 1673.16 706.026 1662.06 686.994 1662.06ZM761.533 1668.4C761.533 1666.81 759.947 1665.23 756.775 1665.23V1663.64H786.908V1665.23C785.322 1665.23 782.15 1665.23 782.15 1668.4V1717.56H826.556C828.142 1717.56 829.728 1717.56 829.728 1712.8H831.314V1736.59H829.728C829.728 1733.42 828.142 1733.42 826.556 1733.42H756.775V1731.84C759.947 1731.84 761.533 1731.84 761.533 1728.66V1668.4ZM947.087 1708.05L959.774 1679.5L972.462 1708.05H947.087ZM1007.35 1733.42V1731.84C1005.77 1731.84 1004.18 1731.84 1004.18 1730.25C997.837 1714.39 974.048 1668.4 974.048 1666.81C974.048 1665.23 974.048 1665.23 975.634 1665.23V1663.64H942.329V1665.23C943.915 1665.23 943.915 1665.23 943.915 1666.81C943.915 1668.4 929.642 1700.12 916.954 1730.25C916.954 1731.84 915.368 1731.84 913.783 1731.84V1733.42H937.571V1731.84C937.571 1731.84 935.985 1731.84 935.985 1730.25C935.985 1728.66 939.157 1722.32 940.743 1719.15H977.22C978.806 1722.32 981.978 1728.66 981.978 1730.25C981.978 1731.84 980.392 1731.84 980.392 1731.84V1733.42H1007.35ZM1119.95 1728.66C1119.95 1730.25 1121.54 1731.84 1124.71 1731.84V1733.42H1094.58V1731.84C1096.16 1731.84 1099.34 1731.84 1099.34 1730.25C1099.34 1727.08 1078.72 1708.05 1061.27 1687.43V1728.66C1061.27 1730.25 1062.86 1731.84 1066.03 1731.84V1733.42H1037.49V1731.84C1039.07 1731.84 1042.24 1731.84 1042.24 1728.66V1668.4C1042.24 1666.81 1040.66 1665.23 1037.49 1665.23V1663.64H1075.55V1665.23C1073.96 1665.23 1072.38 1665.23 1072.38 1668.4C1072.38 1669.98 1088.23 1685.84 1100.92 1700.12V1668.4C1100.92 1666.81 1099.34 1665.23 1096.16 1665.23V1663.64H1124.71V1665.23C1121.54 1665.23 1119.95 1665.23 1119.95 1668.4V1728.66ZM1181.8 1677.91H1192.91C1208.77 1677.91 1216.7 1682.67 1216.7 1696.95C1216.7 1711.22 1210.35 1715.98 1192.91 1715.98H1181.8V1677.91ZM1159.6 1728.66C1159.6 1730.25 1158.02 1731.84 1154.84 1731.84V1733.42H1202.42C1226.21 1733.42 1235.73 1717.56 1235.73 1698.53C1235.73 1679.5 1226.21 1663.64 1202.42 1663.64H1154.84V1665.23C1156.43 1665.23 1159.6 1665.23 1159.6 1668.4V1728.66ZM1357.84 1666.81H1381.63C1389.56 1666.81 1394.32 1669.98 1394.32 1676.33C1394.32 1682.67 1389.56 1685.84 1381.63 1685.84H1357.84V1666.81ZM1357.84 1701.7H1386.39C1407.01 1701.7 1416.52 1689.02 1416.52 1674.74C1416.52 1660.47 1405.42 1647.78 1386.39 1647.78H1329.3V1649.37C1334.05 1649.37 1334.05 1650.95 1334.05 1652.54V1727.08C1334.05 1728.66 1334.05 1730.25 1329.3 1730.25V1731.84H1362.6V1730.25C1357.84 1730.25 1357.84 1728.66 1357.84 1727.08V1701.7ZM1470.44 1676.33H1492.65C1502.16 1676.33 1505.33 1679.5 1505.33 1684.26C1505.33 1690.6 1500.58 1692.19 1494.23 1692.19H1472.03V1676.33H1470.44ZM1449.83 1728.66C1449.83 1730.25 1448.24 1731.84 1446.66 1731.84V1733.42H1473.62V1731.84C1472.03 1731.84 1468.86 1731.84 1468.86 1728.66V1708.05H1484.72C1486.3 1711.22 1497.4 1728.66 1497.4 1730.25C1497.4 1731.84 1494.23 1731.84 1494.23 1731.84V1733.42H1525.95V1731.84C1524.37 1731.84 1521.19 1730.25 1519.61 1728.66L1505.33 1708.05C1514.85 1704.88 1522.78 1698.53 1522.78 1685.84C1522.78 1671.57 1511.68 1663.64 1497.4 1663.64H1446.66V1665.23C1448.24 1665.23 1449.83 1665.23 1449.83 1668.4V1728.66ZM1625.87 1719.15C1627.45 1719.15 1629.04 1717.56 1630.62 1715.98H1632.21V1736.59H1630.62C1629.04 1733.42 1629.04 1733.42 1625.87 1733.42H1554.5V1731.84C1556.08 1731.84 1559.26 1731.84 1559.26 1728.66V1668.4C1559.26 1666.81 1557.67 1665.23 1554.5 1665.23V1663.64H1627.45C1629.04 1663.64 1630.62 1663.64 1630.62 1660.47H1632.21V1681.09H1630.62C1630.62 1677.91 1629.04 1677.91 1627.45 1677.91H1581.46V1690.6H1611.59C1613.18 1690.6 1614.76 1690.6 1614.76 1687.43H1616.35V1708.05H1614.76C1614.76 1704.88 1613.18 1704.88 1611.59 1704.88H1581.46V1720.73H1625.87V1719.15ZM1657.58 1662.06H1687.72V1663.64C1686.13 1663.64 1682.96 1663.64 1682.96 1665.23C1682.96 1666.81 1695.65 1701.7 1697.23 1706.46C1703.58 1692.19 1713.09 1666.81 1713.09 1665.23C1713.09 1663.64 1709.92 1663.64 1709.92 1663.64V1662.06H1736.88V1663.64C1735.29 1663.64 1733.71 1663.64 1733.71 1665.23C1732.12 1671.57 1708.33 1725.49 1708.33 1727.08C1708.33 1728.66 1709.92 1730.25 1711.51 1730.25V1731.84H1678.2V1730.25C1679.79 1730.25 1681.37 1728.66 1681.37 1727.08C1681.37 1727.08 1660.76 1665.23 1659.17 1663.64H1656V1662.06H1657.58ZM1835.21 1719.15C1836.79 1719.15 1838.38 1717.56 1839.97 1715.98H1841.55V1736.59H1839.97C1838.38 1733.42 1838.38 1733.42 1835.21 1733.42H1763.84V1731.84C1765.43 1731.84 1768.6 1731.84 1768.6 1728.66V1668.4C1768.6 1666.81 1767.01 1665.23 1763.84 1665.23V1663.64H1836.79C1838.38 1663.64 1839.97 1663.64 1839.97 1660.47H1841.55V1681.09H1839.97C1839.97 1677.91 1838.38 1677.91 1836.79 1677.91H1790.8V1690.6H1820.93C1822.52 1690.6 1824.11 1690.6 1824.11 1687.43H1825.69V1708.05H1824.11C1824.11 1704.88 1822.52 1704.88 1820.93 1704.88H1790.8V1720.73H1835.21V1719.15ZM1957.32 1728.66C1957.32 1730.25 1958.91 1731.84 1962.08 1731.84V1733.42H1931.95V1731.84C1933.54 1731.84 1936.71 1731.84 1936.71 1730.25C1936.71 1727.08 1916.09 1708.05 1898.65 1687.43V1728.66C1898.65 1730.25 1900.23 1731.84 1903.4 1731.84V1733.42H1876.44V1731.84C1878.03 1731.84 1881.2 1731.84 1881.2 1728.66V1668.4C1881.2 1666.81 1879.61 1665.23 1876.44 1665.23V1663.64H1914.5V1665.23C1912.92 1665.23 1911.33 1665.23 1911.33 1668.4C1911.33 1669.98 1927.19 1685.84 1939.88 1700.12V1668.4C1939.88 1666.81 1938.29 1665.23 1935.12 1665.23V1663.64H1963.67V1665.23C1960.5 1665.23 1958.91 1665.23 1958.91 1668.4V1728.66H1957.32ZM2060.41 1662.06C2062 1662.06 2063.58 1662.06 2063.58 1658.88H2065.17V1682.67H2063.58C2063.58 1679.5 2062 1679.5 2060.41 1679.5H2038.21V1728.66C2038.21 1730.25 2039.79 1731.84 2041.38 1731.84V1733.42H2012.83V1731.84C2014.42 1731.84 2016 1731.84 2016 1728.66V1679.5H1993.8C1992.22 1679.5 1990.63 1679.5 1990.63 1682.67H1989.04V1658.88H1990.63C1990.63 1662.06 1992.22 1662.06 1993.8 1662.06H2060.41ZM2127.02 1662.06V1663.64C2123.85 1663.64 2122.26 1663.64 2122.26 1666.81V1727.08C2122.26 1728.66 2123.85 1730.25 2127.02 1730.25V1731.84H2095.3V1730.25C2098.47 1730.25 2100.06 1730.25 2100.06 1727.08V1666.81C2100.06 1665.23 2098.47 1663.64 2095.3 1663.64V1662.06H2127.02ZM2198.39 1679.5C2211.07 1679.5 2220.59 1687.43 2220.59 1698.53C2220.59 1709.63 2211.07 1717.56 2198.39 1717.56C2185.7 1717.56 2176.18 1709.63 2176.18 1698.53C2176.18 1685.84 2185.7 1679.5 2198.39 1679.5ZM2198.39 1662.06C2177.77 1662.06 2155.57 1673.16 2155.57 1698.53C2155.57 1723.91 2177.77 1735.01 2198.39 1735.01C2219 1735.01 2241.21 1723.91 2241.21 1698.53C2241.21 1673.16 2217.42 1662.06 2198.39 1662.06ZM2350.64 1728.66C2350.64 1730.25 2352.22 1731.84 2355.39 1731.84V1733.42H2325.26V1731.84C2326.85 1731.84 2330.02 1731.84 2330.02 1730.25C2330.02 1727.08 2309.4 1708.05 2291.96 1687.43V1728.66C2291.96 1730.25 2293.54 1731.84 2296.71 1731.84V1733.42H2269.75V1731.84C2271.34 1731.84 2274.51 1731.84 2274.51 1728.66V1668.4C2274.51 1666.81 2272.92 1665.23 2269.75 1665.23V1663.64H2307.82V1665.23C2306.23 1665.23 2304.64 1665.23 2304.64 1668.4C2304.64 1669.98 2320.5 1685.84 2333.19 1700.12V1668.4C2333.19 1666.81 2331.6 1665.23 2328.43 1665.23V1663.64H2356.98V1665.23C2353.81 1665.23 2352.22 1665.23 2352.22 1668.4V1728.66H2350.64Z" fill="#0033A1"/>
</g>
<defs>
<clipPath id="clip0_753_37">
<rect width="2500" height="1781" fill="white"/>
</clipPath>
</defs>
</svg>
